{
.appVersion = "3151";
.formatVersion = 3;
customParameters = (
{
name = vendorID;
value = "1ASC";
},
{
name = panose;
value = (
2,
11,
6,
9,
3,
8,
4,
2,
2,
4
);
},
{
name = unicodeRanges;
value = (
0,
1,
2,
3,
5,
6,
7,
9,
29,
30,
31,
32,
33,
35,
36,
38,
45,
62,
67,
69
);
},
{
name = codePageRanges;
value = (
"1252",
"1250",
"1251",
"1253",
"1254",
"1257",
"1258",
"bit 29"
);
},
{
name = glyphOrder;
value = (
.notdef,
space,
exclam,
quotedbl,
numbersign,
dollar,
percent,
ampersand,
quotesingle,
parenleft,
parenright,
asterisk,
plus,
comma,
hyphen,
period,
slash,
zero,
one,
two,
three,
four,
five,
six,
seven,
eight,
nine,
colon,
semicolon,
less,
equal,
greater,
question,
at,
A,
B,
C,
D,
E,
F,
G,
H,
I,
J,
K,
L,
M,
N,
O,
P,
Q,
R,
S,
T,
U,
V,
W,
X,
Y,
Z,
bracketleft,
backslash,
bracketright,
asciicircum,
underscore,
grave,
a,
b,
c,
d,
e,
f,
g,
h,
i,
j,
k,
l,
m,
n,
o,
p,
q,
r,
s,
t,
u,
v,
w,
x,
y,
z,
braceleft,
bar,
braceright,
asciitilde,
nbspace,
exclamdown,
cent,
sterling,
currency,
yen,
brokenbar,
section,
dieresis,
copyright,
ordfeminine,
guillemetleft,
logicalnot,
softhyphen,
registered,
macron,
degree,
plusminus,
twosuperior,
threesuperior,
acute,
micro,
paragraph,
periodcentered,
cedilla,
onesuperior,
ordmasculine,
guillemetright,
onequarter,
onehalf,
threequarters,
questiondown,
Agrave,
Aacute,
Acircumflex,
Atilde,
Adieresis,
Aring,
AE,
Ccedilla,
Egrave,
Eacute,
Ecircumflex,
Edieresis,
Igrave,
Iacute,
Icircumflex,
Idieresis,
Eth,
Ntilde,
Ograve,
Oacute,
Ocircumflex,
Otilde,
Odieresis,
multiply,
Oslash,
Ugrave,
Uacute,
Ucircumflex,
Udieresis,
Yacute,
Thorn,
germandbls,
agrave,
aacute,
acircumflex,
atilde,
adieresis,
aring,
ae,
ccedilla,
egrave,
eacute,
ecircumflex,
edieresis,
igrave,
iacute,
icircumflex,
idieresis,
eth,
ntilde,
ograve,
oacute,
ocircumflex,
otilde,
odieresis,
divide,
oslash,
ugrave,
uacute,
ucircumflex,
udieresis,
yacute,
thorn,
ydieresis,
Amacron,
amacron,
Abreve,
abreve,
Aogonek,
aogonek,
Cacute,
cacute,
Ccircumflex,
ccircumflex,
Cdotaccent,

glyphs = (
{
glyphname = .notdef;
layers = (
{
layerId = m01;
shapes = (
{
closed = 1;
nodes = (
(1034,0,l),
(1034,1462,l),
(193,1462,l),
(193,0,l)
);
},
{
closed = 1;
nodes = (
(930,1358,l),
(930,104,l),
(297,104,l),
(297,1358,l)
);
}
);
userData = {
assembly = "NPUSHB[ ]	/* 21 values pushed */
5 96 2 1 2 2 9 4 0 3 112 3 128 3 3 3 4 3 7 0 3 
SVTCA[0]	/* SetFreedomAndProjectionVectorToAxis */
MIAP[1]	/* MoveIndirectAbsPt */
SHP[0]	/* ShiftPointByLastPoint */
MDAP[1]	/* MoveDirectAbsPt */
SHP[1]	/* ShiftPointByLastPoint */
SVTCA[1]	/* SetFreedomAndProjectionVectorToAxis */
MDAP[1]	/* MoveDirectAbsPt */
DELTAP1[ ]	/* DeltaExceptionP1 */
SHP[1]	/* ShiftPointByLastPoint */
SRP1[ ]	/* SetRefPoint1 */
SHP[1]	/* ShiftPointByLastPoint */
MDAP[1]	/* MoveDirectAbsPt */
DELTAP1[ ]	/* DeltaExceptionP1 */
SHP[1]	/* ShiftPointByLastPoint */
IUP[1]	/* InterpolateUntPts */
IUP[0]	/* InterpolateUntPts */";
};
width = 1229;
}
);
note = ".notdef";
},
{
glyphname = exclam;
layers = (
{
layerId = m01;
shapes = (
{
closed = 1;
nodes = (
(504,1462,l),
(555,414,l),
(676,414,l),
(727,1462,l)
);
},
{
closed = 1;
nodes = (
(487,111,qs),
(487,-29,o),
(614,-29,qs),
(741,-29,o),
(741,111,qs),
(741,250,o),
(614,250,qs),
(487,250,o)
);
}
);
userData = {
assembly = "NPUSHB[ ]	/* 28 values pushed */
1 0 3 6 150 2 10 10 12 13 47 0 1 0 0 2 21 4 1 6 4 1 4 155 8 168 2 3 
SVTCA[0]	/* SetFreedomAndProjectionVectorToAxis */
MIAP[1]	/* MoveIndirectAbsPt */
MIAP[1]	/* MoveIndirectAbsPt */
MIRP[00001]	/* MoveIndirectRelPt */
DELTAP1[ ]	/* DeltaExceptionP1 */
DELTAP1[ ]	/* DeltaExceptionP1 */
SRP1[ ]	/* SetRefPoint1 */
IP[ ]	/* InterpolatePts */
MDAP[1]	/* MoveDirectAbsPt */
DELTAP1[ ]	/* DeltaExceptionP1 */
SRP1[ ]	/* SetRefPoint1 */
SRP2[ ]	/* SetRefPoint2 */
SVTCA[1]	/* SetFreedomAndProjectionVectorToAxis */
IP[ ]	/* InterpolatePts */
MDAP[1]	/* MoveDirectAbsPt */
SHP[1]	/* ShiftPointByLastPoint */
MIRP[00001]	/* MoveIndirectRelPt */
SHP[0]	/* ShiftPointByLastPoint */
IP[ ]	/* InterpolatePts */
IP[ ]	/* InterpolatePts */
IUP[1]	/* InterpolateUntPts */
IUP[0]	/* InterpolateUntPts */";
};
width = 1229;
}
);
note = uni0021;
unicode = 33;
},
{
glyphname = quotedbl;
layers = (
{
layerId = m01;
shapes = (
{
closed = 1;
nodes = (
(326,934,l),
(481,934,l),
(522,1462,l),
(285,1462,l)
);
},
{
closed = 1;
nodes = (
(748,934,l),
(903,934,l),
(944,1462,l),
(707,1462,l)
);
}
);
userData = {
assembly = "NPUSHB[ ]	/* 28 values pushed */
4 207 7 1 160 7 1 79 7 1 7 0 32 3 48 3 144 3 160 3 4 3 6 1 158 7 0 3 
SVTCA[0]	/* SetFreedomAndProjectionVectorToAxis */
MIAP[1]	/* MoveIndirectAbsPt */
SHP[0]	/* ShiftPointByLastPoint */
MIRP[01101]	/* MoveIndirectRelPt */
SHP[0]	/* ShiftPointByLastPoint */
SVTCA[1]	/* SetFreedomAndProjectionVectorToAxis */
MDAP[1]	/* MoveDirectAbsPt */
DELTAP1[ ]	/* DeltaExceptionP1 */
MDRP[00001]	/* MoveDirectRelPt */
MDAP[1]	/* MoveDirectAbsPt */
DELTAP1[ ]	/* DeltaExceptionP1 */
DELTAP1[ ]	/* DeltaExceptionP1 */
DELTAP1[ ]	/* DeltaExceptionP1 */
MDRP[00001]	/* MoveDirectRelPt */
IUP[1]	/* InterpolateUntPts */
IUP[0]	/* InterpolateUntPts */";
};
width = 1229;
}
);
note = uni0022;
unicode = 34;
},
{
glyphname = numbersign;
layers = (
{
layerId = m01;
shapes = (
{
closed = 1;
nodes = (
(1184,1030,l),
(963,1030,l),
(1047,1462,l),
(903,1462,l),
(819,1030,l),
(526,1030,l),
(608,1462,l),
(461,1462,l),
(379,1030,l),
(121,1030,l),
(121,893,l),
(354,893,l),
(289,565,l),
(45,565,l),
(45,428,l),
(262,428,l),
(184,0,l),
(328,0,l),
(410,428,l),
(700,428,l),
(616,0,l),
(764,0,l),
(846,428,l),
(1112,428,l),
(1112,565,l),
(872,565,l),
(936,893,l),
(1184,893,l)
);
},
{
closed = 1;
nodes = (
(791,893,l),
(727,565,l),
(436,565,l),
(500,893,l)
);
}
);
userData = {
assembly = "NPUSHB[ ]	/* 115 values pushed */
28 8 20 9 171 10 18 15 14 11 4 10 19 170 20 4 1 0 25 4 24 5 170 6 22 30 29 7 4 6 23 171 24 31 21 10 20 64 2 80 2 2 16 10 20 6 24 2 2 24 6 20 10 16 6 208 26 240 26 2 127 26 159 26 2 26 224 12 240 12 2 12 8 4 12 174 13 28 1 13 31 0 16 174 17 25 21 17 63 17 79 17 127 17 143 17 159 17 5 63 13 79 13 2 13 17 13 17 5 23 19 3 10 5 18 
SVTCA[0]	/* SetFreedomAndProjectionVectorToAxis */
MIAP[1]	/* MoveIndirectAbsPt */
SHP[1]	/* ShiftPointByLastPoint */
MIAP[1]	/* MoveIndirectAbsPt */
SHP[1]	/* ShiftPointByLastPoint */
SRP2[ ]	/* SetRefPoint2 */
IP[ ]	/* InterpolatePts */
IP[ ]	/* InterpolatePts */
MDAP[1]	/* MoveDirectAbsPt */
MDAP[1]	/* MoveDirectAbsPt */
DELTAP1[ ]	/* DeltaExceptionP1 */
DELTAP1[ ]	/* DeltaExceptionP1 */
SRP1[ ]	/* SetRefPoint1 */
SHP[1]	/* ShiftPointByLastPoint */
SHP[1]	/* ShiftPointByLastPoint */
SRP0[ ]	/* SetRefPoint0 */
MIRP[00001]	/* MoveIndirectRelPt */
SHP[0]	/* ShiftPointByLastPoint */
SHP[0]	/* ShiftPointByLastPoint */
SRP1[ ]	/* SetRefPoint1 */
SHP[1]	/* ShiftPointByLastPoint */
SHP[1]	/* ShiftPointByLastPoint */
SRP0[ ]	/* SetRefPoint0 */
MIRP[00001]	/* MoveIndirectRelPt */
SHP[0]	/* ShiftPointByLastPoint */
SHP[0]	/* ShiftPointByLastPoint */
SVTCA[1]	/* SetFreedomAndProjectionVectorToAxis */
MDAP[1]	/* MoveDirectAbsPt */
DELTAP1[ ]	/* DeltaExceptionP1 */
MDAP[1]	/* MoveDirectAbsPt */
DELTAP1[ ]	/* DeltaExceptionP1 */
DELTAP1[ ]	/* DeltaExceptionP1 */
SLOOP[ ]	/* SetLoopVariable */
IP[ ]	/* InterpolatePts */
MDAP[1]	/* MoveDirectAbsPt */
MDAP[1]	/* MoveDirectAbsPt */
MDAP[1]	/* MoveDirectAbsPt */
MDAP[1]	/* MoveDirectAbsPt */
MDAP[1]	/* MoveDirectAbsPt */
MDAP[1]	/* MoveDirectAbsPt */
DELTAP1[ ]	/* DeltaExceptionP1 */
SRP1[ ]	/* SetRefPoint1 */
SRP2[ ]	/* SetRefPoint2 */
IP[ ]	/* InterpolatePts */
IP[ ]	/* InterpolatePts */
SRP0[ ]	/* SetRefPoint0 */
MIRP[00001]	/* MoveIndirectRelPt */
SRP1[ ]	/* SetRefPoint1 */
SLOOP[ ]	/* SetLoopVariable */
IP[ ]	/* InterpolatePts */
SRP0[ ]	/* SetRefPoint0 */
MIRP[00001]	/* MoveIndirectRelPt */
SRP1[ ]	/* SetRefPoint1 */
SLOOP[ ]	/* SetLoopVariable */
IP[ ]	/* InterpolatePts */
SRP0[ ]	/* SetRefPoint0 */
MIRP[00001]	/* MoveIndirectRelPt */
SRP1[ ]	/* SetRefPoint1 */
SLOOP[ ]	/* SetLoopVariable */
IP[ ]	/* InterpolatePts */
SRP0[ ]	/* SetRefPoint0 */
MIRP[00001]	/* MoveIndirectRelPt */
SRP1[ ]	/* SetRefPoint1 */
IP[ ]	/* InterpolatePts */
IP[ ]	/* InterpolatePts */
IUP[1]	/* InterpolateUntPts */
IUP[0]	/* InterpolateUntPts */";
};
width = 1229;
}
);
note = uni0023;
unicode = 35;
},
{
glyphname = dollar;
layers = (
{
layerId = m01;
shapes = (
{
closed = 1;
nodes = (
(1044,446,qs),
(1044,576,o),
(883,737,o),
(684,805,q),
(684,1227,l),
(814,1217,o),
(954,1155,q),
(1020,1300,l),
(871,1369,o),
(684,1378,q),
(684,1554,l),
(547,1554,l),
(547,1374,l),
(383,1354,o),
(199,1182,o),
(199,1051,qs),
(199,913,o),
(354,750,o),
(547,686,q),
(547,252,l),
(378,252,o),
(182,344,q),
(182,172,l),
(319,102,o),
(547,102,q),
(547,-119,l),
(684,-119,l),
(684,111,l),
(1044,166,o)
);
},
{
closed = 1;
nodes = (
(375,971,o),
(375,1049,qs),
(375,1194,o),
(547,1223,q),
(547,854,l),
(456,885,o)
);
},
{
closed = 1;
nodes = (
(868,446,qs),
(868,290,o),
(684,262,q),
(684,635,l),
(868,573,o)
);
}
);
userData = {
assembly = "NPUSHB[ ]	/* 134 values pushed */
19 36 1 4 36 1 19 35 1 4 35 1 19 9 1 6 9 1 3 8 19 8 2 2 3 18 3 2 2 2 18 2 2 4 1 20 1 2 4 0 20 0 2 36 24 18 1 112 29 15 8 2 2 5 72 38 88 38 120 38 3 38 110 20 27 64 17 20 72 64 27 80 27 2 27 41 5 5 32 110 0 12 144 12 160 12 208 12 4 12 23 30 115 15 38 35 9 24 29 32 6 3 21 18 15 95 16 111 16 127 16 3 16 16 15 15 47 15 63 15 95 15 4 15 36 8 115 3 6 3 2 2 0 3 
PUSHW[ ]	/* 1 value pushed */
-64 
PUSHB[ ]	/* 4 values pushed */
10 14 72 3 
SVTCA[0]	/* SetFreedomAndProjectionVectorToAxis */
MDAP[1]	/* MoveDirectAbsPt */
CALL[ ]	/* CallFunction */
SHP[1]	/* ShiftPointByLastPoint */
SHP[1]	/* ShiftPointByLastPoint */
MDAP[1]	/* MoveDirectAbsPt */
SRP1[ ]	/* SetRefPoint1 */
SHP[1]	/* ShiftPointByLastPoint */
SRP0[ ]	/* SetRefPoint0 */
MIRP[00001]	/* MoveIndirectRelPt */
SHP[0]	/* ShiftPointByLastPoint */
MDAP[1]	/* MoveDirectAbsPt */
DELTAP1[ ]	/* DeltaExceptionP1 */
SHP[1]	/* ShiftPointByLastPoint */
MDAP[1]	/* MoveDirectAbsPt */
DELTAP1[ ]	/* DeltaExceptionP1 */
SRP1[ ]	/* SetRefPoint1 */
SHP[1]	/* ShiftPointByLastPoint */
SHP[1]	/* ShiftPointByLastPoint */
SRP2[ ]	/* SetRefPoint2 */
SLOOP[ ]	/* SetLoopVariable */
IP[ ]	/* InterpolatePts */
SRP0[ ]	/* SetRefPoint0 */
MIRP[00001]	/* MoveIndirectRelPt */
SHP[0]	/* ShiftPointByLastPoint */
SVTCA[1]	/* SetFreedomAndProjectionVectorToAxis */
MDAP[1]	/* MoveDirectAbsPt */
DELTAP1[ ]	/* DeltaExceptionP1 */
MIRP[00001]	/* MoveIndirectRelPt */
SHP[1]	/* ShiftPointByLastPoint */
MDAP[1]	/* MoveDirectAbsPt */
SRP0[ ]	/* SetRefPoint0 */
MDRP[11110]	/* MoveDirectRelPt */
DELTAP1[ ]	/* DeltaExceptionP1 */
CALL[ ]	/* CallFunction */
SHP[0]	/* ShiftPointByLastPoint */
MIRP[00001]	/* MoveIndirectRelPt */
DELTAP1[ ]	/* DeltaExceptionP1 */
SRP1[ ]	/* SetRefPoint1 */
IP[ ]	/* InterpolatePts */
MDAP[1]	/* MoveDirectAbsPt */
SHP[1]	/* ShiftPointByLastPoint */
SHP[1]	/* ShiftPointByLastPoint */
SHP[1]	/* ShiftPointByLastPoint */
MIRP[00001]	/* MoveIndirectRelPt */
SHP[0]	/* ShiftPointByLastPoint */
SHP[0]	/* ShiftPointByLastPoint */
SHP[0]	/* ShiftPointByLastPoint */
IUP[1]	/* InterpolateUntPts */
IUP[0]	/* InterpolateUntPts */
DELTAP1[ ]	/* DeltaExceptionP1 */
DELTAP1[ ]	/* DeltaExceptionP1 */
DELTAP1[ ]	/* DeltaExceptionP1 */
DELTAP1[ ]	/* DeltaExceptionP1 */
DELTAP1[ ]	/* DeltaExceptionP1 */
DELTAP1[ ]	/* DeltaExceptionP1 */
DELTAP1[ ]	/* DeltaExceptionP1 */
DELTAP1[ ]	/* DeltaExceptionP1 */
DELTAP1[ ]	/* DeltaExceptionP1 */
DELTAP1[ ]	/* DeltaExceptionP1 */
DELTAP1[ ]	/* DeltaExceptionP1 */";
};
width = 1229;
}
);
note = uni0024;
unicode = 36;
},
{
glyphname = percent;
layers = (
{
layerId = m01;
shapes = (
{
closed = 1;
nodes = (
(586,971,o),
(586,1133,qs),
(586,1293,o),
(424,1479,o),
(295,1479,qs),
(158,1479,o),
(0,1297,o),
(0,1133,qs),
(0,973,o),
(160,784,o),
(291,784,qs),
(429,784,o)
);
},
{
closed = 1;
nodes = (
(152,1133,qs),
(152,1358,o),
(293,1358,qs),
(432,1358,o),
(432,1133,qs),
(432,903,o),
(293,903,qs),
(152,903,o)
);
},
{
closed = 1;
nodes = (
(170,0,l),
(328,0,l),
(1057,1462,l),
(899,1462,l)
);
},
{
closed = 1;
nodes = (
(1229,169,o),
(1229,330,qs),
(1229,490,o),
(1067,676,o),
(938,676,qs),
(801,676,o),
(643,494,o),
(643,330,qs),
(643,171,o),
(804,-18,o),
(934,-18,qs),
(1072,-18,o)
);
},
{
closed = 1;
nodes = (
(795,330,qs),
(795,555,o),
(936,555,qs),
(1075,555,o),
(1075,330,qs),
(1075,100,o),
(936,100,qs),
(795,100,o)
);
}
);
userData = {
assembly = "PUSHW[ ]	/* 2 values pushed */
34 -32 
PUSHB[ ]	/* 4 values pushed */
9 13 72 32 
PUSHW[ ]	/* 1 value pushed */
-32 
NPUSHB[ ]	/* 14 values pushed */
9 13 72 28 32 9 13 72 26 32 9 13 72 10 
PUSHW[ ]	/* 1 value pushed */
-32 
PUSHB[ ]	/* 4 values pushed */
9 13 72 8 
PUSHW[ ]	/* 1 value pushed */
-32 
NPUSHB[ ]	/* 33 values pushed */
9 13 72 4 32 9 13 72 2 32 9 13 72 103 42 151 42 167 42 3 42 180 27 181 33 21 22 23 20 0 22 1 22 
PUSHW[ ]	/* 1 value pushed */
-64 
NPUSHB[ ]	/* 26 values pushed */
21 24 72 15 20 1 20 64 21 24 72 22 20 22 20 3 104 38 152 38 168 38 3 38 180 33 
PUSHW[ ]	/* 1 value pushed */
-64 
NPUSHB[ ]	/* 46 values pushed */
21 24 72 33 45 104 14 152 14 168 14 3 14 180 9 181 103 18 151 18 167 18 3 18 180 3 40 182 30 183 36 182 24 25 23 6 21 24 12 182 0 183 16 182 6 7 
SVTCA[0]	/* SetFreedomAndProjectionVectorToAxis */
MIAP[1]	/* MoveIndirectAbsPt */
MIRP[00001]	/* MoveIndirectRelPt */
MIRP[10100]	/* MoveIndirectRelPt */
MIRP[00001]	/* MoveIndirectRelPt */
MIAP[1]	/* MoveIndirectAbsPt */
MIAP[1]	/* MoveIndirectAbsPt */
MIAP[1]	/* MoveIndirectAbsPt */
MIRP[00001]	/* MoveIndirectRelPt */
MIRP[10100]	/* MoveIndirectRelPt */
MIRP[00001]	/* MoveIndirectRelPt */
SVTCA[1]	/* SetFreedomAndProjectionVectorToAxis */
MDAP[1]	/* MoveDirectAbsPt */
MIRP[00001]	/* MoveIndirectRelPt */
DELTAP1[ ]	/* DeltaExceptionP1 */
MIRP[10100]	/* MoveIndirectRelPt */
MIRP[00001]	/* MoveIndirectRelPt */
DELTAP1[ ]	/* DeltaExceptionP1 */
SRP0[ ]	/* SetRefPoint0 */
MDRP[10100]	/* MoveDirectRelPt */
CALL[ ]	/* CallFunction */
MIRP[00001]	/* MoveIndirectRelPt */
DELTAP1[ ]	/* DeltaExceptionP1 */
SRP2[ ]	/* SetRefPoint2 */
IP[ ]	/* InterpolatePts */
IP[ ]	/* InterpolatePts */
MDAP[1]	/* MoveDirectAbsPt */
MDAP[1]	/* MoveDirectAbsPt */
CALL[ ]	/* CallFunction */
DELTAP1[ ]	/* DeltaExceptionP1 */
CALL[ ]	/* CallFunction */
DELTAP1[ ]	/* DeltaExceptionP1 */
SRP1[ ]	/* SetRefPoint1 */
SHP[1]	/* ShiftPointByLastPoint */
SRP1[ ]	/* SetRefPoint1 */
SHP[1]	/* ShiftPointByLastPoint */
SRP0[ ]	/* SetRefPoint0 */
MIRP[10100]	/* MoveIndirectRelPt */
MIRP[00001]	/* MoveIndirectRelPt */
DELTAP1[ ]	/* DeltaExceptionP1 */
IUP[1]	/* InterpolateUntPts */
IUP[0]	/* InterpolateUntPts */
CALL[ ]	/* CallFunction */
CALL[ ]	/* CallFunction */
CALL[ ]	/* CallFunction */
CALL[ ]	/* CallFunction */
CALL[ ]	/* CallFunction */
CALL[ ]	/* CallFunction */
CALL[ ]	/* CallFunction */
CALL[ ]	/* CallFunction */";
};
width = 1229;
}
);
note = uni0025;
unicode = 37;
},
{
glyphname = ampersand;
layers = (
{
layerId = m01;
shapes = (
{
closed = 1;
nodes = (
(920,1165,qs),
(920,1314,o),
(735,1485,o),
(567,1485,qs),
(388,1485,o),
(197,1313,o),
(197,1165,qs),
(197,1001,o),
(360,809,q),
(188,707,o),
(61,512,o),
(61,381,qs),
(61,194,o),
(278,-20,o),
(467,-20,qs),
(705,-20,o),
(879,166,q),
(1010,0,l),
(1227,0,l),
(993,291,l),
(1118,460,o),
(1171,694,q),
(987,694,l),
(954,549,o),
(883,428,q),
(602,776,l),
(920,962,o)
);
},
{
closed = 1;
nodes = (
(375,1165,qs),
(375,1246,o),
(474,1335,o),
(561,1335,qs),
(642,1335,o),
(741,1243,o),
(741,1169,qs),
(741,1095,o),
(642,976,o),
(508,897,q),
(375,1047,o)
);
},
{
closed = 1;
nodes = (
(479,141,qs),
(386,141,o),
(252,282,o),
(252,387,qs),
(252,565,o),
(455,688,q),
(778,287,l),
(639,141,o)
);
}
);
userData = {
assembly = "NPUSHB[ ]	/* 15 values pushed */
17 39 38 9 4 8 19 8 27 0 1 6 4 7 36 
PUSHW[ ]	/* 1 value pushed */
-16 
NPUSHB[ ]	/* 48 values pushed */
14 17 72 64 36 1 52 36 1 36 71 19 30 16 14 17 72 79 30 1 59 30 1 6 30 71 25 32 19 48 19 2 192 25 208 25 2 19 25 19 25 14 121 3 1 3 71 4 
PUSHW[ ]	/* 1 value pushed */
-64 
NPUSHB[ ]	/* 28 values pushed */
9 18 72 4 4 7 7 47 41 72 14 64 10 16 72 14 70 6 1 70 1 86 1 2 55 1 1 27 
PUSHW[ ]	/* 1 value pushed */
-8 
NPUSHB[ ]	/* 55 values pushed */
11 14 72 27 0 1 6 4 8 33 80 22 88 9 1 88 38 1 56 39 88 39 2 41 39 1 40 17 1 17 39 38 9 4 8 22 15 3 31 3 79 3 127 3 4 3 3 22 4 44 81 11 22 8 21 
SVTCA[0]	/* SetFreedomAndProjectionVectorToAxis */
MIAP[1]	/* MoveIndirectAbsPt */
MIAP[1]	/* MoveIndirectAbsPt */
MIRP[00001]	/* MoveIndirectRelPt */
MIAP[1]	/* MoveIndirectAbsPt */
IP[ ]	/* InterpolatePts */
MDAP[1]	/* MoveDirectAbsPt */
DELTAP1[ ]	/* DeltaExceptionP1 */
SRP1[ ]	/* SetRefPoint1 */
SRP2[ ]	/* SetRefPoint2 */
SLOOP[ ]	/* SetLoopVariable */
IP[ ]	/* InterpolatePts */
DELTAP1[ ]	/* DeltaExceptionP1 */
DELTAP1[ ]	/* DeltaExceptionP1 */
DELTAP1[ ]	/* DeltaExceptionP1 */
DELTAP1[ ]	/* DeltaExceptionP1 */
DELTAP1[ ]	/* DeltaExceptionP1 */
SRP0[ ]	/* SetRefPoint0 */
MIRP[00001]	/* MoveIndirectRelPt */
SRP1[ ]	/* SetRefPoint1 */
SLOOP[ ]	/* SetLoopVariable */
IP[ ]	/* InterpolatePts */
CALL[ ]	/* CallFunction */
DELTAP1[ ]	/* DeltaExceptionP1 */
DELTAP1[ ]	/* DeltaExceptionP1 */
DELTAP1[ ]	/* DeltaExceptionP1 */
SVTCA[1]	/* SetFreedomAndProjectionVectorToAxis */
MDAP[1]	/* MoveDirectAbsPt */
CALL[ ]	/* CallFunction */
MIRP[00001]	/* MoveIndirectRelPt */
SRP1[ ]	/* SetRefPoint1 */
SHP[1]	/* ShiftPointByLastPoint */
MDAP[1]	/* MoveDirectAbsPt */
SHP[1]	/* ShiftPointByLastPoint */
MDAP[1]	/* MoveDirectAbsPt */
CALL[ ]	/* CallFunction */
MIRP[00001]	/* MoveIndirectRelPt */
DELTAP1[ ]	/* DeltaExceptionP1 */
SRP2[ ]	/* SetRefPoint2 */
IP[ ]	/* InterpolatePts */
IP[ ]	/* InterpolatePts */
MDAP[1]	/* MoveDirectAbsPt */
MDAP[1]	/* MoveDirectAbsPt */
DELTAP1[ ]	/* DeltaExceptionP1 */
DELTAP1[ ]	/* DeltaExceptionP1 */
SRP0[ ]	/* SetRefPoint0 */
MIRP[00001]	/* MoveIndirectRelPt */
SDS[ ]	/* SetDeltaShiftInGState */
DELTAP1[ ]	/* DeltaExceptionP1 */
DELTAP1[ ]	/* DeltaExceptionP1 */
CALL[ ]	/* CallFunction */
SRP0[ ]	/* SetRefPoint0 */
MIRP[00001]	/* MoveIndirectRelPt */
DELTAP1[ ]	/* DeltaExceptionP1 */
DELTAP1[ ]	/* DeltaExceptionP1 */
CALL[ ]	/* CallFunction */
SRP1[ ]	/* SetRefPoint1 */
SLOOP[ ]	/* SetLoopVariable */
IP[ ]	/* InterpolatePts */
SHP[1]	/* ShiftPointByLastPoint */
SRP1[ ]	/* SetRefPoint1 */
SRP2[ ]	/* SetRefPoint2 */
SLOOP[ ]	/* SetLoopVariable */
IP[ ]	/* InterpolatePts */
IUP[1]	/* InterpolateUntPts */
IUP[0]	/* InterpolateUntPts */";
};
width = 1229;
}
);
note = uni0026;
unicode = 38;
},
{
glyphname = quotesingle;
layers = (
{
layerId = m01;
shapes = (
{
closed = 1;
nodes = (
(537,934,l),
(692,934,l),
(733,1462,l),
(496,1462,l)
);
}
);
userData = {
assembly = "NPUSHB[ ]	/* 13 values pushed */
0 160 3 224 3 240 3 3 3 1 158 0 3 
SVTCA[0]	/* SetFreedomAndProjectionVectorToAxis */
MIAP[1]	/* MoveIndirectAbsPt */
MIRP[01101]	/* MoveIndirectRelPt */
SVTCA[1]	/* SetFreedomAndProjectionVectorToAxis */
MDAP[1]	/* MoveDirectAbsPt */
DELTAP1[ ]	/* DeltaExceptionP1 */
MDRP[00001]	/* MoveDirectRelPt */
IUP[1]	/* InterpolateUntPts */
IUP[0]	/* InterpolateUntPts */";
};
width = 1229;
}
);
note = uni0027;
unicode = 39;
},
{
glyphname = parenleft;
layers = (
{
layerId = m01;
shapes = (
{
closed = 1;
nodes = (
(295,567,qs),
(295,29,o),
(739,-324,q),
(930,-324,l),
(483,48,o),
(483,569,qs),
(483,1086,o),
(932,1462,q),
(739,1462,l),
(295,1099,o)
);
}
);
userData = {
assembly = "NPUSHB[ ]	/* 21 values pushed */
6 5 5 0 1 1 11 3 240 31 8 127 8 143 8 3 8 6 249 0 248 
SVTCA[0]	/* SetFreedomAndProjectionVectorToAxis */
MIAP[1]	/* MoveIndirectAbsPt */
MIAP[1]	/* MoveIndirectAbsPt */
SVTCA[1]	/* SetFreedomAndProjectionVectorToAxis */
MDAP[1]	/* MoveDirectAbsPt */
DELTAP1[ ]	/* DeltaExceptionP1 */
MIRP[00001]	/* MoveIndirectRelPt */
SRP1[ ]	/* SetRefPoint1 */
SHP[1]	/* ShiftPointByLastPoint */
MDAP[1]	/* MoveDirectAbsPt */
SHP[1]	/* ShiftPointByLastPoint */
SHP[1]	/* ShiftPointByLastPoint */
SRP1[ ]	/* SetRefPoint1 */
SHP[1]	/* ShiftPointByLastPoint */
IUP[1]	/* InterpolateUntPts */
IUP[0]	/* InterpolateUntPts */";
};
width = 1229;
}
);
note = uni0028;
unicode = 40;
},
{
glyphname = parenright;
layers = (
{
layerId = m01;
shapes = (
{
closed = 1;
nodes = (
(934,567,qs),
(934,1101,o),
(489,1462,q),
(297,1462,l),
(745,1087,o),
(745,569,qs),
(745,47,o),
(299,-324,q),
(489,-324,l),
(934,27,o)
);
}
);
userData = {
assembly = "NPUSHB[ ]	/* 21 values pushed */
3 240 16 8 112 8 128 8 3 8 8 11 0 1 1 6 5 6 248 0 249 
SVTCA[0]	/* SetFreedomAndProjectionVectorToAxis */
MIAP[1]	/* MoveIndirectAbsPt */
MIAP[1]	/* MoveIndirectAbsPt */
SVTCA[1]	/* SetFreedomAndProjectionVectorToAxis */
MDAP[1]	/* MoveDirectAbsPt */
SHP[1]	/* ShiftPointByLastPoint */
SHP[1]	/* ShiftPointByLastPoint */
SRP1[ ]	/* SetRefPoint1 */
SHP[1]	/* ShiftPointByLastPoint */
SRP1[ ]	/* SetRefPoint1 */
SHP[1]	/* ShiftPointByLastPoint */
MDAP[1]	/* MoveDirectAbsPt */
DELTAP1[ ]	/* DeltaExceptionP1 */
MIRP[00001]	/* MoveIndirectRelPt */
IUP[1]	/* InterpolateUntPts */
IUP[0]	/* InterpolateUntPts */";
};
width = 1229;
}
);
note = uni0029;
unicode = 41;
},
{
glyphname = asterisk;
layers = (
{
layerId = m01;
shapes = (
{
closed = 1;
nodes = (
(553,1163,l),
(162,1274,l),
(133,1081,l),
(508,1053,l),
(266,727,l),
(451,631,l),
(608,989,l),
(784,631,l),
(963,727,l),
(717,1053,l),
(1096,1081,l),
(1069,1274,l),
(672,1163,l),
(715,1556,l),
(510,1556,l)
);
}
);
userData = {
assembly = "NPUSHB[ ]	/* 21 values pushed */
244 7 1 7 5 9 7 4 10 3 11 1 13 2 12 11 8 6 6 0 0 
SVTCA[0]	/* SetFreedomAndProjectionVectorToAxis */
MIAP[1]	/* MoveIndirectAbsPt */
SHP[0]	/* ShiftPointByLastPoint */
MDAP[1]	/* MoveDirectAbsPt */
SHP[1]	/* ShiftPointByLastPoint */
SLOOP[ ]	/* SetLoopVariable */
IP[ ]	/* InterpolatePts */
SVTCA[1]	/* SetFreedomAndProjectionVectorToAxis */
RTHG[ ]	/* RoundToHalfGrid */
MDAP[1]	/* MoveDirectAbsPt */
DELTAP1[ ]	/* DeltaExceptionP1 */
IUP[1]	/* InterpolateUntPts */
IUP[0]	/* InterpolateUntPts */";
};
width = 1229;
}
);
note = uni002A;
unicode = 42;
},
{
glyphname = plus;
lastChange = "2023-03-23 00:30:34 +0000";
layers = (
{
layerId = m01;
shapes = (
{
closed = 1;
nodes = (
(688,90,l),
(688,475,l),
(1075,475,l),
(1075,625,l),
(688,625,l),
(688,1014,l),
(539,1014,l),
(539,625,l),
(152,625,l),
(152,475,l),
(539,475,l),
(539,90,l)
);
}
);
userData = {
assembly = "NPUSHB[ ]	/* 16 values pushed */
9 6 170 0 192 3 208 3 2 3 9 0 173 6 3 179 
SVTCA[0]	/* SetFreedomAndProjectionVectorToAxis */
MIAP[1]	/* MoveIndirectAbsPt */
SHP[1]	/* ShiftPointByLastPoint */
MIRP[00001]	/* MoveIndirectRelPt */
SHP[0]	/* ShiftPointByLastPoint */
SVTCA[1]	/* SetFreedomAndProjectionVectorToAxis */
MDAP[1]	/* MoveDirectAbsPt */
DELTAP1[ ]	/* DeltaExceptionP1 */
SHP[1]	/* ShiftPointByLastPoint */
MIRP[00001]	/* MoveIndirectRelPt */
SHP[0]	/* ShiftPointByLastPoint */
IUP[1]	/* InterpolateUntPts */
IUP[0]	/* InterpolateUntPts */";
};
width = 1229;
}
);
note = uni002B;
unicode = 43;
},
{
glyphname = comma;
layers = (
{
layerId = m01;
shapes = (
{
closed = 1;
nodes = (
(516,34,o),
(440,-289,q),
(592,-289,l),
(729,14,o),
(786,238,q),
(770,262,l),
(551,262,l)
);
}
);
userData = {
assembly = "NPUSHB[ ]	/* 25 values pushed */
25 6 41 6 233 6 249 6 4 6 152 1 153 112 4 128 4 208 4 224 4 240 4 5 4 
PUSHW[ ]	/* 1 value pushed */
-64 
NPUSHB[ ]	/* 15 values pushed */
9 12 72 4 4 7 8 3 158 31 6 47 6 2 6 
SVTCA[0]	/* SetFreedomAndProjectionVectorToAxis */
MDAP[1]	/* MoveDirectAbsPt */
DELTAP1[ ]	/* DeltaExceptionP1 */
MIRP[01101]	/* MoveIndirectRelPt */
SRP1[ ]	/* SetRefPoint1 */
SRP2[ ]	/* SetRefPoint2 */
SVTCA[1]	/* SetFreedomAndProjectionVectorToAxis */
IP[ ]	/* InterpolatePts */
MDAP[1]	/* MoveDirectAbsPt */
CALL[ ]	/* CallFunction */
DELTAP1[ ]	/* DeltaExceptionP1 */
MIRP[11101]	/* MoveIndirectRelPt */
MIRP[00001]	/* MoveIndirectRelPt */
DELTAP1[ ]	/* DeltaExceptionP1 */
IUP[1]	/* InterpolateUntPts */
IUP[0]	/* InterpolateUntPts */";
};
width = 1229;
}
);
note = uni002C;
unicode = 44;
},
{
glyphname = hyphen;
layers = (
{
layerId = m01;
shapes = (
{
closed = 1;
nodes = (
(944,633,l),
(285,633,l),
(285,465,l),
(944,465,l)
);
}
);
userData = {
assembly = "NPUSHB[ ]	/* 18 values pushed */
128 2 144 2 2 2 2 5 32 0 48 0 2 0 0 185 1 189 
SVTCA[0]	/* SetFreedomAndProjectionVectorToAxis */
MIAP[1]	/* MoveIndirectAbsPt */
MIRP[00001]	/* MoveIndirectRelPt */
SVTCA[1]	/* SetFreedomAndProjectionVectorToAxis */
MDAP[1]	/* MoveDirectAbsPt */
DELTAP1[ ]	/* DeltaExceptionP1 */
SRP1[ ]	/* SetRefPoint1 */
SHP[1]	/* ShiftPointByLastPoint */
MDAP[1]	/* MoveDirectAbsPt */
DELTAP1[ ]	/* DeltaExceptionP1 */
IUP[1]	/* InterpolateUntPts */
IUP[0]	/* InterpolateUntPts */";
};
width = 1229;
}
);
note = uni002D;
unicode = 45;
},
{
glyphname = period;
layers = (
{
layerId = m01;
shapes = (
{
closed = 1;
nodes = (
(463,135,qs),
(463,-31,o),
(614,-31,qs),
(766,-31,o),
(766,135,qs),
(766,301,o),
(614,301,qs),
(463,301,o)
);
}
);
userData = {
assembly = "NPUSHB[ ]	/* 15 values pushed */
2 151 48 6 176 6 2 6 6 8 9 0 156 4 168 
SVTCA[0]	/* SetFreedomAndProjectionVectorToAxis */
MIAP[1]	/* MoveIndirectAbsPt */
MIRP[01101]	/* MoveIndirectRelPt */
SRP1[ ]	/* SetRefPoint1 */
SRP2[ ]	/* SetRefPoint2 */
SVTCA[1]	/* SetFreedomAndProjectionVectorToAxis */
IP[ ]	/* InterpolatePts */
MDAP[1]	/* MoveDirectAbsPt */
DELTAP1[ ]	/* DeltaExceptionP1 */
MIRP[01101]	/* MoveIndirectRelPt */
IUP[1]	/* InterpolateUntPts */
IUP[0]	/* InterpolateUntPts */";
};
width = 1229;
}
);
note = uni002E;
unicode = 46;
},
{
glyphname = slash;
layers = (
{
layerId = m01;
shapes = (
{
closed = 1;
nodes = (
(211,0,l),
(389,0,l),
(1016,1462,l),
(838,1462,l)
);
}
);
userData = {
assembly = "NPUSHB[ ]	/* 12 values pushed */
3 0 0 5 1 2 2 4 3 3 1 18 
SVTCA[0]	/* SetFreedomAndProjectionVectorToAxis */
MIAP[1]	/* MoveIndirectAbsPt */
MIAP[1]	/* MoveIndirectAbsPt */
SRP1[ ]	/* SetRefPoint1 */
SVTCA[1]	/* SetFreedomAndProjectionVectorToAxis */
SHP[1]	/* ShiftPointByLastPoint */
MDAP[1]	/* MoveDirectAbsPt */
SHP[1]	/* ShiftPointByLastPoint */
SRP1[ ]	/* SetRefPoint1 */
SHP[1]	/* ShiftPointByLastPoint */
MDAP[1]	/* MoveDirectAbsPt */
SHP[0]	/* ShiftPointByLastPoint */
IUP[1]	/* InterpolateUntPts */
IUP[0]	/* InterpolateUntPts */";
};
width = 1229;
}
);
note = uni002F;
unicode = 47;
},
{
glyphname = zero;
lastChange = "2023-08-07 11:45:37 +0000";
layers = (
{
layerId = m01;
shapes = (
{
closed = 1;
nodes = (
(208,384,l),
(337,280,l),
(1007,1126,l),
(878,1230,l)
);
},
{
closed = 1;
nodes = (
(147,367,o),
(383,-20,o),
(612,-20,qs),
(1081,-20,o),
(1081,733,qs),
(1081,1098,o),
(844,1485,o),
(612,1485,qs),
(147,1485,o),
(147,733,qs)
);
},
{
closed = 1;
nodes = (
(332,1050,o),
(467,1329,o),
(612,1329,qs),
(759,1329,o),
(897,1048,o),
(897,733,qs),
(897,416,o),
(759,135,o),
(612,135,qs),
(467,135,o),
(332,415,o),
(332,733,qs)
);
}
);
userData = {
assembly = "NPUSHB[ ]	/* 18 values pushed */
13 111 208 8 1 8 23 19 111 0 3 16 3 32 3 3 7 3 
PUSHW[ ]	/* 1 value pushed */
-64 
NPUSHB[ ]	/* 12 values pushed */
21 24 72 3 16 115 5 7 10 115 0 25 
SVTCA[0]	/* SetFreedomAndProjectionVectorToAxis */
MIAP[1]	/* MoveIndirectAbsPt */
MIRP[00001]	/* MoveIndirectRelPt */
MIAP[1]	/* MoveIndirectAbsPt */
MIRP[00001]	/* MoveIndirectRelPt */
SVTCA[1]	/* SetFreedomAndProjectionVectorToAxis */
MDAP[1]	/* MoveDirectAbsPt */
CALL[ ]	/* CallFunction */
SDB[ ]	/* SetDeltaBaseInGState */
DELTAP1[ ]	/* DeltaExceptionP1 */
MIRP[00001]	/* MoveIndirectRelPt */
SRP0[ ]	/* SetRefPoint0 */
MDRP[11110]	/* MoveDirectRelPt */
DELTAP1[ ]	/* DeltaExceptionP1 */
MIRP[00001]	/* MoveIndirectRelPt */
IUP[1]	/* InterpolateUntPts */
IUP[0]	/* InterpolateUntPts */";
};
width = 1229;
}
);
note = uni0030;
unicode = 48;
},
{
glyphname = one;
layers = (
{
layerId = m01;
shapes = (
{
closed = 1;
nodes = (
(608,1462,l),
(225,1163,l),
(322,1040,l),
(469,1161,ls),
(551,1231,o),
(590,1274,q),
(582,1035,o),
(582,913,qs),
(582,0,l),
(758,0,l),
(758,1462,l)
);
}
);
userData = {
assembly = "NPUSHB[ ]	/* 22 values pushed */
9 1 8 8 0 110 0 1 16 1 2 6 1 1 12 11 4 7 9 6 0 24 
SVTCA[0]	/* SetFreedomAndProjectionVectorToAxis */
MIAP[1]	/* MoveIndirectAbsPt */
MIAP[1]	/* MoveIndirectAbsPt */
MDRP[01101]	/* MoveDirectRelPt */
IP[ ]	/* InterpolatePts */
SRP1[ ]	/* SetRefPoint1 */
SRP2[ ]	/* SetRefPoint2 */
SVTCA[1]	/* SetFreedomAndProjectionVectorToAxis */
IP[ ]	/* InterpolatePts */
MDAP[1]	/* MoveDirectAbsPt */
SDB[ ]	/* SetDeltaBaseInGState */
DELTAP1[ ]	/* DeltaExceptionP1 */
MIRP[00001]	/* MoveIndirectRelPt */
SHP[1]	/* ShiftPointByLastPoint */
MDAP[1]	/* MoveDirectAbsPt */
SRP1[ ]	/* SetRefPoint1 */
SHP[1]	/* ShiftPointByLastPoint */
IUP[1]	/* InterpolateUntPts */
IUP[0]	/* InterpolateUntPts */";
};
width = 1229;
}
);
note = uni0031;
unicode = 49;
},
{
glyphname = two;
layers = (
{
layerId = m01;
shapes = (
{
closed = 1;
nodes = (
(381,166,l),
(381,174,l),
(662,473,ls),
(894,723,o),
(1012,973,o),
(1012,1092,qs),
(1012,1271,o),
(788,1483,o),
(594,1483,qs),
(364,1483,o),
(172,1311,q),
(274,1192,l),
(432,1329,o),
(592,1329,qs),
(700,1329,o),
(827,1198,o),
(827,1085,qs),
(827,959,o),
(703,750,o),
(508,537,qs),
(158,156,l),
(158,0,l),
(1069,0,l),
(1069,166,l)
);
}
);
userData = {
assembly = "NPUSHB[ ]	/* 29 values pushed */
144 23 160 23 176 23 3 23 23 6 111 255 17 1 17 64 15 19 72 17 25 213 22 229 22 245 22 3 22 
PUSHW[ ]	/* 1 value pushed */
-24 
NPUSHB[ ]	/* 23 values pushed */
9 12 72 22 12 0 1 176 1 2 1 6 1 11 9 115 14 7 2 22 116 1 24 
SVTCA[0]	/* SetFreedomAndProjectionVectorToAxis */
MIAP[1]	/* MoveIndirectAbsPt */
MIRP[00001]	/* MoveIndirectRelPt */
SHP[0]	/* ShiftPointByLastPoint */
MIAP[1]	/* MoveIndirectAbsPt */
MIRP[00001]	/* MoveIndirectRelPt */
SHP[1]	/* ShiftPointByLastPoint */
SRP2[ ]	/* SetRefPoint2 */
IP[ ]	/* InterpolatePts */
SVTCA[1]	/* SetFreedomAndProjectionVectorToAxis */
MDAP[1]	/* MoveDirectAbsPt */
DELTAP1[ ]	/* DeltaExceptionP1 */
SHP[0]	/* ShiftPointByLastPoint */
SHP[0]	/* ShiftPointByLastPoint */
CALL[ ]	/* CallFunction */
DELTAP1[ ]	/* DeltaExceptionP1 */
SRP0[ ]	/* SetRefPoint0 */
MDRP[11110]	/* MoveDirectRelPt */
CALL[ ]	/* CallFunction */
DELTAP1[ ]	/* DeltaExceptionP1 */
MIRP[00001]	/* MoveIndirectRelPt */
SHP[1]	/* ShiftPointByLastPoint */
MDAP[1]	/* MoveDirectAbsPt */
DELTAP1[ ]	/* DeltaExceptionP1 */
IUP[1]	/* InterpolateUntPts */
IUP[0]	/* InterpolateUntPts */";
};
width = 1229;
}
);
note = uni0032;
unicode = 50;
},
{
glyphname = three;
layers = (
{
layerId = m01;
shapes = (
{
closed = 1;
nodes = (
(1010,982,o),
(1010,1120,qs),
(1010,1285,o),
(779,1483,o),
(573,1483,qs),
(324,1483,o),
(137,1333,q),
(229,1208,l),
(395,1329,o),
(573,1329,qs),
(687,1329,o),
(823,1210,o),
(823,1108,qs),
(823,983,o),
(647,831,o),
(487,831,qs),
(354,831,l),
(354,680,l),
(487,680,ls),
(868,680,o),
(868,422,qs),
(868,133,o),
(514,133,qs),
(315,133,o),
(131,229,q),
(131,59,l),
(276,-20,o),
(518,-20,qs),
(779,-20,o),
(1055,213,o),
(1055,416,qs),
(1055,717,o),
(694,764,q),
(694,770,l),
(846,796,o)
);
}
);
userData = {
assembly = "NPUSHB[ ]	/* 58 values pushed */
11 19 27 19 2 0 16 21 111 32 32 3 95 16 1 16 16 8 13 111 159 3 175 3 2 3 36 27 207 8 223 8 239 8 3 0 8 1 8 0 16 115 104 17 1 17 17 11 26 24 115 29 7 11 115 9 6 25 
SVTCA[0]	/* SetFreedomAndProjectionVectorToAxis */
MIAP[1]	/* MoveIndirectAbsPt */
SHP[1]	/* ShiftPointByLastPoint */
MIRP[00001]	/* MoveIndirectRelPt */
MIAP[1]	/* MoveIndirectAbsPt */
MIRP[00001]	/* MoveIndirectRelPt */
SHP[1]	/* ShiftPointByLastPoint */
SRP2[ ]	/* SetRefPoint2 */
IP[ ]	/* InterpolatePts */
MDAP[1]	/* MoveDirectAbsPt */
DELTAP1[ ]	/* DeltaExceptionP1 */
MIRP[00001]	/* MoveIndirectRelPt */
IP[ ]	/* InterpolatePts */
SVTCA[1]	/* SetFreedomAndProjectionVectorToAxis */
MDAP[1]	/* MoveDirectAbsPt */
DELTAP1[ ]	/* DeltaExceptionP1 */
DELTAP1[ ]	/* DeltaExceptionP1 */
SHP[1]	/* ShiftPointByLastPoint */
SRP0[ ]	/* SetRefPoint0 */
MDRP[11110]	/* MoveDirectRelPt */
DELTAP1[ ]	/* DeltaExceptionP1 */
MIRP[00001]	/* MoveIndirectRelPt */
SRP1[ ]	/* SetRefPoint1 */
IP[ ]	/* InterpolatePts */
MDAP[1]	/* MoveDirectAbsPt */
DELTAP1[ ]	/* DeltaExceptionP1 */
SRP1[ ]	/* SetRefPoint1 */
SHP[1]	/* ShiftPointByLastPoint */
MDAP[1]	/* MoveDirectAbsPt */
MIRP[00001]	/* MoveIndirectRelPt */
SRP2[ ]	/* SetRefPoint2 */
IP[ ]	/* InterpolatePts */
IUP[1]	/* InterpolateUntPts */
IUP[0]	/* InterpolateUntPts */
DELTAP1[ ]	/* DeltaExceptionP1 */";
};
width = 1229;
}
);
note = uni0033;
unicode = 51;
},
{
glyphname = four;
layers = (
{
layerId = m01;
shapes = (
{
closed = 1;
nodes = (
(913,494,l),
(913,1470,l),
(725,1470,l),
(61,487,l),
(61,328,l),
(737,328,l),
(737,0,l),
(913,0,l),
(913,328,l),
(1126,328,l),
(1126,494,l)
);
},
{
closed = 1;
nodes = (
(651,1102,ls),
(705,1180,o),
(741,1282,q),
(750,1282,l),
(737,1026,o),
(737,850,qs),
(737,494,l),
(240,494,l)
);
}
);
userData = {
assembly = "NPUSHB[ ]	/* 24 values pushed */
7 16 9 15 72 11 7 3 110 9 0 2 64 16 19 72 0 2 1 2 2 19 20 18 
PUSHW[ ]	/* 1 value pushed */
-16 
NPUSHB[ ]	/* 24 values pushed */
11 15 72 18 5 64 10 16 72 5 1 4 116 9 6 14 7 11 11 2 7 6 2 24 
SVTCA[0]	/* SetFreedomAndProjectionVectorToAxis */
MIAP[1]	/* MoveIndirectAbsPt */
MIAP[1]	/* MoveIndirectAbsPt */
SRP2[ ]	/* SetRefPoint2 */
IP[ ]	/* InterpolatePts */
MDAP[1]	/* MoveDirectAbsPt */
SRP2[ ]	/* SetRefPoint2 */
IP[ ]	/* InterpolatePts */
SHP[1]	/* ShiftPointByLastPoint */
SHP[1]	/* ShiftPointByLastPoint */
MIRP[00001]	/* MoveIndirectRelPt */
SHP[0]	/* ShiftPointByLastPoint */
SVTCA[1]	/* SetFreedomAndProjectionVectorToAxis */
MDAP[1]	/* MoveDirectAbsPt */
CALL[ ]	/* CallFunction */
SHP[1]	/* ShiftPointByLastPoint */
CALL[ ]	/* CallFunction */
SRP1[ ]	/* SetRefPoint1 */
SRP2[ ]	/* SetRefPoint2 */
IP[ ]	/* InterpolatePts */
MDAP[1]	/* MoveDirectAbsPt */
DELTAP1[ ]	/* DeltaExceptionP1 */
CALL[ ]	/* CallFunction */
SHP[1]	/* ShiftPointByLastPoint */
SHP[1]	/* ShiftPointByLastPoint */
MIRP[00001]	/* MoveIndirectRelPt */
SHP[0]	/* ShiftPointByLastPoint */
SHP[0]	/* ShiftPointByLastPoint */
IUP[1]	/* InterpolateUntPts */
IUP[0]	/* InterpolateUntPts */
CALL[ ]	/* CallFunction */";
};
width = 1229;
}
);
note = uni0034;
unicode = 52;
},
{
glyphname = five;
layers = (
{
layerId = m01;
shapes = (
{
closed = 1;
nodes = (
(528,-20,qs),
(779,-20,o),
(1055,235,o),
(1055,469,qs),
(1055,668,o),
(796,897,o),
(586,897,qs),
(484,897,o),
(377,877,q),
(416,1296,l),
(948,1296,l),
(948,1462,l),
(258,1462,l),
(203,774,l),
(293,717,l),
(435,743,o),
(524,743,qs),
(868,743,o),
(868,449,qs),
(868,135,o),
(532,135,qs),
(316,135,o),
(172,231,q),
(172,59,l),
(304,-20,o)
);
}
);
userData = {
assembly = "NPUSHB[ ]	/* 49 values pushed */
13 64 11 15 72 13 13 0 5 111 159 20 175 20 2 20 26 14 15 15 11 9 10 10 0 0 144 0 160 0 176 0 4 0 9 7 115 17 17 11 3 115 1 23 25 14 116 11 6 
SVTCA[0]	/* SetFreedomAndProjectionVectorToAxis */
MIAP[1]	/* MoveIndirectAbsPt */
MIRP[00001]	/* MoveIndirectRelPt */
MIAP[1]	/* MoveIndirectAbsPt */
SHP[1]	/* ShiftPointByLastPoint */
MIRP[00001]	/* MoveIndirectRelPt */
SRP1[ ]	/* SetRefPoint1 */
IP[ ]	/* InterpolatePts */
MDAP[1]	/* MoveDirectAbsPt */
MIRP[00001]	/* MoveIndirectRelPt */
SHP[1]	/* ShiftPointByLastPoint */
SVTCA[1]	/* SetFreedomAndProjectionVectorToAxis */
MDAP[1]	/* MoveDirectAbsPt */
DELTAP1[ ]	/* DeltaExceptionP1 */
SHP[1]	/* ShiftPointByLastPoint */
MDAP[1]	/* MoveDirectAbsPt */
SHP[1]	/* ShiftPointByLastPoint */
SHP[1]	/* ShiftPointByLastPoint */
SHP[1]	/* ShiftPointByLastPoint */
SRP1[ ]	/* SetRefPoint1 */
SHP[1]	/* ShiftPointByLastPoint */
SRP0[ ]	/* SetRefPoint0 */
MDRP[11110]	/* MoveDirectRelPt */
DELTAP1[ ]	/* DeltaExceptionP1 */
MIRP[00001]	/* MoveIndirectRelPt */
SRP2[ ]	/* SetRefPoint2 */
IP[ ]	/* InterpolatePts */
MDAP[1]	/* MoveDirectAbsPt */
CALL[ ]	/* CallFunction */
IUP[1]	/* InterpolateUntPts */
IUP[0]	/* InterpolateUntPts */";
};
width = 1229;
}
);
note = uni0035;
unicode = 53;
},
{
glyphname = six;
layers = (
{
layerId = m01;
shapes = (
{
closed = 1;
nodes = (
(793,1483,qs),
(154,1483,o),
(154,625,qs),
(154,317,o),
(413,-20,o),
(631,-20,qs),
(834,-20,o),
(1075,243,o),
(1075,471,qs),
(1075,677,o),
(854,915,o),
(659,915,qs),
(447,915,o),
(352,745,q),
(340,745,l),
(350,1051,o),
(575,1333,o),
(799,1333,qs),
(894,1333,o),
(965,1309,q),
(965,1464,l),
(897,1483,o)
);
},
{
closed = 1;
nodes = (
(756,133,o),
(629,133,qs),
(498,133,o),
(336,354,o),
(336,506,qs),
(336,610,o),
(508,772,o),
(635,772,qs),
(762,772,o),
(899,616,o),
(899,471,qs),
(899,309,o)
);
}
);
userData = {
assembly = "NPUSHB[ ]	/* 22 values pushed */
1 64 11 15 72 1 1 18 22 110 191 12 1 12 35 6 28 111 0 18 1 18 
PUSHW[ ]	/* 1 value pushed */
-64 
NPUSHB[ ]	/* 22 values pushed */
20 24 72 18 6 25 117 127 9 1 9 9 31 3 115 1 20 7 31 115 15 25 
SVTCA[0]	/* SetFreedomAndProjectionVectorToAxis */
MIAP[1]	/* MoveIndirectAbsPt */
MIRP[00001]	/* MoveIndirectRelPt */
MIAP[1]	/* MoveIndirectAbsPt */
SHP[1]	/* ShiftPointByLastPoint */
MIRP[00001]	/* MoveIndirectRelPt */
SRP2[ ]	/* SetRefPoint2 */
IP[ ]	/* InterpolatePts */
MDAP[1]	/* MoveDirectAbsPt */
DELTAP1[ ]	/* DeltaExceptionP1 */
MIRP[00001]	/* MoveIndirectRelPt */
SHP[0]	/* ShiftPointByLastPoint */
SVTCA[1]	/* SetFreedomAndProjectionVectorToAxis */
MDAP[1]	/* MoveDirectAbsPt */
CALL[ ]	/* CallFunction */
DELTAP1[ ]	/* DeltaExceptionP1 */
MIRP[00001]	/* MoveIndirectRelPt */
SHP[0]	/* ShiftPointByLastPoint */
SRP0[ ]	/* SetRefPoint0 */
MDRP[11110]	/* MoveDirectRelPt */
DELTAP1[ ]	/* DeltaExceptionP1 */
MIRP[00001]	/* MoveIndirectRelPt */
SRP2[ ]	/* SetRefPoint2 */
IP[ ]	/* InterpolatePts */
MDAP[1]	/* MoveDirectAbsPt */
CALL[ ]	/* CallFunction */
IUP[1]	/* InterpolateUntPts */
IUP[0]	/* InterpolateUntPts */";
};
width = 1229;
}
);
note = uni0036;
unicode = 54;
},
{
glyphname = seven;
layers = (
{
layerId = m01;
shapes = (
{
closed = 1;
nodes = (
(1083,1317,l),
(1083,1462,l),
(143,1462,l),
(143,1296,l),
(897,1296,l),
(334,0,l),
(528,0,l)
);
}
);
userData = {
assembly = "NPUSHB[ ]	/* 48 values pushed */
121 6 137 6 2 71 6 87 6 2 7 6 23 6 39 6 3 6 0 0 2 8 1 24 1 40 1 3 1 5 8 0 2 208 2 224 2 240 2 4 2 5 2 116 3 6 0 24 
SVTCA[0]	/* SetFreedomAndProjectionVectorToAxis */
MIAP[1]	/* MoveIndirectAbsPt */
MIAP[1]	/* MoveIndirectAbsPt */
MIRP[00001]	/* MoveIndirectRelPt */
SHP[0]	/* ShiftPointByLastPoint */
SVTCA[1]	/* SetFreedomAndProjectionVectorToAxis */
MDAP[1]	/* MoveDirectAbsPt */
DELTAP1[ ]	/* DeltaExceptionP1 */
SRP0[ ]	/* SetRefPoint0 */
MDRP[01110]	/* MoveDirectRelPt */
SHP[0]	/* ShiftPointByLastPoint */
DELTAP1[ ]	/* DeltaExceptionP1 */
SRP1[ ]	/* SetRefPoint1 */
IP[ ]	/* InterpolatePts */
MDAP[1]	/* MoveDirectAbsPt */
SHP[1]	/* ShiftPointByLastPoint */
DELTAP1[ ]	/* DeltaExceptionP1 */
IUP[1]	/* InterpolateUntPts */
IUP[0]	/* InterpolateUntPts */
DELTAP1[ ]	/* DeltaExceptionP1 */
DELTAP1[ ]	/* DeltaExceptionP1 */";
};
width = 1229;
}
);
note = uni0037;
unicode = 55;
},
{
glyphname = eight;
layers = (
{
layerId = m01;
shapes = (
{
closed = 1;
nodes = (
(1026,1133,qs),
(1026,1295,o),
(798,1485,o),
(614,1485,qs),
(436,1485,o),
(203,1296,o),
(203,1135,qs),
(203,912,o),
(438,766,q),
(156,630,o),
(156,373,qs),
(156,187,o),
(398,-20,o),
(614,-20,qs),
(821,-20,o),
(1073,200,o),
(1073,381,qs),
(1073,614,o),
(764,774,q),
(1026,903,o)
);
},
{
closed = 1;
nodes = (
(381,1036,o),
(381,1126,qs),
(381,1227,o),
(506,1333,o),
(612,1333,qs),
(722,1333,o),
(848,1227,o),
(848,1126,qs),
(848,951,o),
(616,848,q),
(480,911,o)
);
},
{
closed = 1;
nodes = (
(769,608,o),
(895,469,o),
(895,379,qs),
(895,262,o),
(746,131,o),
(610,131,qs),
(334,131,o),
(334,371,qs),
(334,575,o),
(588,696,q),
(618,682,ls)
);
}
);
userData = {
assembly = "NPUSHB[ ]	/* 31 values pushed */
10 31 12 38 110 2 20 0 2 28 110 12 22 110 18 12 18 12 18 8 191 2 1 2 43 33 110 0 8 1 8 
PUSHW[ ]	/* 1 value pushed */
-64 
PUSHB[ ]	/* 8 values pushed */
20 24 72 8 215 20 1 20 
PUSHW[ ]	/* 1 value pushed */
-16 
NPUSHB[ ]	/* 34 values pushed */
12 15 72 7 20 23 20 2 57 31 89 31 105 31 121 31 4 42 31 1 31 10 0 20 4 35 25 115 15 7 35 115 5 25 
SVTCA[0]	/* SetFreedomAndProjectionVectorToAxis */
MIAP[1]	/* MoveIndirectAbsPt */
MIRP[00001]	/* MoveIndirectRelPt */
MIAP[1]	/* MoveIndirectAbsPt */
MIRP[00001]	/* MoveIndirectRelPt */
SRP2[ ]	/* SetRefPoint2 */
SLOOP[ ]	/* SetLoopVariable */
IP[ ]	/* InterpolatePts */
DELTAP1[ ]	/* DeltaExceptionP1 */
DELTAP1[ ]	/* DeltaExceptionP1 */
DELTAP1[ ]	/* DeltaExceptionP1 */
CALL[ ]	/* CallFunction */
DELTAP1[ ]	/* DeltaExceptionP1 */
SVTCA[1]	/* SetFreedomAndProjectionVectorToAxis */
MDAP[1]	/* MoveDirectAbsPt */
CALL[ ]	/* CallFunction */
DELTAP1[ ]	/* DeltaExceptionP1 */
MIRP[00001]	/* MoveIndirectRelPt */
SRP0[ ]	/* SetRefPoint0 */
MDRP[01110]	/* MoveDirectRelPt */
DELTAP1[ ]	/* DeltaExceptionP1 */
SRP1[ ]	/* SetRefPoint1 */
IP[ ]	/* InterpolatePts */
IP[ ]	/* InterpolatePts */
MDAP[1]	/* MoveDirectAbsPt */
MDAP[1]	/* MoveDirectAbsPt */
SRP0[ ]	/* SetRefPoint0 */
MIRP[00001]	/* MoveIndirectRelPt */
SRP0[ ]	/* SetRefPoint0 */
MIRP[00001]	/* MoveIndirectRelPt */
SRP1[ ]	/* SetRefPoint1 */
IP[ ]	/* InterpolatePts */
IP[ ]	/* InterpolatePts */
SRP0[ ]	/* SetRefPoint0 */
MIRP[00001]	/* MoveIndirectRelPt */
SRP1[ ]	/* SetRefPoint1 */
IP[ ]	/* InterpolatePts */
IP[ ]	/* InterpolatePts */
IUP[1]	/* InterpolateUntPts */
IUP[0]	/* InterpolateUntPts */";
};
width = 1229;
}
);
note = uni0038;
unicode = 56;
},
{
glyphname = nine;
layers = (
{
layerId = m01;
shapes = (
{
closed = 1;
nodes = (
(436,-20,qs),
(1075,-20,o),
(1075,838,qs),
(1075,1141,o),
(818,1483,o),
(598,1483,qs),
(395,1483,o),
(154,1219,o),
(154,991,qs),
(154,783,o),
(375,547,o),
(569,547,qs),
(781,547,o),
(877,717,q),
(889,717,l),
(879,411,o),
(654,129,o),
(430,129,qs),
(331,129,o),
(264,154,q),
(264,-2,l),
(331,-20,o)
);
},
{
closed = 1;
nodes = (
(472,1329,o),
(600,1329,qs),
(733,1329,o),
(893,1107,o),
(893,956,qs),
(893,853,o),
(721,690,o),
(594,690,qs),
(467,690,o),
(330,846,o),
(330,991,qs),
(330,1155,o)
);
}
);
userData = {
assembly = "PUSHW[ ]	/* 2 values pushed */
1 -64 
NPUSHB[ ]	/* 20 values pushed */
11 15 72 1 1 12 6 28 111 191 18 1 18 35 22 110 0 12 1 12 
PUSHW[ ]	/* 1 value pushed */
-64 
NPUSHB[ ]	/* 19 values pushed */
20 24 72 12 6 25 117 9 9 15 3 117 1 20 25 31 115 15 7 
SVTCA[0]	/* SetFreedomAndProjectionVectorToAxis */
MIAP[1]	/* MoveIndirectAbsPt */
MIRP[00001]	/* MoveIndirectRelPt */
MIAP[1]	/* MoveIndirectAbsPt */
SHP[1]	/* ShiftPointByLastPoint */
MIRP[00001]	/* MoveIndirectRelPt */
SRP1[ ]	/* SetRefPoint1 */
IP[ ]	/* InterpolatePts */
MDAP[1]	/* MoveDirectAbsPt */
MIRP[00001]	/* MoveIndirectRelPt */
SHP[0]	/* ShiftPointByLastPoint */
SVTCA[1]	/* SetFreedomAndProjectionVectorToAxis */
MDAP[1]	/* MoveDirectAbsPt */
CALL[ ]	/* CallFunction */
DELTAP1[ ]	/* DeltaExceptionP1 */
MIRP[00001]	/* MoveIndirectRelPt */
SRP0[ ]	/* SetRefPoint0 */
MDRP[11110]	/* MoveDirectRelPt */
DELTAP1[ ]	/* DeltaExceptionP1 */
MIRP[00001]	/* MoveIndirectRelPt */
SHP[0]	/* ShiftPointByLastPoint */
SRP2[ ]	/* SetRefPoint2 */
IP[ ]	/* InterpolatePts */
MDAP[1]	/* MoveDirectAbsPt */
CALL[ ]	/* CallFunction */
IUP[1]	/* InterpolateUntPts */
IUP[0]	/* InterpolateUntPts */";
};
width = 1229;
}
);
note = uni0039;
unicode = 57;
},
{
glyphname = colon;
layers = (
{
layerId = m01;
shapes = (
{
closed = 1;
nodes = (
(487,987,qs),
(487,848,o),
(614,848,qs),
(741,848,o),
(741,987,qs),
(741,1126,o),
(614,1126,qs),
(487,1126,o)
);
},
{
closed = 1;
nodes = (
(487,111,qs),
(487,-29,o),
(614,-29,qs),
(741,-29,o),
(741,111,qs),
(741,250,o),
(614,250,qs),
(487,250,o)
);
}
);
userData = {
assembly = "NPUSHB[ ]	/* 27 values pushed */
10 2 150 14 48 6 96 6 176 6 224 6 240 6 5 6 6 16 17 8 155 12 168 4 155 0 16 
SVTCA[0]	/* SetFreedomAndProjectionVectorToAxis */
MIAP[1]	/* MoveIndirectAbsPt */
MIRP[01101]	/* MoveIndirectRelPt */
MIAP[1]	/* MoveIndirectAbsPt */
MIRP[01101]	/* MoveIndirectRelPt */
SRP1[ ]	/* SetRefPoint1 */
SRP2[ ]	/* SetRefPoint2 */
SVTCA[1]	/* SetFreedomAndProjectionVectorToAxis */
IP[ ]	/* InterpolatePts */
MDAP[1]	/* MoveDirectAbsPt */
DELTAP1[ ]	/* DeltaExceptionP1 */
SHP[1]	/* ShiftPointByLastPoint */
MIRP[01101]	/* MoveIndirectRelPt */
SHP[0]	/* ShiftPointByLastPoint */
IUP[1]	/* InterpolateUntPts */
IUP[0]	/* InterpolateUntPts */";
};
width = 1229;
}
);
note = uni003A;
unicode = 58;
},
{
glyphname = semicolon;
layers = (
{
layerId = m01;
shapes = (
{
closed = 1;
nodes = (
(494,987,qs),
(494,848,o),
(621,848,qs),
(748,848,o),
(748,987,qs),
(748,1126,o),
(621,1126,qs),
(494,1126,o)
);
},
{
closed = 1;
nodes = (
(472,-9,o),
(410,-264,q),
(547,-264,l),
(672,18,o),
(723,215,q),
(709,238,l),
(510,238,l)
);
}
);
userData = {
assembly = "NPUSHB[ ]	/* 46 values pushed */
25 14 41 14 233 14 249 14 4 14 152 12 153 9 9 2 150 48 6 96 6 176 6 224 6 240 6 5 6 6 15 16 11 157 31 14 47 14 63 14 3 14 4 155 0 16 
SVTCA[0]	/* SetFreedomAndProjectionVectorToAxis */
MIAP[1]	/* MoveIndirectAbsPt */
MIRP[01101]	/* MoveIndirectRelPt */
MDAP[1]	/* MoveDirectAbsPt */
DELTAP1[ ]	/* DeltaExceptionP1 */
MIRP[01101]	/* MoveIndirectRelPt */
SRP1[ ]	/* SetRefPoint1 */
SRP2[ ]	/* SetRefPoint2 */
SVTCA[1]	/* SetFreedomAndProjectionVectorToAxis */
IP[ ]	/* InterpolatePts */
MDAP[1]	/* MoveDirectAbsPt */
DELTAP1[ ]	/* DeltaExceptionP1 */
MIRP[01101]	/* MoveIndirectRelPt */
SHP[0]	/* ShiftPointByLastPoint */
MDAP[1]	/* MoveDirectAbsPt */
MIRP[01101]	/* MoveIndirectRelPt */
MIRP[00001]	/* MoveIndirectRelPt */
DELTAP1[ ]	/* DeltaExceptionP1 */
IUP[1]	/* InterpolateUntPts */
IUP[0]	/* InterpolateUntPts */";
};
width = 1229;
}
);
note = uni003B;
unicode = 59;
},
{
glyphname = less;
lastChange = "2023-02-13 06:36:49 +0000";
layers = (
{
layerId = m01;
shapes = (
{
closed = 1;
nodes = (
(360,558,l),
(1075,900,l),
(1075,1060,l),
(152,609,l),
(152,507,l),
(1075,56,l),
(1075,216,l)
);
}
);
userData = {
assembly = "NPUSHB[ ]	/* 61 values pushed */
103 6 119 6 135 6 3 104 4 120 4 136 4 3 118 5 134 5 2 5 4 1 4 0 8 1 1 7 2 1 5 5 3 6 224 0 1 223 0 1 64 0 1 63 0 1 0 0 1 0 0 4 32 3 192 3 2 15 3 1 3 
SVTCA[0]	/* SetFreedomAndProjectionVectorToAxis */
MDAP[1]	/* MoveDirectAbsPt */
DELTAP1[ ]	/* DeltaExceptionP1 */
DELTAP1[ ]	/* DeltaExceptionP1 */
SHP[1]	/* ShiftPointByLastPoint */
SHP[1]	/* ShiftPointByLastPoint */
MDAP[1]	/* MoveDirectAbsPt */
DELTAP1[ ]	/* DeltaExceptionP1 */
DELTAP1[ ]	/* DeltaExceptionP1 */
DELTAP1[ ]	/* DeltaExceptionP1 */
DELTAP1[ ]	/* DeltaExceptionP1 */
DELTAP1[ ]	/* DeltaExceptionP1 */
SHP[0]	/* ShiftPointByLastPoint */
SRP2[ ]	/* SetRefPoint2 */
IP[ ]	/* InterpolatePts */
SRP1[ ]	/* SetRefPoint1 */
SHP[1]	/* ShiftPointByLastPoint */
SHP[1]	/* ShiftPointByLastPoint */
SRP1[ ]	/* SetRefPoint1 */
SVTCA[1]	/* SetFreedomAndProjectionVectorToAxis */
SHP[1]	/* ShiftPointByLastPoint */
MDAP[1]	/* MoveDirectAbsPt */
SRP0[ ]	/* SetRefPoint0 */
MDRP[01110]	/* MoveDirectRelPt */
SHP[0]	/* ShiftPointByLastPoint */
SRP1[ ]	/* SetRefPoint1 */
SRP2[ ]	/* SetRefPoint2 */
IP[ ]	/* InterpolatePts */
DELTAP1[ ]	/* DeltaExceptionP1 */
IUP[1]	/* InterpolateUntPts */
IUP[0]	/* InterpolateUntPts */
SVTCA[0]	/* SetFreedomAndProjectionVectorToAxis */
DELTAP1[ ]	/* DeltaExceptionP1 */
DELTAP1[ ]	/* DeltaExceptionP1 */";
};
width = 1229;
}
);
note = uni003C;
unicode = 60;
},
{
glyphname = equal;
lastChange = "2023-02-22 00:54:01 +0000";
layers = (
{
layerId = m01;
shapes = (
{
closed = 1;
nodes = (
(1075,845,l),
(152,845,l),
(152,696,l),
(1075,696,l)
);
},
{
closed = 1;
nodes = (
(1075,436,l),
(152,436,l),
(152,286,l),
(1075,286,l)
);
}
);
userData = {
assembly = "NPUSHB[ ]	/* 39 values pushed */
7 2 9 4 0 1 1 1 1 8 5 173 112 4 1 79 4 95 4 111 4 3 0 4 1 4 4 0 173 143 1 1 80 1 1 15 1 1 1 
SVTCA[0]	/* SetFreedomAndProjectionVectorToAxis */
MDAP[1]	/* MoveDirectAbsPt */
DELTAP1[ ]	/* DeltaExceptionP1 */
DELTAP1[ ]	/* DeltaExceptionP1 */
DELTAP1[ ]	/* DeltaExceptionP1 */
MIRP[00001]	/* MoveIndirectRelPt */
SHP[1]	/* ShiftPointByLastPoint */
MDAP[1]	/* MoveDirectAbsPt */
DELTAP1[ ]	/* DeltaExceptionP1 */
DELTAP1[ ]	/* DeltaExceptionP1 */
DELTAP1[ ]	/* DeltaExceptionP1 */
MIRP[00001]	/* MoveIndirectRelPt */
SRP1[ ]	/* SetRefPoint1 */
SVTCA[1]	/* SetFreedomAndProjectionVectorToAxis */
SHP[1]	/* ShiftPointByLastPoint */
MDAP[1]	/* MoveDirectAbsPt */
DELTAP1[ ]	/* DeltaExceptionP1 */
SHP[1]	/* ShiftPointByLastPoint */
SRP0[ ]	/* SetRefPoint0 */
MDRP[01110]	/* MoveDirectRelPt */
SHP[0]	/* ShiftPointByLastPoint */
IUP[1]	/* InterpolateUntPts */
IUP[0]	/* InterpolateUntPts */";
};
width = 1229;
}
);
note = uni003D;
unicode = 61;
},
{
glyphname = greater;
lastChange = "2023-02-13 06:37:05 +0000";
layers = (
{
layerId = m01;
shapes = (
{
closed = 1;
nodes = (
(1075,507,l),
(1075,609,l),
(152,1060,l),
(152,900,l),
(866,558,l),
(152,216,l),
(152,56,l)
);
}
);
userData = {
assembly = "NPUSHB[ ]	/* 60 values pushed */
104 2 120 2 136 2 3 103 0 119 0 135 0 3 121 1 137 1 2 1 6 4 8 2 6 6 7 5 4 1 1 3 0 224 6 1 223 6 1 64 6 1 63 6 1 0 6 1 6 6 2 32 3 192 3 2 15 3 1 3 
SVTCA[0]	/* SetFreedomAndProjectionVectorToAxis */
MDAP[1]	/* MoveDirectAbsPt */
DELTAP1[ ]	/* DeltaExceptionP1 */
DELTAP1[ ]	/* DeltaExceptionP1 */
SHP[1]	/* ShiftPointByLastPoint */
SHP[1]	/* ShiftPointByLastPoint */
MDAP[1]	/* MoveDirectAbsPt */
DELTAP1[ ]	/* DeltaExceptionP1 */
DELTAP1[ ]	/* DeltaExceptionP1 */
DELTAP1[ ]	/* DeltaExceptionP1 */
DELTAP1[ ]	/* DeltaExceptionP1 */
DELTAP1[ ]	/* DeltaExceptionP1 */
SHP[1]	/* ShiftPointByLastPoint */
SRP2[ ]	/* SetRefPoint2 */
IP[ ]	/* InterpolatePts */
SRP1[ ]	/* SetRefPoint1 */
SHP[1]	/* ShiftPointByLastPoint */
SHP[1]	/* ShiftPointByLastPoint */
SRP1[ ]	/* SetRefPoint1 */
SVTCA[1]	/* SetFreedomAndProjectionVectorToAxis */
SHP[1]	/* ShiftPointByLastPoint */
MDAP[1]	/* MoveDirectAbsPt */
SHP[1]	/* ShiftPointByLastPoint */
SRP0[ ]	/* SetRefPoint0 */
MDRP[01110]	/* MoveDirectRelPt */
SRP1[ ]	/* SetRefPoint1 */
IP[ ]	/* InterpolatePts */
DELTAP1[ ]	/* DeltaExceptionP1 */
IUP[1]	/* InterpolateUntPts */
IUP[0]	/* InterpolateUntPts */
SVTCA[0]	/* SetFreedomAndProjectionVectorToAxis */
DELTAP1[ ]	/* DeltaExceptionP1 */
DELTAP1[ ]	/* DeltaExceptionP1 */";
};
width = 1229;
}
);
note = uni003E;
unicode = 62;
},
{
glyphname = question;
layers = (
{
layerId = m01;
shapes = (
{
closed = 1;
nodes = (
(625,432,ls),
(625,522,o),
(691,630,o),
(809,717,qs),
(952,825,o),
(1059,991,o),
(1059,1124,qs),
(1059,1288,o),
(808,1483,o),
(594,1483,qs),
(377,1483,o),
(168,1386,q),
(233,1233,l),
(430,1323,o),
(604,1323,qs),
(736,1323,o),
(885,1208,o),
(885,1116,qs),
(885,1016,o),
(802,900,o),
(672,803,qs),
(557,721,o),
(465,571,o),
(465,451,qs),
(465,414,l),
(625,414,l)
);
},
{
closed = 1;
nodes = (
(426,111,qs),
(426,-29,o),
(553,-29,qs),
(680,-29,o),
(680,111,qs),
(680,250,o),
(553,250,qs),
(426,250,o)
);
}
);
userData = {
assembly = "NPUSHB[ ]	/* 42 values pushed */
25 0 0 28 150 32 32 13 7 71 18 35 32 35 1 0 13 1 13 7 15 47 0 1 0 0 15 21 26 1 6 26 1 26 155 30 168 12 10 81 15 4 
SVTCA[0]	/* SetFreedomAndProjectionVectorToAxis */
MIAP[1]	/* MoveIndirectAbsPt */
MIRP[00001]	/* MoveIndirectRelPt */
SHP[1]	/* ShiftPointByLastPoint */
MIAP[1]	/* MoveIndirectAbsPt */
MIRP[00001]	/* MoveIndirectRelPt */
DELTAP1[ ]	/* DeltaExceptionP1 */
DELTAP1[ ]	/* DeltaExceptionP1 */
SRP1[ ]	/* SetRefPoint1 */
IP[ ]	/* InterpolatePts */
MDAP[1]	/* MoveDirectAbsPt */
DELTAP1[ ]	/* DeltaExceptionP1 */
SRP2[ ]	/* SetRefPoint2 */
IP[ ]	/* InterpolatePts */
SVTCA[1]	/* SetFreedomAndProjectionVectorToAxis */
MDAP[1]	/* MoveDirectAbsPt */
DELTAP1[ ]	/* DeltaExceptionP1 */
DELTAP1[ ]	/* DeltaExceptionP1 */
SRP0[ ]	/* SetRefPoint0 */
MDRP[11110]	/* MoveDirectRelPt */
MIRP[00001]	/* MoveIndirectRelPt */
SRP1[ ]	/* SetRefPoint1 */
IP[ ]	/* InterpolatePts */
MDAP[1]	/* MoveDirectAbsPt */
MIRP[00101]	/* MoveIndirectRelPt */
SHP[1]	/* ShiftPointByLastPoint */
SRP1[ ]	/* SetRefPoint1 */
SHP[1]	/* ShiftPointByLastPoint */
IUP[1]	/* InterpolateUntPts */
IUP[0]	/* InterpolateUntPts */";
};
width = 1229;
}
);
note = uni003F;
unicode = 63;
},
{
glyphname = at;
layers = (
{
layerId = m01;
shapes = (
{
closed = 1;
nodes = (
(956,221,qs),
(1070,221,o),
(1198,500,o),
(1198,731,qs),
(1198,1070,o),
(901,1462,o),
(653,1462,qs),
(365,1462,o),
(31,999,o),
(31,602,qs),
(31,232,o),
(366,-182,o),
(664,-182,qs),
(858,-182,o),
(1016,-100,q),
(1016,33,l),
(851,-45,o),
(670,-45,qs),
(431,-45,o),
(172,296,o),
(172,608,qs),
(172,943,o),
(425,1327,o),
(651,1327,qs),
(839,1327,o),
(1061,1011,o),
(1061,733,qs),
(1061,350,o),
(961,350,qs),
(889,350,o),
(889,526,qs),
(889,533,ls),
(889,564,o),
(891,602,qs),
(913,1018,l),
(794,1065,o),
(657,1065,qs),
(499,1065,o),
(305,812,o),
(305,606,qs),
(305,430,o),
(445,221,o),
(565,221,qs),
(721,221,o),
(795,401,q),
(799,401,l),
(828,221,o)
);
},
{
closed = 1;
nodes = (
(723,350,o),
(592,350,qs),
(465,350,o),
(465,602,qs),
(465,749,o),
(560,936,o),
(649,936,qs),
(698,936,o),
(752,915,q),
(737,662,ls)
);
}
);
userData = {
assembly = "NPUSHB[ ]	/* 90 values pushed */
22 52 1 52 211 6 0 47 24 56 1 56 211 14 11 30 14 28 6 1 212 14 1 96 14 1 25 14 1 4 14 1 6 14 6 14 36 9 19 1 19 210 42 58 6 25 1 25 210 36 17 54 213 3 45 3 49 213 9 63 3 79 3 143 3 207 3 223 3 5 48 9 64 9 208 9 3 3 9 3 9 28 22 214 39 3 28 214 30 33 
SVTCA[0]	/* SetFreedomAndProjectionVectorToAxis */
MDAP[1]	/* MoveDirectAbsPt */
SHP[1]	/* ShiftPointByLastPoint */
MIRP[00001]	/* MoveIndirectRelPt */
MIAP[1]	/* MoveIndirectAbsPt */
MIRP[00001]	/* MoveIndirectRelPt */
SRP2[ ]	/* SetRefPoint2 */
IP[ ]	/* InterpolatePts */
IP[ ]	/* InterpolatePts */
MDAP[1]	/* MoveDirectAbsPt */
MDAP[1]	/* MoveDirectAbsPt */
DELTAP1[ ]	/* DeltaExceptionP1 */
DELTAP1[ ]	/* DeltaExceptionP1 */
SRP0[ ]	/* SetRefPoint0 */
MIRP[00001]	/* MoveIndirectRelPt */
SRP1[ ]	/* SetRefPoint1 */
SHP[1]	/* ShiftPointByLastPoint */
SRP0[ ]	/* SetRefPoint0 */
MIRP[00001]	/* MoveIndirectRelPt */
SHP[0]	/* ShiftPointByLastPoint */
SVTCA[1]	/* SetFreedomAndProjectionVectorToAxis */
MDAP[1]	/* MoveDirectAbsPt */
MIRP[00001]	/* MoveIndirectRelPt */
DELTAP1[ ]	/* DeltaExceptionP1 */
SRP0[ ]	/* SetRefPoint0 */
MDRP[10110]	/* MoveDirectRelPt */
MIRP[00001]	/* MoveIndirectRelPt */
DELTAP1[ ]	/* DeltaExceptionP1 */
SRP1[ ]	/* SetRefPoint1 */
IP[ ]	/* InterpolatePts */
IP[ ]	/* InterpolatePts */
MDAP[1]	/* MoveDirectAbsPt */
MDAP[1]	/* MoveDirectAbsPt */
DELTAP1[ ]	/* DeltaExceptionP1 */
DELTAP1[ ]	/* DeltaExceptionP1 */
DELTAP1[ ]	/* DeltaExceptionP1 */
DELTAP1[ ]	/* DeltaExceptionP1 */
DELTAP1[ ]	/* DeltaExceptionP1 */
SRP1[ ]	/* SetRefPoint1 */
IP[ ]	/* InterpolatePts */
SHP[1]	/* ShiftPointByLastPoint */
SRP0[ ]	/* SetRefPoint0 */
MIRP[00001]	/* MoveIndirectRelPt */
DELTAP1[ ]	/* DeltaExceptionP1 */
SHP[0]	/* ShiftPointByLastPoint */
IP[ ]	/* InterpolatePts */
SRP0[ ]	/* SetRefPoint0 */
MIRP[00001]	/* MoveIndirectRelPt */
DELTAP1[ ]	/* DeltaExceptionP1 */
IUP[1]	/* InterpolateUntPts */
IUP[0]	/* InterpolateUntPts */";
};
width = 1229;
}
);
note = uni0040;
unicode = 64;
},
{
glyphname = A;
layers = (
{
layerId = m01;
shapes = (
{
closed = 1;
nodes = (
(711,1468,l),
(516,1468,l),
(33,0,l),
(223,0,l),
(369,453,l),
(860,453,l),
(1004,0,l),
(1196,0,l)
);
},
{
closed = 1;
nodes = (
(566,1085,ls),
(592,1169,o),
(612,1268,q),
(635,1166,o),
(674,1042,qs),
(807,618,l),
(422,618,l)
);
}
);
userData = {
assembly = "NPUSHB[ ]	/* 10 values pushed */
2 14 3 8 1 0 183 6 1 6 
PUSHW[ ]	/* 1 value pushed */
-8 
NPUSHB[ ]	/* 98 values pushed */
14 17 72 71 6 1 38 6 1 23 6 1 6 6 1 6 184 5 1 5 8 14 17 72 72 5 1 41 5 1 24 5 1 9 5 1 5 11 11 4 88 0 1 72 0 1 42 0 1 9 0 25 0 2 0 7 7 16 87 3 1 71 3 1 37 3 1 6 3 22 3 2 3 4 2 95 11 16 17 20 72 11 16 11 14 72 29 11 1 11 5 14 14 5 3 4 0 18 
SVTCA[0]	/* SetFreedomAndProjectionVectorToAxis */
MIAP[1]	/* MoveIndirectAbsPt */
SHP[0]	/* ShiftPointByLastPoint */
MIAP[1]	/* MoveIndirectAbsPt */
IP[ ]	/* InterpolatePts */
MDAP[1]	/* MoveDirectAbsPt */
SRP2[ ]	/* SetRefPoint2 */
IP[ ]	/* InterpolatePts */
DELTAP1[ ]	/* DeltaExceptionP1 */
CALL[ ]	/* CallFunction */
CALL[ ]	/* CallFunction */
MIRP[00001]	/* MoveIndirectRelPt */
SVTCA[1]	/* SetFreedomAndProjectionVectorToAxis */
MDAP[1]	/* MoveDirectAbsPt */
SHP[1]	/* ShiftPointByLastPoint */
DELTAP1[ ]	/* DeltaExceptionP1 */
DELTAP1[ ]	/* DeltaExceptionP1 */
DELTAP1[ ]	/* DeltaExceptionP1 */
DELTAP1[ ]	/* DeltaExceptionP1 */
SRP1[ ]	/* SetRefPoint1 */
SHP[1]	/* ShiftPointByLastPoint */
MDAP[1]	/* MoveDirectAbsPt */
SHP[1]	/* ShiftPointByLastPoint */
DELTAP1[ ]	/* DeltaExceptionP1 */
DELTAP1[ ]	/* DeltaExceptionP1 */
DELTAP1[ ]	/* DeltaExceptionP1 */
DELTAP1[ ]	/* DeltaExceptionP1 */
SRP2[ ]	/* SetRefPoint2 */
IP[ ]	/* InterpolatePts */
RTDG[ ]	/* RoundToDoubleGrid */
MDAP[1]	/* MoveDirectAbsPt */
SHP[1]	/* ShiftPointByLastPoint */
DELTAP1[ ]	/* DeltaExceptionP1 */
DELTAP1[ ]	/* DeltaExceptionP1 */
DELTAP1[ ]	/* DeltaExceptionP1 */
DELTAP1[ ]	/* DeltaExceptionP1 */
CALL[ ]	/* CallFunction */
DELTAP1[ ]	/* DeltaExceptionP1 */
SHP[1]	/* ShiftPointByLastPoint */
DELTAP1[ ]	/* DeltaExceptionP1 */
DELTAP1[ ]	/* DeltaExceptionP1 */
DELTAP1[ ]	/* DeltaExceptionP1 */
DELTAP1[ ]	/* DeltaExceptionP1 */
CALL[ ]	/* CallFunction */
DELTAP1[ ]	/* DeltaExceptionP1 */
SRP2[ ]	/* SetRefPoint2 */
IP[ ]	/* InterpolatePts */
IP[ ]	/* InterpolatePts */
SRP2[ ]	/* SetRefPoint2 */
IP[ ]	/* InterpolatePts */
IP[ ]	/* InterpolatePts */
IUP[1]	/* InterpolateUntPts */
IUP[0]	/* InterpolateUntPts */";
};
width = 1229;
}
);
note = uni0041;
unicode = 65;
},
{
glyphname = B;
layers = (
{
layerId = m01;
shapes = (
{
closed = 1;
nodes = (
(662,0,ls),
(882,0,o),
(1137,226,o),
(1137,424,qs),
(1137,712,o),
(805,766,q),
(805,776,l),
(939,794,o),
(1096,964,o),
(1096,1092,qs),
(1096,1287,o),
(849,1462,o),
(575,1462,qs),
(135,1462,l),
(135,0,l)
);
},
{
closed = 1;
nodes = (
(586,1303,ls),
(752,1303,o),
(905,1199,o),
(905,1079,qs),
(905,952,o),
(762,842,o),
(606,842,qs),
(322,842,l),
(322,1303,l)
);
},
{
closed = 1;
nodes = (
(940,686,o),
(940,432,qs),
(940,158,o),
(629,158,qs),
(322,158,l),
(322,686,l),
(616,686,ls)
);
}
);
userData = {
assembly = "NPUSHB[ ]	/* 50 values pushed */
19 91 20 7 36 7 2 7 4 4 14 28 91 10 32 15 25 90 0 14 1 0 14 16 14 240 14 3 8 14 7 24 96 159 15 1 104 15 1 15 15 0 25 96 14 18 23 96 0 3 
SVTCA[0]	/* SetFreedomAndProjectionVectorToAxis */
MIAP[1]	/* MoveIndirectAbsPt */
MIRP[00001]	/* MoveIndirectRelPt */
MIAP[1]	/* MoveIndirectAbsPt */
MIRP[00001]	/* MoveIndirectRelPt */
SRP1[ ]	/* SetRefPoint1 */
IP[ ]	/* InterpolatePts */
MDAP[1]	/* MoveDirectAbsPt */
DELTAP1[ ]	/* DeltaExceptionP1 */
DELTAP1[ ]	/* DeltaExceptionP1 */
MIRP[00001]	/* MoveIndirectRelPt */
IP[ ]	/* InterpolatePts */
SVTCA[1]	/* SetFreedomAndProjectionVectorToAxis */
MDAP[1]	/* MoveDirectAbsPt */
SDB[ ]	/* SetDeltaBaseInGState */
DELTAP1[ ]	/* DeltaExceptionP1 */
DELTAP2[ ]	/* DeltaExceptionP2 */
MIRP[00001]	/* MoveIndirectRelPt */
SHP[0]	/* ShiftPointByLastPoint */
SRP0[ ]	/* SetRefPoint0 */
MDRP[11110]	/* MoveDirectRelPt */
MIRP[00001]	/* MoveIndirectRelPt */
SRP2[ ]	/* SetRefPoint2 */
IP[ ]	/* InterpolatePts */
MDAP[1]	/* MoveDirectAbsPt */
IP[ ]	/* InterpolatePts */
DELTAP1[ ]	/* DeltaExceptionP1 */
MIRP[00001]	/* MoveIndirectRelPt */
IUP[1]	/* InterpolateUntPts */
IUP[0]	/* InterpolateUntPts */";
};
width = 1229;
}
);
note = uni0042;
unicode = 66;
},
{
glyphname = C;
layers = (
{
layerId = m01;
shapes = (
{
closed = 1;
nodes = (
(797,143,qs),
(566,143,o),
(326,444,o),
(326,731,qs),
(326,1002,o),
(582,1319,o),
(797,1319,qs),
(948,1319,o),
(1102,1241,q),
(1180,1397,l),
(1017,1483,o),
(797,1483,qs),
(487,1483,o),
(129,1079,o),
(129,733,qs),
(129,372,o),
(457,-20,o),
(766,-20,qs),
(978,-20,o),
(1124,39,q),
(1124,201,l),
(927,143,o)
);
}
);
userData = {
assembly = "NPUSHB[ ]	/* 28 values pushed */
1 64 20 24 72 1 1 6 11 23 17 91 0 6 240 6 2 6 12 14 95 9 4 0 20 95 3 19 
SVTCA[0]	/* SetFreedomAndProjectionVectorToAxis */
MIAP[1]	/* MoveIndirectAbsPt */
MIRP[00001]	/* MoveIndirectRelPt */
SHP[0]	/* ShiftPointByLastPoint */
MIAP[1]	/* MoveIndirectAbsPt */
MIRP[00001]	/* MoveIndirectRelPt */
SHP[0]	/* ShiftPointByLastPoint */
SVTCA[1]	/* SetFreedomAndProjectionVectorToAxis */
MDAP[1]	/* MoveDirectAbsPt */
DELTAP1[ ]	/* DeltaExceptionP1 */
MIRP[00001]	/* MoveIndirectRelPt */
SRP0[ ]	/* SetRefPoint0 */
MDRP[01110]	/* MoveDirectRelPt */
SRP1[ ]	/* SetRefPoint1 */
IP[ ]	/* InterpolatePts */
MDAP[1]	/* MoveDirectAbsPt */
CALL[ ]	/* CallFunction */
IUP[1]	/* InterpolateUntPts */
IUP[0]	/* InterpolateUntPts */";
};
width = 1229;
}
);
note = uni0043;
unicode = 67;
},
{
glyphname = D;
layers = (
{
layerId = m01;
shapes = (
{
closed = 1;
nodes = (
(781,0,o),
(1147,384,o),
(1147,745,qs),
(1147,1084,o),
(794,1462,o),
(477,1462,qs),
(135,1462,l),
(135,0,l),
(436,0,ls)
);
},
{
closed = 1;
nodes = (
(950,1303,o),
(950,739,qs),
(950,160,o),
(418,160,qs),
(322,160,l),
(322,1303,l),
(457,1303,ls)
);
}
);
userData = {
assembly = "NPUSHB[ ]	/* 26 values pushed */
13 91 5 17 10 90 0 0 1 0 0 16 0 240 0 3 8 0 9 96 1 3 10 96 0 18 
SVTCA[0]	/* SetFreedomAndProjectionVectorToAxis */
MIAP[1]	/* MoveIndirectAbsPt */
MIRP[00001]	/* MoveIndirectRelPt */
MIAP[1]	/* MoveIndirectAbsPt */
MIRP[00001]	/* MoveIndirectRelPt */
SVTCA[1]	/* SetFreedomAndProjectionVectorToAxis */
MDAP[1]	/* MoveDirectAbsPt */
SDB[ ]	/* SetDeltaBaseInGState */
DELTAP1[ ]	/* DeltaExceptionP1 */
DELTAP2[ ]	/* DeltaExceptionP2 */
MIRP[00001]	/* MoveIndirectRelPt */
SRP0[ ]	/* SetRefPoint0 */
MDRP[11110]	/* MoveDirectRelPt */
MIRP[00001]	/* MoveIndirectRelPt */
IUP[1]	/* InterpolateUntPts */
IUP[0]	/* InterpolateUntPts */";
};
width = 1229;
}
);
note = uni0044;
unicode = 68;
},
{
glyphname = E;
layers = (
{
layerId = m01;
shapes = (
{
closed = 1;
nodes = (
(403,164,l),
(403,684,l),
(1020,684,l),
(1020,846,l),
(403,846,l),
(403,1298,l),
(1059,1298,l),
(1059,1462,l),
(217,1462,l),
(217,0,l),
(1059,0,l),
(1059,164,l)
);
}
);
userData = {
assembly = "NPUSHB[ ]	/* 37 values pushed */
8 8 1 4 0 64 18 22 72 0 13 6 10 90 240 1 1 0 1 1 1 9 95 104 6 1 6 6 10 5 95 2 3 10 95 1 18 
SVTCA[0]	/* SetFreedomAndProjectionVectorToAxis */
MIAP[1]	/* MoveIndirectAbsPt */
MIRP[00001]	/* MoveIndirectRelPt */
MIAP[1]	/* MoveIndirectAbsPt */
MIRP[00001]	/* MoveIndirectRelPt */
SRP2[ ]	/* SetRefPoint2 */
IP[ ]	/* InterpolatePts */
MDAP[1]	/* MoveDirectAbsPt */
DELTAP1[ ]	/* DeltaExceptionP1 */
MIRP[00001]	/* MoveIndirectRelPt */
SVTCA[1]	/* SetFreedomAndProjectionVectorToAxis */
MDAP[1]	/* MoveDirectAbsPt */
DELTAP1[ ]	/* DeltaExceptionP1 */
DELTAP1[ ]	/* DeltaExceptionP1 */
MIRP[00001]	/* MoveIndirectRelPt */
SHP[0]	/* ShiftPointByLastPoint */
SRP0[ ]	/* SetRefPoint0 */
MDRP[01110]	/* MoveDirectRelPt */
CALL[ ]	/* CallFunction */
SHP[0]	/* ShiftPointByLastPoint */
SRP1[ ]	/* SetRefPoint1 */
IP[ ]	/* InterpolatePts */
MDAP[1]	/* MoveDirectAbsPt */
IUP[1]	/* InterpolateUntPts */
IUP[0]	/* InterpolateUntPts */";
};
width = 1229;
}
);
note = uni0045;
unicode = 69;
},
{
glyphname = F;
layers = (
{
layerId = m01;
shapes = (
{
closed = 1;
nodes = (
(1047,618,l),
(1047,782,l),
(430,782,l),
(430,1298,l),
(1085,1298,l),
(1085,1462,l),
(244,1462,l),
(244,0,l),
(430,0,l),
(430,618,l)
);
}
);
userData = {
assembly = "NPUSHB[ ]	/* 22 values pushed */
8 8 1 223 3 1 192 3 1 3 11 6 0 90 0 1 64 1 80 1 3 1 
PUSHW[ ]	/* 1 value pushed */
-64 
NPUSHB[ ]	/* 32 values pushed */
21 24 72 1 9 95 104 6 1 47 6 95 6 239 6 255 6 4 6 64 16 21 72 6 6 0 5 95 2 3 0 18 
SVTCA[0]	/* SetFreedomAndProjectionVectorToAxis */
MIAP[1]	/* MoveIndirectAbsPt */
MIAP[1]	/* MoveIndirectAbsPt */
MIRP[00001]	/* MoveIndirectRelPt */
SRP2[ ]	/* SetRefPoint2 */
IP[ ]	/* InterpolatePts */
MDAP[1]	/* MoveDirectAbsPt */
CALL[ ]	/* CallFunction */
DELTAP1[ ]	/* DeltaExceptionP1 */
DELTAP1[ ]	/* DeltaExceptionP1 */
MIRP[00001]	/* MoveIndirectRelPt */
SVTCA[1]	/* SetFreedomAndProjectionVectorToAxis */
MDAP[1]	/* MoveDirectAbsPt */
CALL[ ]	/* CallFunction */
DELTAP1[ ]	/* DeltaExceptionP1 */
MIRP[00001]	/* MoveIndirectRelPt */
SHP[0]	/* ShiftPointByLastPoint */
SRP0[ ]	/* SetRefPoint0 */
MDRP[01110]	/* MoveDirectRelPt */
DELTAP1[ ]	/* DeltaExceptionP1 */
DELTAP1[ ]	/* DeltaExceptionP1 */
SRP1[ ]	/* SetRefPoint1 */
IP[ ]	/* InterpolatePts */
MDAP[1]	/* MoveDirectAbsPt */
IUP[0]	/* InterpolateUntPts */
IUP[1]	/* InterpolateUntPts */";
};
width = 1229;
}
);
note = uni0046;
unicode = 70;
},
{
glyphname = G;
layers = (
{
layerId = m01;
shapes = (
{
closed = 1;
nodes = (
(909,608,l),
(909,172,l),
(804,143,o),
(707,143,qs),
(313,143,o),
(313,731,qs),
(313,1008,o),
(527,1319,o),
(719,1319,qs),
(853,1319,o),
(999,1235,q),
(1071,1397,l),
(917,1483,o),
(725,1483,qs),
(441,1483,o),
(117,1084,o),
(117,733,qs),
(117,379,o),
(412,-20,o),
(674,-20,qs),
(899,-20,o),
(1094,55,q),
(1094,772,l),
(672,772,l),
(672,608,l)
);
}
);
userData = {
assembly = "NPUSHB[ ]	/* 37 values pushed */
0 7 22 90 12 2 26 18 91 0 7 1 7 24 95 47 0 95 0 2 0 64 16 24 72 0 0 20 15 95 13 10 4 20 95 4 19 
SVTCA[0]	/* SetFreedomAndProjectionVectorToAxis */
MIAP[1]	/* MoveIndirectAbsPt */
MIRP[00001]	/* MoveIndirectRelPt */
MIAP[1]	/* MoveIndirectAbsPt */
SHP[1]	/* ShiftPointByLastPoint */
MIRP[00001]	/* MoveIndirectRelPt */
SRP2[ ]	/* SetRefPoint2 */
IP[ ]	/* InterpolatePts */
MDAP[1]	/* MoveDirectAbsPt */
CALL[ ]	/* CallFunction */
DELTAP1[ ]	/* DeltaExceptionP1 */
MIRP[00001]	/* MoveIndirectRelPt */
SVTCA[1]	/* SetFreedomAndProjectionVectorToAxis */
MDAP[1]	/* MoveDirectAbsPt */
DELTAP1[ ]	/* DeltaExceptionP1 */
MIRP[00001]	/* MoveIndirectRelPt */
SRP0[ ]	/* SetRefPoint0 */
MDRP[11110]	/* MoveDirectRelPt */
SHP[0]	/* ShiftPointByLastPoint */
MIRP[00001]	/* MoveIndirectRelPt */
SRP2[ ]	/* SetRefPoint2 */
IP[ ]	/* InterpolatePts */
IUP[1]	/* InterpolateUntPts */
IUP[0]	/* InterpolateUntPts */";
};
width = 1229;
}
);
note = uni0047;
unicode = 71;
},
{
glyphname = H;
layers = (
{
layerId = m01;
shapes = (
{
closed = 1;
nodes = (
(907,1462,l),
(907,846,l),
(322,846,l),
(322,1462,l),
(135,1462,l),
(135,0,l),
(322,0,l),
(322,682,l),
(907,682,l),
(907,0,l),
(1094,0,l),
(1094,1462,l)
);
}
);
userData = {
assembly = "NPUSHB[ ]	/* 38 values pushed */
9 1 90 0 13 8 4 90 16 5 32 5 2 32 5 48 5 2 5 3 95 152 8 1 15 8 47 8 2 6 8 8 10 6 3 5 0 18 
SVTCA[0]	/* SetFreedomAndProjectionVectorToAxis */
MIAP[1]	/* MoveIndirectAbsPt */
SHP[0]	/* ShiftPointByLastPoint */
MIAP[1]	/* MoveIndirectAbsPt */
SHP[1]	/* ShiftPointByLastPoint */
IP[ ]	/* InterpolatePts */
MDAP[1]	/* MoveDirectAbsPt */
SDB[ ]	/* SetDeltaBaseInGState */
DELTAP1[ ]	/* DeltaExceptionP1 */
DELTAP1[ ]	/* DeltaExceptionP1 */
MIRP[00001]	/* MoveIndirectRelPt */
SVTCA[1]	/* SetFreedomAndProjectionVectorToAxis */
MDAP[1]	/* MoveDirectAbsPt */
DELTAP1[ ]	/* DeltaExceptionP1 */
DELTAP2[ ]	/* DeltaExceptionP2 */
MIRP[00001]	/* MoveIndirectRelPt */
SHP[0]	/* ShiftPointByLastPoint */
SRP0[ ]	/* SetRefPoint0 */
MDRP[11110]	/* MoveDirectRelPt */
MIRP[00001]	/* MoveIndirectRelPt */
SHP[0]	/* ShiftPointByLastPoint */
IUP[1]	/* InterpolateUntPts */
IUP[0]	/* InterpolateUntPts */";
};
width = 1229;
}
);
note = uni0048;
unicode = 72;
},
{
glyphname = I;
layers = (
{
layerId = m01;
shapes = (
{
closed = 1;
nodes = (
(707,143,l),
(707,1319,l),
(1001,1339,l),
(1001,1462,l),
(225,1462,l),
(225,1339,l),
(520,1319,l),
(520,143,l),
(225,123,l),
(225,0,l),
(1001,0,l),
(1001,123,l)
);
}
);
userData = {
assembly = "NPUSHB[ ]	/* 40 values pushed */
11 8 10 90 5 2 208 3 1 162 3 1 147 3 1 3 142 3 1 4 99 3 1 5 16 3 80 3 2 3 9 4 97 6 3 3 10 97 0 18 
SVTCA[0]	/* SetFreedomAndProjectionVectorToAxis */
MIAP[1]	/* MoveIndirectAbsPt */
MIRP[00001]	/* MoveIndirectRelPt */
SHP[0]	/* ShiftPointByLastPoint */
MIAP[1]	/* MoveIndirectAbsPt */
MIRP[00001]	/* MoveIndirectRelPt */
SHP[0]	/* ShiftPointByLastPoint */
SVTCA[1]	/* SetFreedomAndProjectionVectorToAxis */
MDAP[1]	/* MoveDirectAbsPt */
DELTAP1[ ]	/* DeltaExceptionP1 */
SDS[ ]	/* SetDeltaShiftInGState */
DELTAP1[ ]	/* DeltaExceptionP1 */
SDS[ ]	/* SetDeltaShiftInGState */
DELTAP1[ ]	/* DeltaExceptionP1 */
SDS[ ]	/* SetDeltaShiftInGState */
DELTAP1[ ]	/* DeltaExceptionP1 */
DELTAP1[ ]	/* DeltaExceptionP1 */
DELTAP1[ ]	/* DeltaExceptionP1 */
SHP[1]	/* ShiftPointByLastPoint */
SHP[1]	/* ShiftPointByLastPoint */
MIRP[00001]	/* MoveIndirectRelPt */
SHP[0]	/* ShiftPointByLastPoint */
SHP[0]	/* ShiftPointByLastPoint */
IUP[1]	/* InterpolateUntPts */
IUP[0]	/* InterpolateUntPts */";
};
width = 1229;
}
);
note = uni0049;
unicode = 73;
},
{
glyphname = J;
layers = (
{
layerId = m01;
shapes = (
{
closed = 1;
nodes = (
(461,-20,qs),
(698,-20,o),
(979,235,o),
(979,451,qs),
(979,1462,l),
(793,1462,l),
(793,449,ls),
(793,302,o),
(607,143,o),
(446,143,qs),
(299,143,o),
(137,205,q),
(137,39,l),
(244,-20,o)
);
}
);
userData = {
assembly = "PUSHB[ ]	/* 3 values pushed */
6 90 9 
PUSHW[ ]	/* 1 value pushed */
-64 
NPUSHB[ ]	/* 20 values pushed */
9 12 72 9 15 0 0 224 0 240 0 3 0 3 95 1 12 19 7 3 
SVTCA[0]	/* SetFreedomAndProjectionVectorToAxis */
MIAP[1]	/* MoveIndirectAbsPt */
MIAP[1]	/* MoveIndirectAbsPt */
SHP[1]	/* ShiftPointByLastPoint */
MIRP[00001]	/* MoveIndirectRelPt */
SVTCA[1]	/* SetFreedomAndProjectionVectorToAxis */
MDAP[1]	/* MoveDirectAbsPt */
DELTAP1[ ]	/* DeltaExceptionP1 */
SRP0[ ]	/* SetRefPoint0 */
MDRP[11110]	/* MoveDirectRelPt */
CALL[ ]	/* CallFunction */
MIRP[00001]	/* MoveIndirectRelPt */
IUP[1]	/* InterpolateUntPts */
IUP[0]	/* InterpolateUntPts */";
};
width = 1229;
}
);
note = uni004A;
unicode = 74;
},
{
glyphname = K;
layers = (
{
layerId = m01;
shapes = (
{
closed = 1;
nodes = (
(1180,1462,l),
(971,1462,l),
(518,899,l),
(397,731,l),
(397,1462,l),
(211,1462,l),
(211,0,l),
(397,0,l),
(397,584,l),
(537,698,l),
(987,0,l),
(1198,0,l),
(659,825,l)
);
}
);
userData = {
assembly = "PUSHB[ ]	/* 8 values pushed */
38 12 54 12 70 12 3 12 
PUSHW[ ]	/* 1 value pushed */
-16 
NPUSHB[ ]	/* 137 values pushed */
16 24 72 248 10 1 217 10 233 10 2 200 10 1 185 10 1 168 10 1 137 10 1 10 8 12 16 72 121 9 1 88 9 1 25 9 1 10 9 1 136 1 1 1 8 20 24 72 1 8 12 15 72 232 2 1 2 16 11 22 72 71 2 1 2 12 0 8 4 90 0 5 96 5 112 5 128 5 4 5 11 16 11 11 208 0 240 0 2 127 0 1 0 0 16 0 64 0 96 0 4 0 16 0 166 8 182 8 198 8 3 119 8 135 8 2 38 8 54 8 86 8 102 8 4 3 2 8 12 4 5 10 6 3 5 0 18 
SVTCA[0]	/* SetFreedomAndProjectionVectorToAxis */
MIAP[1]	/* MoveIndirectAbsPt */
SHP[0]	/* ShiftPointByLastPoint */
MIAP[1]	/* MoveIndirectAbsPt */
SHP[1]	/* ShiftPointByLastPoint */
SRP2[ ]	/* SetRefPoint2 */
SLOOP[ ]	/* SetLoopVariable */
IP[ ]	/* InterpolatePts */
DELTAP1[ ]	/* DeltaExceptionP1 */
DELTAP1[ ]	/* DeltaExceptionP1 */
DELTAP1[ ]	/* DeltaExceptionP1 */
SVTCA[1]	/* SetFreedomAndProjectionVectorToAxis */
MDAP[1]	/* MoveDirectAbsPt */
SHPIX[ ]	/* ShiftZoneByPixel */
DELTAP1[ ]	/* DeltaExceptionP1 */
DELTAP1[ ]	/* DeltaExceptionP1 */
DELTAP1[ ]	/* DeltaExceptionP1 */
SHP[1]	/* ShiftPointByLastPoint */
MDAP[1]	/* MoveDirectAbsPt */
SHPIX[ ]	/* ShiftZoneByPixel */
MDAP[1]	/* MoveDirectAbsPt */
DELTAP1[ ]	/* DeltaExceptionP1 */
MIRP[00001]	/* MoveIndirectRelPt */
SHP[0]	/* ShiftPointByLastPoint */
SRP1[ ]	/* SetRefPoint1 */
IP[ ]	/* InterpolatePts */
IP[ ]	/* InterpolatePts */
DELTAP1[ ]	/* DeltaExceptionP1 */
IUP[1]	/* InterpolateUntPts */
IUP[0]	/* InterpolateUntPts */
SVTCA[0]	/* SetFreedomAndProjectionVectorToAxis */
CALL[ ]	/* CallFunction */
DELTAP1[ ]	/* DeltaExceptionP1 */
SVTCA[1]	/* SetFreedomAndProjectionVectorToAxis */
CALL[ ]	/* CallFunction */
CALL[ ]	/* CallFunction */
DELTAP1[ ]	/* DeltaExceptionP1 */
DELTAP1[ ]	/* DeltaExceptionP1 */
DELTAP1[ ]	/* DeltaExceptionP1 */
DELTAP1[ ]	/* DeltaExceptionP1 */
DELTAP1[ ]	/* DeltaExceptionP1 */
CALL[ ]	/* CallFunction */
DELTAP1[ ]	/* DeltaExceptionP1 */
DELTAP1[ ]	/* DeltaExceptionP1 */
DELTAP1[ ]	/* DeltaExceptionP1 */
DELTAP1[ ]	/* DeltaExceptionP1 */
DELTAP1[ ]	/* DeltaExceptionP1 */
DELTAP1[ ]	/* DeltaExceptionP1 */
CALL[ ]	/* CallFunction */
DELTAP1[ ]	/* DeltaExceptionP1 */";
};
width = 1229;
}
);
note = uni004B;
unicode = 75;
},
{
glyphname = L;
layers = (
{
layerId = m01;
shapes = (
{
closed = 1;
nodes = (
(1055,166,l),
(420,166,l),
(420,1462,l),
(233,1462,l),
(233,0,l),
(1055,0,l)
);
}
);
userData = {
assembly = "NPUSHB[ ]	/* 31 values pushed */
5 64 18 22 72 5 7 3 90 0 0 80 0 96 0 112 0 208 0 224 0 240 0 7 0 1 3 3 95 0 18 
SVTCA[0]	/* SetFreedomAndProjectionVectorToAxis */
MIAP[1]	/* MoveIndirectAbsPt */
MIRP[00001]	/* MoveIndirectRelPt */
MIAP[1]	/* MoveIndirectAbsPt */
SVTCA[1]	/* SetFreedomAndProjectionVectorToAxis */
MDAP[1]	/* MoveDirectAbsPt */
DELTAP1[ ]	/* DeltaExceptionP1 */
MIRP[00001]	/* MoveIndirectRelPt */
SRP0[ ]	/* SetRefPoint0 */
MDRP[01110]	/* MoveDirectRelPt */
CALL[ ]	/* CallFunction */
IUP[1]	/* InterpolateUntPts */
IUP[0]	/* InterpolateUntPts */";
};
width = 1229;
}
);
note = uni004C;
unicode = 76;
},
{
glyphname = M;
layers = (
{
layerId = m01;
shapes = (
{
closed = 1;
nodes = (
(969,1278,l),
(977,1278,l),
(963,989,o),
(963,887,qs),
(963,0,l),
(1116,0,l),
(1116,1462,l),
(864,1462,l),
(614,270,l),
(608,270,l),
(360,1462,l),
(113,1462,l),
(113,0,l),
(264,0,l),
(264,874,ls),
(264,1014,o),
(246,1280,q),
(254,1280,l),
(532,0,l),
(686,0,l)
);
}
);
userData = {
assembly = "NPUSHB[ ]	/* 12 values pushed */
247 19 1 182 19 1 151 19 167 19 2 19 
PUSHW[ ]	/* 1 value pushed */
-16 
NPUSHB[ ]	/* 37 values pushed */
13 17 72 39 19 1 6 19 22 19 2 233 11 249 11 2 11 32 13 22 72 58 11 1 9 11 25 11 41 11 3 230 8 246 8 2 8 
PUSHW[ ]	/* 1 value pushed */
-32 
NPUSHB[ ]	/* 77 values pushed */
13 22 72 53 8 1 6 8 22 8 38 8 3 248 0 1 185 0 1 152 0 168 0 2 0 16 13 17 72 40 0 1 9 0 25 0 2 17 14 250 224 13 240 13 2 15 13 1 13 21 2 5 250 0 6 16 6 64 6 80 6 4 6 11 1 7 3 18 2 14 89 9 1 9 6 0 18 
SVTCA[0]	/* SetFreedomAndProjectionVectorToAxis */
MIAP[1]	/* MoveIndirectAbsPt */
SHP[0]	/* ShiftPointByLastPoint */
SHP[0]	/* ShiftPointByLastPoint */
DELTAP1[ ]	/* DeltaExceptionP1 */
SHP[0]	/* ShiftPointByLastPoint */
MDAP[0]	/* MoveDirectAbsPt */
SHP[1]	/* ShiftPointByLastPoint */
MIAP[1]	/* MoveIndirectAbsPt */
SHP[1]	/* ShiftPointByLastPoint */
SHP[1]	/* ShiftPointByLastPoint */
SVTCA[1]	/* SetFreedomAndProjectionVectorToAxis */
MDAP[1]	/* MoveDirectAbsPt */
DELTAP1[ ]	/* DeltaExceptionP1 */
MIRP[00001]	/* MoveIndirectRelPt */
SHP[0]	/* ShiftPointByLastPoint */
SRP0[ ]	/* SetRefPoint0 */
MDRP[11110]	/* MoveDirectRelPt */
DELTAP1[ ]	/* DeltaExceptionP1 */
DELTAP1[ ]	/* DeltaExceptionP1 */
MIRP[00001]	/* MoveIndirectRelPt */
SHP[0]	/* ShiftPointByLastPoint */
IUP[1]	/* InterpolateUntPts */
IUP[0]	/* InterpolateUntPts */
DELTAP1[ ]	/* DeltaExceptionP1 */
DELTAP1[ ]	/* DeltaExceptionP1 */
CALL[ ]	/* CallFunction */
DELTAP1[ ]	/* DeltaExceptionP1 */
DELTAP1[ ]	/* DeltaExceptionP1 */
DELTAP1[ ]	/* DeltaExceptionP1 */
DELTAP1[ ]	/* DeltaExceptionP1 */
DELTAP1[ ]	/* DeltaExceptionP1 */
CALL[ ]	/* CallFunction */
DELTAP1[ ]	/* DeltaExceptionP1 */
DELTAP1[ ]	/* DeltaExceptionP1 */
DELTAP1[ ]	/* DeltaExceptionP1 */
CALL[ ]	/* CallFunction */
DELTAP1[ ]	/* DeltaExceptionP1 */
DELTAP1[ ]	/* DeltaExceptionP1 */
DELTAP1[ ]	/* DeltaExceptionP1 */
CALL[ ]	/* CallFunction */
DELTAP1[ ]	/* DeltaExceptionP1 */
DELTAP1[ ]	/* DeltaExceptionP1 */
DELTAP1[ ]	/* DeltaExceptionP1 */";
};
width = 1229;
}
);
note = uni004D;
unicode = 77;
},
{
glyphname = N;
layers = (
{
layerId = m01;
shapes = (
{
closed = 1;
nodes = (
(918,1462,l),
(918,662,ls),
(918,561,o),
(932,258,q),
(926,258,l),
(348,1462,l),
(135,1462,l),
(135,0,l),
(307,0,l),
(307,793,ls),
(307,933,o),
(289,1210,q),
(297,1210,l),
(877,0,l),
(1092,0,l),
(1092,1462,l)
);
}
);
userData = {
assembly = "PUSHW[ ]	/* 2 values pushed */
9 -16 
NPUSHB[ ]	/* 78 values pushed */
16 24 72 69 9 85 9 101 9 3 52 9 1 21 9 37 9 2 6 9 1 1 16 16 24 72 74 1 90 1 106 1 3 59 1 1 26 1 42 1 2 9 1 1 1 14 251 15 17 9 6 251 0 7 224 7 240 7 3 7 14 73 2 89 2 2 2 8 3 70 10 86 10 2 10 7 0 18 
SVTCA[0]	/* SetFreedomAndProjectionVectorToAxis */
MIAP[1]	/* MoveIndirectAbsPt */
SHP[0]	/* ShiftPointByLastPoint */
SHP[0]	/* ShiftPointByLastPoint */
DELTAP1[ ]	/* DeltaExceptionP1 */
MIAP[1]	/* MoveIndirectAbsPt */
SHP[1]	/* ShiftPointByLastPoint */
DELTAP1[ ]	/* DeltaExceptionP1 */
SHP[1]	/* ShiftPointByLastPoint */
SVTCA[1]	/* SetFreedomAndProjectionVectorToAxis */
MDAP[1]	/* MoveDirectAbsPt */
DELTAP1[ ]	/* DeltaExceptionP1 */
MIRP[00001]	/* MoveIndirectRelPt */
SHP[0]	/* ShiftPointByLastPoint */
SRP0[ ]	/* SetRefPoint0 */
MDRP[11110]	/* MoveDirectRelPt */
MIRP[00001]	/* MoveIndirectRelPt */
SHP[0]	/* ShiftPointByLastPoint */
IUP[1]	/* InterpolateUntPts */
IUP[0]	/* InterpolateUntPts */
DELTAP1[ ]	/* DeltaExceptionP1 */
DELTAP1[ ]	/* DeltaExceptionP1 */
DELTAP1[ ]	/* DeltaExceptionP1 */
DELTAP1[ ]	/* DeltaExceptionP1 */
CALL[ ]	/* CallFunction */
DELTAP1[ ]	/* DeltaExceptionP1 */
DELTAP1[ ]	/* DeltaExceptionP1 */
DELTAP1[ ]	/* DeltaExceptionP1 */
DELTAP1[ ]	/* DeltaExceptionP1 */
CALL[ ]	/* CallFunction */";
};
width = 1229;
}
);
note = uni004E;
unicode = 78;
},
{
glyphname = O;
layers = (
{
layerId = m01;
shapes = (
{
closed = 1;
nodes = (
(1147,372,o),
(1147,733,qs),
(1147,1094,o),
(874,1485,o),
(618,1485,qs),
(84,1485,o),
(84,735,qs),
(84,-20,o),
(616,-20,qs),
(871,-20,o)
);
},
{
closed = 1;
nodes = (
(281,733,qs),
(281,1321,o),
(618,1321,qs),
(787,1321,o),
(950,1036,o),
(950,733,qs),
(950,433,o),
(789,143,o),
(616,143,qs),
(281,143,o)
);
}
);
userData = {
assembly = "NPUSHB[ ]	/* 20 values pushed */
13 91 7 21 18 91 31 2 47 2 2 2 16 95 4 4 10 95 0 19 
SVTCA[0]	/* SetFreedomAndProjectionVectorToAxis */
MIAP[1]	/* MoveIndirectAbsPt */
MIRP[00001]	/* MoveIndirectRelPt */
MIAP[1]	/* MoveIndirectAbsPt */
MIRP[00001]	/* MoveIndirectRelPt */
SVTCA[1]	/* SetFreedomAndProjectionVectorToAxis */
MDAP[1]	/* MoveDirectAbsPt */
DELTAP1[ ]	/* DeltaExceptionP1 */
MIRP[00001]	/* MoveIndirectRelPt */
SRP0[ ]	/* SetRefPoint0 */
MDRP[11110]	/* MoveDirectRelPt */
MIRP[00001]	/* MoveIndirectRelPt */
IUP[1]	/* InterpolateUntPts */
IUP[0]	/* InterpolateUntPts */";
};
width = 1229;
}
);
note = uni004F;
unicode = 79;
},
{
glyphname = P;
layers = (
{
layerId = m01;
shapes = (
{
closed = 1;
nodes = (
(817,569,o),
(1094,815,o),
(1094,1034,qs),
(1094,1462,o),
(580,1462,qs),
(176,1462,l),
(176,0,l),
(362,0,l),
(362,569,l),
(553,569,ls)
);
},
{
closed = 1;
nodes = (
(563,1303,ls),
(901,1303,o),
(901,1024,qs),
(901,871,o),
(730,727,o),
(532,727,qs),
(362,727,l),
(362,1303,l)
);
}
);
userData = {
assembly = "NPUSHB[ ]	/* 34 values pushed */
14 91 239 6 255 6 2 6 19 10 1 90 0 2 144 2 160 2 3 2 0 96 159 10 1 10 10 1 17 96 3 3 1 18 
SVTCA[0]	/* SetFreedomAndProjectionVectorToAxis */
MIAP[1]	/* MoveIndirectAbsPt */
MIAP[1]	/* MoveIndirectAbsPt */
MIRP[00001]	/* MoveIndirectRelPt */
SRP2[ ]	/* SetRefPoint2 */
IP[ ]	/* InterpolatePts */
MDAP[1]	/* MoveDirectAbsPt */
DELTAP1[ ]	/* DeltaExceptionP1 */
MIRP[00001]	/* MoveIndirectRelPt */
SVTCA[1]	/* SetFreedomAndProjectionVectorToAxis */
MDAP[1]	/* MoveDirectAbsPt */
DELTAP1[ ]	/* DeltaExceptionP1 */
MIRP[00001]	/* MoveIndirectRelPt */
SHP[0]	/* ShiftPointByLastPoint */
SRP0[ ]	/* SetRefPoint0 */
MDRP[11110]	/* MoveDirectRelPt */
DELTAP1[ ]	/* DeltaExceptionP1 */
MIRP[00001]	/* MoveIndirectRelPt */
IUP[1]	/* InterpolateUntPts */
IUP[0]	/* InterpolateUntPts */";
};
width = 1229;
}
);
note = uni0050;
unicode = 80;
},
{
glyphname = Q;
layers = (
{
layerId = m01;
shapes = (
{
closed = 1;
nodes = (
(1147,733,qs),
(1147,1094,o),
(874,1485,o),
(618,1485,qs),
(84,1485,o),
(84,735,qs),
(84,-20,o),
(616,-20,qs),
(656,-20,o),
(692,-14,q),
(784,-243,o),
(1020,-414,q),
(1141,-272,l),
(947,-141,o),
(862,39,q),
(1147,207,o)
);
},
{
closed = 1;
nodes = (
(281,733,qs),
(281,1321,o),
(618,1321,qs),
(787,1321,o),
(950,1036,o),
(950,733,qs),
(950,433,o),
(789,143,o),
(616,143,qs),
(281,143,o)
);
}
);
userData = {
assembly = "PUSHW[ ]	/* 2 values pushed */
0 -16 
NPUSHB[ ]	/* 48 values pushed */
13 17 72 5 0 9 19 91 14 108 3 124 3 140 3 3 3 24 11 14 72 3 2 2 14 27 24 91 31 9 47 9 2 9 22 95 11 4 16 95 7 5 7 3 3 0 7 19 
SVTCA[0]	/* SetFreedomAndProjectionVectorToAxis */
MIAP[1]	/* MoveIndirectAbsPt */
SHP[1]	/* ShiftPointByLastPoint */
SHP[1]	/* ShiftPointByLastPoint */
MDAP[1]	/* MoveDirectAbsPt */
SRP1[ ]	/* SetRefPoint1 */
SHP[1]	/* ShiftPointByLastPoint */
SRP0[ ]	/* SetRefPoint0 */
MIRP[00001]	/* MoveIndirectRelPt */
MIAP[1]	/* MoveIndirectAbsPt */
MIRP[00001]	/* MoveIndirectRelPt */
SVTCA[1]	/* SetFreedomAndProjectionVectorToAxis */
MDAP[1]	/* MoveDirectAbsPt */
DELTAP1[ ]	/* DeltaExceptionP1 */
MIRP[00001]	/* MoveIndirectRelPt */
SRP0[ ]	/* SetRefPoint0 */
MDRP[01110]	/* MoveDirectRelPt */
SHP[0]	/* ShiftPointByLastPoint */
MDAP[1]	/* MoveDirectAbsPt */
SHP[1]	/* ShiftPointByLastPoint */
CALL[ ]	/* CallFunction */
DELTAP1[ ]	/* DeltaExceptionP1 */
SRP0[ ]	/* SetRefPoint0 */
MIRP[00001]	/* MoveIndirectRelPt */
SRP2[ ]	/* SetRefPoint2 */
IP[ ]	/* InterpolatePts */
IP[ ]	/* InterpolatePts */
IUP[1]	/* InterpolateUntPts */
IUP[0]	/* InterpolateUntPts */
CALL[ ]	/* CallFunction */";
};
width = 1229;
}
);
note = uni0051;
unicode = 81;
},
{
glyphname = R;
layers = (
{
layerId = m01;
shapes = (
{
closed = 1;
nodes = (
(952,0,l),
(1171,0,l),
(774,655,l),
(1063,760,o),
(1063,1047,qs),
(1063,1462,o),
(543,1462,qs),
(186,1462,l),
(186,0,l),
(373,0,l),
(373,604,l),
(602,604,l)
);
},
{
closed = 1;
nodes = (
(532,1303,ls),
(710,1303,o),
(870,1179,o),
(870,1038,qs),
(870,894,o),
(708,762,o),
(537,762,qs),
(373,762,l),
(373,1303,l)
);
}
);
userData = {
assembly = "NPUSHB[ ]	/* 75 values pushed */
43 14 1 26 14 1 11 8 16 24 72 41 11 1 24 11 1 10 8 18 24 72 41 10 1 8 10 1 10 9 16 9 9 70 8 1 11 8 1 16 91 6 64 19 22 72 6 22 12 1 90 0 2 128 2 144 2 160 2 4 2 8 3 0 96 12 12 1 20 96 3 3 10 1 18 
SVTCA[0]	/* SetFreedomAndProjectionVectorToAxis */
MIAP[1]	/* MoveIndirectAbsPt */
SHP[1]	/* ShiftPointByLastPoint */
MIAP[1]	/* MoveIndirectAbsPt */
MIRP[00001]	/* MoveIndirectRelPt */
SRP2[ ]	/* SetRefPoint2 */
IP[ ]	/* InterpolatePts */
MDAP[1]	/* MoveDirectAbsPt */
MIRP[00001]	/* MoveIndirectRelPt */
SRP1[ ]	/* SetRefPoint1 */
IP[ ]	/* InterpolatePts */
SVTCA[1]	/* SetFreedomAndProjectionVectorToAxis */
MDAP[1]	/* MoveDirectAbsPt */
DELTAP1[ ]	/* DeltaExceptionP1 */
MIRP[00001]	/* MoveIndirectRelPt */
SHP[0]	/* ShiftPointByLastPoint */
SRP0[ ]	/* SetRefPoint0 */
MDRP[11110]	/* MoveDirectRelPt */
CALL[ ]	/* CallFunction */
MIRP[00001]	/* MoveIndirectRelPt */
SRP2[ ]	/* SetRefPoint2 */
IP[ ]	/* InterpolatePts */
IP[ ]	/* InterpolatePts */
DELTAP1[ ]	/* DeltaExceptionP1 */
SHP[1]	/* ShiftPointByLastPoint */
MDAP[1]	/* MoveDirectAbsPt */
SHPIX[ ]	/* ShiftZoneByPixel */
SHP[1]	/* ShiftPointByLastPoint */
IUP[1]	/* InterpolateUntPts */
IUP[0]	/* InterpolateUntPts */
DELTAP1[ ]	/* DeltaExceptionP1 */
DELTAP1[ ]	/* DeltaExceptionP1 */
CALL[ ]	/* CallFunction */
DELTAP1[ ]	/* DeltaExceptionP1 */
DELTAP1[ ]	/* DeltaExceptionP1 */
CALL[ ]	/* CallFunction */
DELTAP1[ ]	/* DeltaExceptionP1 */
DELTAP1[ ]	/* DeltaExceptionP1 */";
};
width = 1229;
}
);
note = uni0052;
unicode = 82;
},
{
glyphname = S;
layers = (
{
layerId = m01;
shapes = (
{
closed = 1;
nodes = (
(555,-20,qs),
(810,-20,o),
(1087,199,o),
(1087,391,qs),
(1087,538,o),
(922,725,o),
(676,813,qs),
(471,884,o),
(340,1008,o),
(340,1110,qs),
(340,1319,o),
(633,1319,qs),
(800,1319,o),
(993,1241,q),
(1057,1405,l),
(870,1483,o),
(641,1483,qs),
(417,1483,o),
(160,1286,o),
(160,1112,qs),
(160,950,o),
(341,747,o),
(549,674,qs),
(764,597,o),
(905,485,o),
(905,381,qs),
(905,141,o),
(555,141,qs),
(352,141,o),
(141,227,q),
(141,49,l),
(290,-20,o)
);
}
);
userData = {
assembly = "NPUSHB[ ]	/* 31 values pushed */
16 16 5 90 176 27 192 27 2 27 33 21 90 11 0 0 0 11 1 11 21 5 14 3 96 30 19 19 95 14 4 
SVTCA[0]	/* SetFreedomAndProjectionVectorToAxis */
MIAP[1]	/* MoveIndirectAbsPt */
MIRP[00001]	/* MoveIndirectRelPt */
MIAP[1]	/* MoveIndirectAbsPt */
MIRP[00001]	/* MoveIndirectRelPt */
SRP2[ ]	/* SetRefPoint2 */
IP[ ]	/* InterpolatePts */
IP[ ]	/* InterpolatePts */
SVTCA[1]	/* SetFreedomAndProjectionVectorToAxis */
MDAP[1]	/* MoveDirectAbsPt */
DELTAP1[ ]	/* DeltaExceptionP1 */
SHP[1]	/* ShiftPointByLastPoint */
MDAP[1]	/* MoveDirectAbsPt */
SRP0[ ]	/* SetRefPoint0 */
MIRP[00001]	/* MoveIndirectRelPt */
SRP0[ ]	/* SetRefPoint0 */
MDRP[11110]	/* MoveDirectRelPt */
DELTAP1[ ]	/* DeltaExceptionP1 */
MIRP[00001]	/* MoveIndirectRelPt */
SHP[1]	/* ShiftPointByLastPoint */
MDAP[1]	/* MoveDirectAbsPt */
IUP[1]	/* InterpolateUntPts */
IUP[0]	/* InterpolateUntPts */";
};
width = 1229;
}
);
note = uni0053;
unicode = 83;
},
{
glyphname = T;
layers = (
{
layerId = m01;
shapes = (
{
closed = 1;
nodes = (
(1124,1298,l),
(1124,1462,l),
(102,1462,l),
(102,1298,l),
(520,1298,l),
(520,0,l),
(707,0,l),
(707,1298,l)
);
}
);
userData = {
assembly = "NPUSHB[ ]	/* 36 values pushed */
6 6 0 90 3 208 1 1 162 1 1 147 1 1 3 142 1 1 4 99 1 1 5 16 1 80 1 2 1 7 3 95 4 3 0 18 
SVTCA[0]	/* SetFreedomAndProjectionVectorToAxis */
MIAP[1]	/* MoveIndirectAbsPt */
MIAP[1]	/* MoveIndirectAbsPt */
MIRP[00001]	/* MoveIndirectRelPt */
SHP[0]	/* ShiftPointByLastPoint */
SVTCA[1]	/* SetFreedomAndProjectionVectorToAxis */
MDAP[1]	/* MoveDirectAbsPt */
DELTAP1[ ]	/* DeltaExceptionP1 */
SDS[ ]	/* SetDeltaShiftInGState */
DELTAP1[ ]	/* DeltaExceptionP1 */
SDS[ ]	/* SetDeltaShiftInGState */
DELTAP1[ ]	/* DeltaExceptionP1 */
SDS[ ]	/* SetDeltaShiftInGState */
DELTAP1[ ]	/* DeltaExceptionP1 */
DELTAP1[ ]	/* DeltaExceptionP1 */
DELTAP1[ ]	/* DeltaExceptionP1 */
MDRP[00110]	/* MoveDirectRelPt */
MIRP[10001]	/* MoveIndirectRelPt */
MDRP[00010]	/* MoveDirectRelPt */
MDAP[1]	/* MoveDirectAbsPt */
IUP[1]	/* InterpolateUntPts */
IUP[0]	/* InterpolateUntPts */";
};
width = 1229;
}
);
note = uni0054;
unicode = 84;
},
{
glyphname = U;
layers = (
{
layerId = m01;
shapes = (
{
closed = 1;
nodes = (
(918,532,ls),
(913,143,o),
(618,143,qs),
(311,143,o),
(311,530,qs),
(311,1462,l),
(125,1462,l),
(125,520,ls),
(125,-20,o),
(608,-20,qs),
(852,-20,o),
(1104,256,o),
(1104,516,qs),
(1104,1464,l),
(918,1464,l)
);
}
);
userData = {
assembly = "NPUSHB[ ]	/* 22 values pushed */
13 90 224 1 240 1 2 1 16 9 90 0 6 1 6 11 95 4 19 7 0 3 
SVTCA[0]	/* SetFreedomAndProjectionVectorToAxis */
MIAP[1]	/* MoveIndirectAbsPt */
SHP[0]	/* ShiftPointByLastPoint */
MIAP[1]	/* MoveIndirectAbsPt */
MIRP[00001]	/* MoveIndirectRelPt */
SVTCA[1]	/* SetFreedomAndProjectionVectorToAxis */
MDAP[1]	/* MoveDirectAbsPt */
DELTAP1[ ]	/* DeltaExceptionP1 */
MIRP[00001]	/* MoveIndirectRelPt */
SRP0[ ]	/* SetRefPoint0 */
MDRP[11110]	/* MoveDirectRelPt */
DELTAP1[ ]	/* DeltaExceptionP1 */
MIRP[00001]	/* MoveIndirectRelPt */
IUP[1]	/* InterpolateUntPts */
IUP[0]	/* InterpolateUntPts */";
};
width = 1229;
}
);
note = uni0055;
unicode = 85;
},
{
glyphname = V;
layers = (
{
layerId = m01;
shapes = (
{
closed = 1;
nodes = (
(643,346,o),
(612,201,q),
(565,408,o),
(524,535,qs),
(229,1462,l),
(33,1462,l),
(520,0,l),
(707,0,l),
(1196,1462,l),
(997,1462,l),
(705,541,ls)
);
}
);
userData = {
assembly = "NPUSHB[ ]	/* 24 values pushed */
103 5 1 184 3 1 3 8 13 17 72 41 3 1 24 3 1 9 3 1 183 2 1 2 
PUSHW[ ]	/* 1 value pushed */
-8 
NPUSHB[ ]	/* 59 values pushed */
13 17 72 38 2 1 23 2 1 6 2 1 104 0 1 232 3 1 3 231 2 1 2 8 8 4 72 0 88 0 2 42 0 1 9 0 25 0 2 0 1 1 12 71 5 87 5 2 37 5 1 6 5 22 5 2 5 4 8 
PUSHW[ ]	/* 1 value pushed */
-16 
NPUSHB[ ]	/* 14 values pushed */
11 24 72 18 8 1 8 3 1 4 3 2 3 18 
SVTCA[0]	/* SetFreedomAndProjectionVectorToAxis */
MIAP[1]	/* MoveIndirectAbsPt */
SHP[1]	/* ShiftPointByLastPoint */
MIAP[1]	/* MoveIndirectAbsPt */
SHP[1]	/* ShiftPointByLastPoint */
SRP2[ ]	/* SetRefPoint2 */
IP[ ]	/* InterpolatePts */
DELTAP1[ ]	/* DeltaExceptionP1 */
CALL[ ]	/* CallFunction */
SVTCA[1]	/* SetFreedomAndProjectionVectorToAxis */
MDAP[1]	/* MoveDirectAbsPt */
SHP[1]	/* ShiftPointByLastPoint */
DELTAP1[ ]	/* DeltaExceptionP1 */
DELTAP1[ ]	/* DeltaExceptionP1 */
DELTAP1[ ]	/* DeltaExceptionP1 */
SRP1[ ]	/* SetRefPoint1 */
SHP[1]	/* ShiftPointByLastPoint */
MDAP[1]	/* MoveDirectAbsPt */
SHP[1]	/* ShiftPointByLastPoint */
DELTAP1[ ]	/* DeltaExceptionP1 */
DELTAP1[ ]	/* DeltaExceptionP1 */
DELTAP1[ ]	/* DeltaExceptionP1 */
SRP2[ ]	/* SetRefPoint2 */
IP[ ]	/* InterpolatePts */
RTDG[ ]	/* RoundToDoubleGrid */
MDAP[1]	/* MoveDirectAbsPt */
SHP[1]	/* ShiftPointByLastPoint */
DELTAP1[ ]	/* DeltaExceptionP1 */
SHP[1]	/* ShiftPointByLastPoint */
DELTAP1[ ]	/* DeltaExceptionP1 */
IUP[1]	/* InterpolateUntPts */
IUP[0]	/* InterpolateUntPts */
DELTAP1[ ]	/* DeltaExceptionP1 */
DELTAP1[ ]	/* DeltaExceptionP1 */
DELTAP1[ ]	/* DeltaExceptionP1 */
DELTAP1[ ]	/* DeltaExceptionP1 */
CALL[ ]	/* CallFunction */
DELTAP1[ ]	/* DeltaExceptionP1 */
DELTAP1[ ]	/* DeltaExceptionP1 */
DELTAP1[ ]	/* DeltaExceptionP1 */
DELTAP1[ ]	/* DeltaExceptionP1 */
CALL[ ]	/* CallFunction */
DELTAP1[ ]	/* DeltaExceptionP1 */
DELTAP1[ ]	/* DeltaExceptionP1 */";
};
width = 1229;
}
);
note = uni0056;
unicode = 86;
},
{
glyphname = W;
layers = (
{
layerId = m01;
shapes = (
{
closed = 1;
nodes = (
(341,331,o),
(317,180,q),
(317,219,o),
(283,623,o),
(260,799,qs),
(172,1462,l),
(2,1462,l),
(205,0,l),
(395,0,l),
(551,578,ls),
(584,689,o),
(616,862,q),
(642,718,o),
(682,580,qs),
(850,0,l),
(1040,0,l),
(1227,1462,l),
(1057,1462,l),
(987,799,ls),
(924,233,o),
(922,180,q),
(911,268,o),
(850,487,qs),
(705,1008,l),
(528,1008,l),
(387,492,ls)
);
}
);
userData = {
assembly = "NPUSHB[ ]	/* 84 values pushed */
41 25 57 25 2 8 25 24 25 2 39 21 1 21 21 1 6 21 1 7 20 23 20 39 20 3 38 16 54 16 2 41 10 57 10 2 40 6 1 25 6 1 8 6 1 38 2 54 2 2 7 2 23 2 2 72 17 104 17 168 17 184 17 4 41 17 57 17 2 17 231 16 247 16 2 198 16 214 16 2 180 16 1 16 
PUSHW[ ]	/* 1 value pushed */
-16 
NPUSHB[ ]	/* 33 values pushed */
15 19 72 84 16 1 69 16 1 16 23 230 1 1 199 1 215 1 2 165 1 181 1 2 150 1 1 119 1 135 1 2 1 
PUSHW[ ]	/* 1 value pushed */
-16 
NPUSHB[ ]	/* 140 values pushed */
9 15 72 1 233 0 1 200 0 216 0 2 170 0 186 0 2 153 0 1 120 0 136 0 2 0 16 9 15 72 0 13 232 10 248 10 2 201 10 217 10 2 187 10 1 136 10 168 10 2 105 10 121 10 2 91 10 1 74 10 1 10 103 9 167 9 183 9 3 38 9 54 9 70 9 3 9 4 36 23 52 23 148 23 164 23 4 4 4 20 4 100 4 196 4 212 4 5 23 13 4 4 13 23 3 18 40 7 1 7 16 8 1 8 8 27 39 19 1 19 18 4 23 75 13 91 13 2 13 23 17 0 0 7 10 17 18 18 7 3 
SVTCA[0]	/* SetFreedomAndProjectionVectorToAxis */
MIAP[1]	/* MoveIndirectAbsPt */
SHP[1]	/* ShiftPointByLastPoint */
MIAP[1]	/* MoveIndirectAbsPt */
SHP[1]	/* ShiftPointByLastPoint */
SRP2[ ]	/* SetRefPoint2 */
IP[ ]	/* InterpolatePts */
MDAP[1]	/* MoveDirectAbsPt */
SRP2[ ]	/* SetRefPoint2 */
IP[ ]	/* InterpolatePts */
IP[ ]	/* InterpolatePts */
DELTAP1[ ]	/* DeltaExceptionP1 */
SRP1[ ]	/* SetRefPoint1 */
SHP[1]	/* ShiftPointByLastPoint */
SVTCA[1]	/* SetFreedomAndProjectionVectorToAxis */
MDAP[1]	/* MoveDirectAbsPt */
SHP[1]	/* ShiftPointByLastPoint */
DELTAP1[ ]	/* DeltaExceptionP1 */
SRP1[ ]	/* SetRefPoint1 */
SHP[1]	/* ShiftPointByLastPoint */
MDAP[1]	/* MoveDirectAbsPt */
DELTAP1[ ]	/* DeltaExceptionP1 */
SHP[1]	/* ShiftPointByLastPoint */
DELTAP1[ ]	/* DeltaExceptionP1 */
SRP2[ ]	/* SetRefPoint2 */
SLOOP[ ]	/* SetLoopVariable */
IP[ ]	/* InterpolatePts */
RTDG[ ]	/* RoundToDoubleGrid */
MDAP[1]	/* MoveDirectAbsPt */
MDAP[1]	/* MoveDirectAbsPt */
MDAP[1]	/* MoveDirectAbsPt */
DELTAP1[ ]	/* DeltaExceptionP1 */
DELTAP1[ ]	/* DeltaExceptionP1 */
SRP1[ ]	/* SetRefPoint1 */
SHP[1]	/* ShiftPointByLastPoint */
DELTAP1[ ]	/* DeltaExceptionP1 */
DELTAP1[ ]	/* DeltaExceptionP1 */
SHP[1]	/* ShiftPointByLastPoint */
DELTAP1[ ]	/* DeltaExceptionP1 */
DELTAP1[ ]	/* DeltaExceptionP1 */
DELTAP1[ ]	/* DeltaExceptionP1 */
DELTAP1[ ]	/* DeltaExceptionP1 */
DELTAP1[ ]	/* DeltaExceptionP1 */
DELTAP1[ ]	/* DeltaExceptionP1 */
DELTAP1[ ]	/* DeltaExceptionP1 */
SRP1[ ]	/* SetRefPoint1 */
SHP[1]	/* ShiftPointByLastPoint */
CALL[ ]	/* CallFunction */
DELTAP1[ ]	/* DeltaExceptionP1 */
DELTAP1[ ]	/* DeltaExceptionP1 */
DELTAP1[ ]	/* DeltaExceptionP1 */
DELTAP1[ ]	/* DeltaExceptionP1 */
DELTAP1[ ]	/* DeltaExceptionP1 */
SHP[1]	/* ShiftPointByLastPoint */
CALL[ ]	/* CallFunction */
DELTAP1[ ]	/* DeltaExceptionP1 */
DELTAP1[ ]	/* DeltaExceptionP1 */
DELTAP1[ ]	/* DeltaExceptionP1 */
DELTAP1[ ]	/* DeltaExceptionP1 */
DELTAP1[ ]	/* DeltaExceptionP1 */
SRP1[ ]	/* SetRefPoint1 */
SHP[1]	/* ShiftPointByLastPoint */
DELTAP1[ ]	/* DeltaExceptionP1 */
DELTAP1[ ]	/* DeltaExceptionP1 */
CALL[ ]	/* CallFunction */
DELTAP1[ ]	/* DeltaExceptionP1 */
DELTAP1[ ]	/* DeltaExceptionP1 */
DELTAP1[ ]	/* DeltaExceptionP1 */
SHP[1]	/* ShiftPointByLastPoint */
DELTAP1[ ]	/* DeltaExceptionP1 */
DELTAP1[ ]	/* DeltaExceptionP1 */
IUP[1]	/* InterpolateUntPts */
IUP[0]	/* InterpolateUntPts */
DELTAP1[ ]	/* DeltaExceptionP1 */
DELTAP1[ ]	/* DeltaExceptionP1 */
DELTAP1[ ]	/* DeltaExceptionP1 */
DELTAP1[ ]	/* DeltaExceptionP1 */
DELTAP1[ ]	/* DeltaExceptionP1 */
DELTAP1[ ]	/* DeltaExceptionP1 */
DELTAP1[ ]	/* DeltaExceptionP1 */
DELTAP1[ ]	/* DeltaExceptionP1 */
DELTAP1[ ]	/* DeltaExceptionP1 */
DELTAP1[ ]	/* DeltaExceptionP1 */
DELTAP1[ ]	/* DeltaExceptionP1 */
DELTAP1[ ]	/* DeltaExceptionP1 */
DELTAP1[ ]	/* DeltaExceptionP1 */";
};
width = 1229;
}
);
note = uni0057;
unicode = 87;
},
{
glyphname = X;
layers = (
{
layerId = m01;
shapes = (
{
closed = 1;
nodes = (
(1139,1462,l),
(948,1462,l),
(614,903,l),
(283,1462,l),
(84,1462,l),
(506,764,l),
(53,0,l),
(242,0,l),
(608,635,l),
(963,0,l),
(1174,0,l),
(717,770,l)
);
}
);
userData = {
assembly = "NPUSHB[ ]	/* 36 values pushed */
8 8 9 11 11 10 0 7 0 5 5 4 2 2 3 1 6 1 8 8 7 5 5 6 4 9 4 11 11 0 2 2 1 3 10 7 
PUSHW[ ]	/* 1 value pushed */
-8 
NPUSHB[ ]	/* 23 values pushed */
12 15 72 6 7 22 7 38 7 3 9 8 12 15 72 9 9 25 9 41 9 3 3 
PUSHW[ ]	/* 1 value pushed */
-8 
NPUSHB[ ]	/* 60 values pushed */
12 15 72 6 3 22 3 38 3 3 1 8 12 15 72 9 1 25 1 41 1 3 11 8 2 5 4 4 9 10 1 10 175 0 1 0 0 13 7 6 3 6 4 2 5 11 8 4 7 9 10 3 6 3 1 3 4 3 0 18 
SVTCA[0]	/* SetFreedomAndProjectionVectorToAxis */
MIAP[1]	/* MoveIndirectAbsPt */
SLOOP[ ]	/* SetLoopVariable */
SHP[0]	/* ShiftPointByLastPoint */
MIAP[1]	/* MoveIndirectAbsPt */
SLOOP[ ]	/* SetLoopVariable */
SHP[1]	/* ShiftPointByLastPoint */
SLOOP[ ]	/* SetLoopVariable */
IP[ ]	/* InterpolatePts */
SVTCA[1]	/* SetFreedomAndProjectionVectorToAxis */
MDAP[1]	/* MoveDirectAbsPt */
SHP[1]	/* ShiftPointByLastPoint */
SHP[1]	/* ShiftPointByLastPoint */
MDAP[1]	/* MoveDirectAbsPt */
SHP[1]	/* ShiftPointByLastPoint */
SRP1[ ]	/* SetRefPoint1 */
SHP[1]	/* ShiftPointByLastPoint */
MDAP[1]	/* MoveDirectAbsPt */
DELTAP1[ ]	/* DeltaExceptionP1 */
SHP[0]	/* ShiftPointByLastPoint */
SHP[0]	/* ShiftPointByLastPoint */
MDAP[1]	/* MoveDirectAbsPt */
SHP[1]	/* ShiftPointByLastPoint */
SRP1[ ]	/* SetRefPoint1 */
SLOOP[ ]	/* SetLoopVariable */
IP[ ]	/* InterpolatePts */
DELTAP1[ ]	/* DeltaExceptionP1 */
CALL[ ]	/* CallFunction */
DELTAP1[ ]	/* DeltaExceptionP1 */
CALL[ ]	/* CallFunction */
DELTAP1[ ]	/* DeltaExceptionP1 */
CALL[ ]	/* CallFunction */
DELTAP1[ ]	/* DeltaExceptionP1 */
CALL[ ]	/* CallFunction */
IUP[1]	/* InterpolateUntPts */
IUP[0]	/* InterpolateUntPts */
SDPVTL[1]	/* SetDualPVectorToLine */
SFVTL[0]	/* SetFVectorToLine */
MDRP[00000]	/* MoveDirectRelPt */
SFVTL[0]	/* SetFVectorToLine */
MDRP[00000]	/* MoveDirectRelPt */
SRP0[ ]	/* SetRefPoint0 */
SDPVTL[1]	/* SetDualPVectorToLine */
SFVTL[0]	/* SetFVectorToLine */
MDRP[00000]	/* MoveDirectRelPt */
SFVTL[0]	/* SetFVectorToLine */
MDRP[00000]	/* MoveDirectRelPt */
SRP0[ ]	/* SetRefPoint0 */
SDPVTL[1]	/* SetDualPVectorToLine */
SFVTL[0]	/* SetFVectorToLine */
MDRP[00000]	/* MoveDirectRelPt */
SFVTL[0]	/* SetFVectorToLine */
MDRP[00000]	/* MoveDirectRelPt */
SRP0[ ]	/* SetRefPoint0 */
SDPVTL[1]	/* SetDualPVectorToLine */
SFVTL[0]	/* SetFVectorToLine */
MDRP[00000]	/* MoveDirectRelPt */
SFVTL[0]	/* SetFVectorToLine */
MDRP[00000]	/* MoveDirectRelPt */";
};
width = 1229;
}
);
note = uni0058;
unicode = 88;
},
{
glyphname = Y;
layers = (
{
layerId = m01;
shapes = (
{
closed = 1;
nodes = (
(33,1462,l),
(520,559,l),
(520,0,l),
(707,0,l),
(707,569,l),
(1194,1462,l),
(993,1462,l),
(612,723,l),
(236,1462,l)
);
}
);
userData = {
assembly = "PUSHW[ ]	/* 2 values pushed */
8 -8 
NPUSHB[ ]	/* 36 values pushed */
13 16 72 38 8 54 8 2 23 8 1 104 1 120 1 2 90 1 1 72 1 1 41 1 57 1 2 24 1 1 39 0 183 0 2 0 
PUSHW[ ]	/* 1 value pushed */
-8 
PUSHB[ ]	/* 4 values pushed */
13 17 72 8 
PUSHW[ ]	/* 1 value pushed */
-8 
NPUSHB[ ]	/* 74 values pushed */
20 24 72 8 175 7 255 7 2 89 7 1 7 5 1 8 20 24 72 1 224 2 240 2 2 123 2 1 80 2 1 2 2 0 4 90 208 5 1 162 5 1 147 5 1 3 142 5 1 4 99 5 1 5 16 5 80 5 2 5 6 6 52 0 1 0 3 3 1 4 18 7 1 3 
SVTCA[0]	/* SetFreedomAndProjectionVectorToAxis */
MIAP[1]	/* MoveIndirectAbsPt */
SHP[1]	/* ShiftPointByLastPoint */
MIAP[1]	/* MoveIndirectAbsPt */
SRP2[ ]	/* SetRefPoint2 */
IP[ ]	/* InterpolatePts */
MDAP[1]	/* MoveDirectAbsPt */
SHP[1]	/* ShiftPointByLastPoint */
DELTAP1[ ]	/* DeltaExceptionP1 */
SHP[1]	/* ShiftPointByLastPoint */
MDAP[1]	/* MoveDirectAbsPt */
SVTCA[1]	/* SetFreedomAndProjectionVectorToAxis */
MDAP[1]	/* MoveDirectAbsPt */
DELTAP1[ ]	/* DeltaExceptionP1 */
SDS[ ]	/* SetDeltaShiftInGState */
DELTAP1[ ]	/* DeltaExceptionP1 */
SDS[ ]	/* SetDeltaShiftInGState */
DELTAP1[ ]	/* DeltaExceptionP1 */
SDS[ ]	/* SetDeltaShiftInGState */
DELTAP1[ ]	/* DeltaExceptionP1 */
DELTAP1[ ]	/* DeltaExceptionP1 */
DELTAP1[ ]	/* DeltaExceptionP1 */
MIRP[10001]	/* MoveIndirectRelPt */
IP[ ]	/* InterpolatePts */
MDRP[00010]	/* MoveDirectRelPt */
MDAP[1]	/* MoveDirectAbsPt */
DELTAP1[ ]	/* DeltaExceptionP1 */
DELTAP1[ ]	/* DeltaExceptionP1 */
DELTAP1[ ]	/* DeltaExceptionP1 */
SHP[0]	/* ShiftPointByLastPoint */
CALL[ ]	/* CallFunction */
SRP0[ ]	/* SetRefPoint0 */
MDRP[00110]	/* MoveDirectRelPt */
DELTAP1[ ]	/* DeltaExceptionP1 */
DELTAP1[ ]	/* DeltaExceptionP1 */
SHP[0]	/* ShiftPointByLastPoint */
CALL[ ]	/* CallFunction */
IUP[1]	/* InterpolateUntPts */
IUP[0]	/* InterpolateUntPts */
SVTCA[0]	/* SetFreedomAndProjectionVectorToAxis */
CALL[ ]	/* CallFunction */
DELTAP1[ ]	/* DeltaExceptionP1 */
SVTCA[1]	/* SetFreedomAndProjectionVectorToAxis */
DELTAP1[ ]	/* DeltaExceptionP1 */
DELTAP1[ ]	/* DeltaExceptionP1 */
DELTAP1[ ]	/* DeltaExceptionP1 */
DELTAP1[ ]	/* DeltaExceptionP1 */
DELTAP1[ ]	/* DeltaExceptionP1 */
DELTAP1[ ]	/* DeltaExceptionP1 */
DELTAP1[ ]	/* DeltaExceptionP1 */
CALL[ ]	/* CallFunction */";
};
width = 1229;
}
);
note = uni0059;
unicode = 89;
},
{
glyphname = Z;
layers = (
{
layerId = m01;
shapes = (
{
closed = 1;
nodes = (
(311,166,l),
(1104,1317,l),
(1104,1462,l),
(123,1462,l),
(123,1296,l),
(895,1296,l),
(102,145,l),
(102,0,l),
(1124,0,l),
(1124,166,l)
);
}
);
userData = {
assembly = "NPUSHB[ ]	/* 40 values pushed */
38 8 1 7 8 23 8 2 41 3 1 8 3 24 3 2 3 7 7 0 0 1 0 0 11 8 2 4 4 2 7 4 95 5 3 2 8 95 1 18 
SVTCA[0]	/* SetFreedomAndProjectionVectorToAxis */
MIAP[1]	/* MoveIndirectAbsPt */
MIRP[00001]	/* MoveIndirectRelPt */
SHP[0]	/* ShiftPointByLastPoint */
MIAP[1]	/* MoveIndirectAbsPt */
MIRP[00001]	/* MoveIndirectRelPt */
SHP[0]	/* ShiftPointByLastPoint */
SVTCA[1]	/* SetFreedomAndProjectionVectorToAxis */
MDAP[1]	/* MoveDirectAbsPt */
SHP[1]	/* ShiftPointByLastPoint */
MDAP[1]	/* MoveDirectAbsPt */
SRP1[ ]	/* SetRefPoint1 */
SHP[1]	/* ShiftPointByLastPoint */
SRP1[ ]	/* SetRefPoint1 */
SHP[1]	/* ShiftPointByLastPoint */
MDAP[1]	/* MoveDirectAbsPt */
DELTAP1[ ]	/* DeltaExceptionP1 */
SHP[1]	/* ShiftPointByLastPoint */
MDAP[1]	/* MoveDirectAbsPt */
SHP[1]	/* ShiftPointByLastPoint */
IUP[1]	/* InterpolateUntPts */
IUP[0]	/* InterpolateUntPts */
DELTAP1[ ]	/* DeltaExceptionP1 */
DELTAP1[ ]	/* DeltaExceptionP1 */
DELTAP1[ ]	/* DeltaExceptionP1 */
DELTAP1[ ]	/* DeltaExceptionP1 */";
};
width = 1229;
}
);
note = uni005A;
unicode = 90;
},
{
glyphname = bracketleft;
layers = (
{
layerId = m01;
shapes = (
{
closed = 1;
nodes = (
(594,-174,l),
(594,1313,l),
(940,1313,l),
(940,1462,l),
(412,1462,l),
(412,-324,l),
(940,-324,l),
(940,-174,l)
);
}
);
userData = {
assembly = "NPUSHB[ ]	/* 32 values pushed */
4 0 0 1 0 0 9 6 241 127 1 143 1 191 1 207 1 223 1 5 0 1 1 1 5 245 2 248 6 245 1 249 
SVTCA[0]	/* SetFreedomAndProjectionVectorToAxis */
MIAP[1]	/* MoveIndirectAbsPt */
MIRP[00001]	/* MoveIndirectRelPt */
MIAP[1]	/* MoveIndirectAbsPt */
MIRP[00001]	/* MoveIndirectRelPt */
SVTCA[1]	/* SetFreedomAndProjectionVectorToAxis */
MDAP[1]	/* MoveDirectAbsPt */
DELTAP1[ ]	/* DeltaExceptionP1 */
DELTAP1[ ]	/* DeltaExceptionP1 */
MIRP[00001]	/* MoveIndirectRelPt */
SRP1[ ]	/* SetRefPoint1 */
SHP[1]	/* ShiftPointByLastPoint */
MDAP[1]	/* MoveDirectAbsPt */
DELTAP1[ ]	/* DeltaExceptionP1 */
SHP[1]	/* ShiftPointByLastPoint */
IUP[1]	/* InterpolateUntPts */
IUP[0]	/* InterpolateUntPts */";
};
width = 1229;
}
);
note = uni005B;
unicode = 91;
},
{
glyphname = backslash;
layers = (
{
layerId = m01;
shapes = (
{
closed = 1;
nodes = (
(838,0,l),
(1016,0,l),
(389,1462,l),
(211,1462,l)
);
}
);
userData = {
assembly = "NPUSHB[ ]	/* 12 values pushed */
2 1 1 5 0 3 3 4 2 18 0 3 
SVTCA[0]	/* SetFreedomAndProjectionVectorToAxis */
MIAP[1]	/* MoveIndirectAbsPt */
MIAP[1]	/* MoveIndirectAbsPt */
SRP1[ ]	/* SetRefPoint1 */
SVTCA[1]	/* SetFreedomAndProjectionVectorToAxis */
SHP[1]	/* ShiftPointByLastPoint */
MDAP[1]	/* MoveDirectAbsPt */
SHP[1]	/* ShiftPointByLastPoint */
SRP1[ ]	/* SetRefPoint1 */
SHP[1]	/* ShiftPointByLastPoint */
MDAP[1]	/* MoveDirectAbsPt */
SHP[1]	/* ShiftPointByLastPoint */
IUP[1]	/* InterpolateUntPts */
IUP[0]	/* InterpolateUntPts */";
};
width = 1229;
}
);
note = uni005C;
unicode = 92;
},
{
glyphname = bracketright;
layers = (
{
layerId = m01;
shapes = (
{
closed = 1;
nodes = (
(817,-324,l),
(817,1462,l),
(289,1462,l),
(289,1313,l),
(635,1313,l),
(635,-174,l),
(289,-174,l),
(289,-324,l)
);
}
);
userData = {
assembly = "PUSHB[ ]	/* 8 values pushed */
1 241 112 6 128 6 2 6 
PUSHW[ ]	/* 1 value pushed */
-64 
NPUSHB[ ]	/* 21 values pushed */
20 24 72 6 6 9 3 224 0 240 0 2 0 1 245 6 249 2 245 5 248 
SVTCA[0]	/* SetFreedomAndProjectionVectorToAxis */
MIAP[1]	/* MoveIndirectAbsPt */
MIRP[00001]	/* MoveIndirectRelPt */
MIAP[1]	/* MoveIndirectAbsPt */
MIRP[00001]	/* MoveIndirectRelPt */
SVTCA[1]	/* SetFreedomAndProjectionVectorToAxis */
MDAP[1]	/* MoveDirectAbsPt */
DELTAP1[ ]	/* DeltaExceptionP1 */
SHP[1]	/* ShiftPointByLastPoint */
SRP1[ ]	/* SetRefPoint1 */
SHP[1]	/* ShiftPointByLastPoint */
MDAP[1]	/* MoveDirectAbsPt */
CALL[ ]	/* CallFunction */
DELTAP1[ ]	/* DeltaExceptionP1 */
MIRP[00001]	/* MoveIndirectRelPt */
IUP[1]	/* InterpolateUntPts */
IUP[0]	/* InterpolateUntPts */";
};
width = 1229;
}
);
note = uni005D;
unicode = 93;
},
{
glyphname = asciicircum;
layers = (
{
layerId = m01;
shapes = (
{
closed = 1;
nodes = (
(588,1284,l),
(956,549,l),
(1118,549,l),
(637,1473,l),
(535,1473,l),
(111,549,l),
(270,549,l)
);
}
);
userData = {
assembly = "NPUSHB[ ]	/* 25 values pushed */
2 1 5 32 20 24 72 5 5 0 4 3 8 6 0 0 7 4 0 0 5 15 1 1 1 
SVTCA[0]	/* SetFreedomAndProjectionVectorToAxis */
MDAP[1]	/* MoveDirectAbsPt */
DELTAP1[ ]	/* DeltaExceptionP1 */
SHP[1]	/* ShiftPointByLastPoint */
SHP[1]	/* ShiftPointByLastPoint */
MDAP[1]	/* MoveDirectAbsPt */
SHP[0]	/* ShiftPointByLastPoint */
SRP1[ ]	/* SetRefPoint1 */
SVTCA[1]	/* SetFreedomAndProjectionVectorToAxis */
SHP[1]	/* ShiftPointByLastPoint */
MDAP[1]	/* MoveDirectAbsPt */
SHP[0]	/* ShiftPointByLastPoint */
SRP0[ ]	/* SetRefPoint0 */
MDRP[01110]	/* MoveDirectRelPt */
SHP[0]	/* ShiftPointByLastPoint */
SRP1[ ]	/* SetRefPoint1 */
IP[ ]	/* InterpolatePts */
RTDG[ ]	/* RoundToDoubleGrid */
MDAP[1]	/* MoveDirectAbsPt */
CALL[ ]	/* CallFunction */
SHP[1]	/* ShiftPointByLastPoint */
SHP[1]	/* ShiftPointByLastPoint */
IUP[1]	/* InterpolateUntPts */
IUP[0]	/* InterpolateUntPts */";
};
width = 1229;
}
);
note = uni005E;
unicode = 94;
},
{
glyphname = underscore;
lastChange = "2023-02-13 08:42:24 +0000";
layers = (
{
layerId = m01;
shapes = (
{
closed = 1;
nodes = (
(284,-184,l),
(284,-324,l),
(943,-324,l),
(943,-184,l)
);
}
);
userData = {
assembly = "PUSHB[ ]	/* 7 values pushed */
0 0 5 1 1 186 2 
SVTCA[0]	/* SetFreedomAndProjectionVectorToAxis */
MDAP[1]	/* MoveDirectAbsPt */
MIRP[00001]	/* MoveIndirectRelPt */
SVTCA[1]	/* SetFreedomAndProjectionVectorToAxis */
MDAP[1]	/* MoveDirectAbsPt */
SRP1[ ]	/* SetRefPoint1 */
SHP[1]	/* ShiftPointByLastPoint */
MDAP[1]	/* MoveDirectAbsPt */
IUP[1]	/* InterpolateUntPts */
IUP[0]	/* InterpolateUntPts */";
};
width = 1229;
}
);
note = uni005F;
unicode = 95;
},
{
glyphname = grave;
layers = (
{
layerId = m01;
shapes = (
{
closed = 1;
nodes = (
(723,1391,o),
(637,1569,q),
(418,1569,l),
(418,1548,l),
(524,1383,o),
(690,1241,q),
(811,1241,l),
(811,1268,l)
);
}
);
userData = {
assembly = "NPUSHB[ ]	/* 16 values pushed */
5 135 4 134 1 0 0 9 5 146 15 1 95 1 2 1 
SVTCA[0]	/* SetFreedomAndProjectionVectorToAxis */
MDAP[1]	/* MoveDirectAbsPt */
DELTAP1[ ]	/* DeltaExceptionP1 */
MIRP[01101]	/* MoveIndirectRelPt */
SRP1[ ]	/* SetRefPoint1 */
SVTCA[1]	/* SetFreedomAndProjectionVectorToAxis */
SHP[1]	/* ShiftPointByLastPoint */
MDAP[1]	/* MoveDirectAbsPt */
SHP[1]	/* ShiftPointByLastPoint */
MIRP[11101]	/* MoveIndirectRelPt */
MIRP[00001]	/* MoveIndirectRelPt */
IUP[1]	/* InterpolateUntPts */
IUP[0]	/* InterpolateUntPts */";
};
width = 1229;
}
);
note = uni0060;
unicode = 96;
},
{
glyphname = a;
layers = (
{
layerId = m01;
shapes = (
{
closed = 1;
nodes = (
(1026,752,ls),
(1026,944,o),
(823,1118,o),
(596,1118,qs),
(409,1118,o),
(213,1022,q),
(276,885,l),
(457,967,o),
(604,967,qs),
(848,967,o),
(848,731,qs),
(848,662,l),
(645,655,ls),
(135,639,o),
(135,307,qs),
(135,152,o),
(320,-20,o),
(483,-20,qs),
(611,-20,o),
(773,55,o),
(850,152,q),
(858,152,l),
(895,0,l),
(1026,0,l)
);
},
{
closed = 1;
nodes = (
(846,290,o),
(671,127,o),
(524,127,qs),
(324,127,o),
(324,305,qs),
(324,415,o),
(488,522,o),
(684,530,qs),
(846,537,l),
(846,438,ls)
);
}
);
userData = {
assembly = "NPUSHB[ ]	/* 38 values pushed */
11 1 33 71 143 23 159 23 2 23 35 28 72 17 0 8 16 8 2 8 8 24 82 11 11 30 16 14 80 19 16 1 30 78 5 22 0 21 
SVTCA[0]	/* SetFreedomAndProjectionVectorToAxis */
MIAP[1]	/* MoveIndirectAbsPt */
MIAP[1]	/* MoveIndirectAbsPt */
MIRP[00001]	/* MoveIndirectRelPt */
SHP[0]	/* ShiftPointByLastPoint */
MIAP[1]	/* MoveIndirectAbsPt */
MIRP[00001]	/* MoveIndirectRelPt */
SHP[1]	/* ShiftPointByLastPoint */
SRP2[ ]	/* SetRefPoint2 */
IP[ ]	/* InterpolatePts */
MDAP[1]	/* MoveDirectAbsPt */
MIRP[00001]	/* MoveIndirectRelPt */
SVTCA[1]	/* SetFreedomAndProjectionVectorToAxis */
MDAP[1]	/* MoveDirectAbsPt */
SDB[ ]	/* SetDeltaBaseInGState */
DELTAP1[ ]	/* DeltaExceptionP1 */
SHP[1]	/* ShiftPointByLastPoint */
MIRP[00001]	/* MoveIndirectRelPt */
SRP0[ ]	/* SetRefPoint0 */
MDRP[11110]	/* MoveDirectRelPt */
DELTAP1[ ]	/* DeltaExceptionP1 */
MIRP[00001]	/* MoveIndirectRelPt */
SHP[0]	/* ShiftPointByLastPoint */
SHP[0]	/* ShiftPointByLastPoint */
IUP[1]	/* InterpolateUntPts */
IUP[0]	/* InterpolateUntPts */";
};
width = 1229;
}
);
note = uni0061;
unicode = 97;
},
{
glyphname = b;
layers = (
{
layerId = m01;
shapes = (
{
closed = 1;
nodes = (
(662,-20,qs),
(862,-20,o),
(1092,281,o),
(1092,551,qs),
(1092,819,o),
(863,1118,o),
(662,1118,qs),
(447,1118,o),
(340,954,q),
(332,954,l),
(340,1099,o),
(340,1180,qs),
(340,1556,l),
(158,1556,l),
(158,0,l),
(291,0,l),
(328,139,l),
(340,139,l),
(455,-20,o)
);
},
{
closed = 1;
nodes = (
(474,967,o),
(629,967,qs),
(903,967,o),
(903,553,qs),
(903,131,o),
(631,131,qs),
(479,131,o),
(340,324,o),
(340,551,qs),
(340,779,o)
);
}
);
userData = {
assembly = "NPUSHB[ ]	/* 34 values pushed */
24 72 239 14 255 14 2 14 30 1 8 6 19 71 0 3 176 3 2 3 1 22 80 17 22 8 26 80 11 16 4 0 3 21 
SVTCA[0]	/* SetFreedomAndProjectionVectorToAxis */
MIAP[1]	/* MoveIndirectAbsPt */
MIAP[1]	/* MoveIndirectAbsPt */
MIAP[1]	/* MoveIndirectAbsPt */
MIRP[00001]	/* MoveIndirectRelPt */
SHP[0]	/* ShiftPointByLastPoint */
MIAP[1]	/* MoveIndirectAbsPt */
MIRP[00001]	/* MoveIndirectRelPt */
SHP[0]	/* ShiftPointByLastPoint */
SVTCA[1]	/* SetFreedomAndProjectionVectorToAxis */
MDAP[1]	/* MoveDirectAbsPt */
DELTAP1[ ]	/* DeltaExceptionP1 */
MIRP[00001]	/* MoveIndirectRelPt */
SHP[0]	/* ShiftPointByLastPoint */
SHP[0]	/* ShiftPointByLastPoint */
IP[ ]	/* InterpolatePts */
SRP0[ ]	/* SetRefPoint0 */
MDRP[11110]	/* MoveDirectRelPt */
DELTAP1[ ]	/* DeltaExceptionP1 */
MIRP[00001]	/* MoveIndirectRelPt */
IUP[1]	/* InterpolateUntPts */
IUP[0]	/* InterpolateUntPts */";
};
width = 1229;
}
);
note = uni0062;
unicode = 98;
},
{
glyphname = c;
layers = (
{
layerId = m01;
shapes = (
{
closed = 1;
nodes = (
(725,1118,qs),
(462,1118,o),
(172,824,o),
(172,543,qs),
(172,271,o),
(456,-20,o),
(713,-20,qs),
(908,-20,o),
(1042,41,q),
(1042,201,l),
(878,139,o),
(721,139,qs),
(360,139,o),
(360,545,qs),
(360,958,o),
(731,958,qs),
(849,958,o),
(999,901,q),
(1061,1059,l),
(903,1118,o)
);
}
);
userData = {
assembly = "NPUSHB[ ]	/* 23 values pushed */
0 0 143 9 1 9 21 5 72 0 15 1 15 3 81 1 18 16 9 7 81 12 22 
SVTCA[0]	/* SetFreedomAndProjectionVectorToAxis */
MIAP[1]	/* MoveIndirectAbsPt */
MIRP[00001]	/* MoveIndirectRelPt */
SHP[1]	/* ShiftPointByLastPoint */
MIAP[1]	/* MoveIndirectAbsPt */
SHP[1]	/* ShiftPointByLastPoint */
MIRP[00001]	/* MoveIndirectRelPt */
SVTCA[1]	/* SetFreedomAndProjectionVectorToAxis */
MDAP[1]	/* MoveDirectAbsPt */
DELTAP1[ ]	/* DeltaExceptionP1 */
MIRP[00001]	/* MoveIndirectRelPt */
SRP0[ ]	/* SetRefPoint0 */
MDRP[01110]	/* MoveDirectRelPt */
DELTAP1[ ]	/* DeltaExceptionP1 */
SHP[0]	/* ShiftPointByLastPoint */
MDAP[1]	/* MoveDirectAbsPt */
IUP[1]	/* InterpolateUntPts */
IUP[0]	/* InterpolateUntPts */";
};
width = 1229;
}
);
note = uni0063;
unicode = 99;
},
{
glyphname = d;
layers = (
{
layerId = m01;
shapes = (
{
closed = 1;
nodes = (
(1071,0,l),
(1071,1556,l),
(889,1556,l),
(889,1120,ls),
(889,1087,o),
(901,958,q),
(889,958,l),
(773,1118,o),
(567,1118,qs),
(367,1118,o),
(137,817,o),
(137,547,qs),
(137,279,o),
(366,-20,o),
(567,-20,qs),
(776,-20,o),
(889,147,q),
(897,147,l),
(924,0,l)
);
},
{
closed = 1;
nodes = (
(752,131,o),
(600,131,qs),
(326,131,o),
(326,545,qs),
(326,967,o),
(598,967,qs),
(750,967,o),
(889,774,o),
(889,547,qs),
(889,506,ls),
(885,308,o)
);
}
);
userData = {
assembly = "NPUSHB[ ]	/* 35 values pushed */
20 0 14 71 144 17 160 17 2 17 31 25 72 0 6 224 6 240 6 3 6 15 0 11 23 80 9 16 1 27 80 3 22 18 21 
SVTCA[0]	/* SetFreedomAndProjectionVectorToAxis */
MIAP[1]	/* MoveIndirectAbsPt */
MIAP[1]	/* MoveIndirectAbsPt */
MIRP[00001]	/* MoveIndirectRelPt */
SHP[0]	/* ShiftPointByLastPoint */
MIAP[1]	/* MoveIndirectAbsPt */
MIRP[00001]	/* MoveIndirectRelPt */
SHP[0]	/* ShiftPointByLastPoint */
MIAP[1]	/* MoveIndirectAbsPt */
SVTCA[1]	/* SetFreedomAndProjectionVectorToAxis */
MDAP[1]	/* MoveDirectAbsPt */
DELTAP1[ ]	/* DeltaExceptionP1 */
MIRP[00001]	/* MoveIndirectRelPt */
SRP0[ ]	/* SetRefPoint0 */
MDRP[11110]	/* MoveDirectRelPt */
DELTAP1[ ]	/* DeltaExceptionP1 */
MIRP[00001]	/* MoveIndirectRelPt */
SHP[0]	/* ShiftPointByLastPoint */
SHP[0]	/* ShiftPointByLastPoint */
IUP[1]	/* InterpolateUntPts */
IUP[0]	/* InterpolateUntPts */";
};
width = 1229;
}
);
note = uni0064;
unicode = 100;
},
{
glyphname = e;
layers = (
{
layerId = m01;
shapes = (
{
closed = 1;
nodes = (
(1096,850,o),
(843,1118,o),
(631,1118,qs),
(404,1118,o),
(133,807,o),
(133,541,qs),
(133,279,o),
(427,-20,o),
(672,-20,qs),
(870,-20,o),
(1036,55,q),
(1036,215,l),
(861,139,o),
(666,139,qs),
(330,139,o),
(322,514,q),
(1096,514,l),
(1096,627,ls)
);
},
{
closed = 1;
nodes = (
(627,967,qs),
(899,967,o),
(899,662,q),
(326,662,l),
(352,967,o)
);
}
);
userData = {
assembly = "NPUSHB[ ]	/* 44 values pushed */
19 72 5 15 0 31 0 2 0 24 18 1 72 0 11 16 11 2 16 11 32 11 2 11 1 80 15 18 31 18 2 7 18 18 3 21 80 14 16 3 81 5 8 22 
SVTCA[0]	/* SetFreedomAndProjectionVectorToAxis */
MIAP[1]	/* MoveIndirectAbsPt */
SHP[1]	/* ShiftPointByLastPoint */
MIRP[00001]	/* MoveIndirectRelPt */
MIAP[1]	/* MoveIndirectAbsPt */
MIRP[00001]	/* MoveIndirectRelPt */
SRP2[ ]	/* SetRefPoint2 */
IP[ ]	/* InterpolatePts */
MDAP[1]	/* MoveDirectAbsPt */
SDB[ ]	/* SetDeltaBaseInGState */
DELTAP1[ ]	/* DeltaExceptionP1 */
MIRP[00001]	/* MoveIndirectRelPt */
SVTCA[1]	/* SetFreedomAndProjectionVectorToAxis */
MDAP[1]	/* MoveDirectAbsPt */
DELTAP1[ ]	/* DeltaExceptionP1 */
DELTAP2[ ]	/* DeltaExceptionP2 */
MIRP[00001]	/* MoveIndirectRelPt */
SHP[0]	/* ShiftPointByLastPoint */
SRP0[ ]	/* SetRefPoint0 */
MDRP[11110]	/* MoveDirectRelPt */
DELTAP2[ ]	/* DeltaExceptionP2 */
SHP[0]	/* ShiftPointByLastPoint */
MIRP[00001]	/* MoveIndirectRelPt */
IUP[1]	/* InterpolateUntPts */
IUP[0]	/* InterpolateUntPts */";
};
width = 1229;
}
);
note = uni0065;
unicode = 101;
},
{
glyphname = f;
layers = (
{
layerId = m01;
shapes = (
{
closed = 1;
nodes = (
(655,1098,l),
(655,1202,ls),
(655,1317,o),
(743,1417,o),
(866,1417,qs),
(969,1417,o),
(1073,1389,q),
(1114,1532,l),
(991,1567,o),
(862,1567,qs),
(653,1567,o),
(473,1393,o),
(473,1200,qs),
(473,1104,l),
(156,1071,l),
(156,961,l),
(473,961,l),
(473,0,l),
(655,0,l),
(655,961,l),
(1044,961,l),
(1044,1098,l)
);
}
);
userData = {
assembly = "NPUSHB[ ]	/* 40 values pushed */
0 0 13 13 23 20 2 71 3 7 3 143 5 239 5 2 5 5 0 3 176 3 240 3 3 3 4 1 78 7 6 20 15 16 80 14 11 1 2 21 
SVTCA[0]	/* SetFreedomAndProjectionVectorToAxis */
MIAP[1]	/* MoveIndirectAbsPt */
MIAP[1]	/* MoveIndirectAbsPt */
SHP[1]	/* ShiftPointByLastPoint */
MIRP[00001]	/* MoveIndirectRelPt */
MIAP[1]	/* MoveIndirectAbsPt */
SHP[1]	/* ShiftPointByLastPoint */
SHP[1]	/* ShiftPointByLastPoint */
MIRP[00001]	/* MoveIndirectRelPt */
SHP[0]	/* ShiftPointByLastPoint */
SVTCA[1]	/* SetFreedomAndProjectionVectorToAxis */
MDAP[1]	/* MoveDirectAbsPt */
DELTAP1[ ]	/* DeltaExceptionP1 */
SHP[1]	/* ShiftPointByLastPoint */
MDAP[1]	/* MoveDirectAbsPt */
DELTAP1[ ]	/* DeltaExceptionP1 */
SRP1[ ]	/* SetRefPoint1 */
SHP[1]	/* ShiftPointByLastPoint */
SRP0[ ]	/* SetRefPoint0 */
MIRP[00001]	/* MoveIndirectRelPt */
SHP[0]	/* ShiftPointByLastPoint */
SRP1[ ]	/* SetRefPoint1 */
SHP[1]	/* ShiftPointByLastPoint */
MDAP[1]	/* MoveDirectAbsPt */
IP[ ]	/* InterpolatePts */
MDAP[1]	/* MoveDirectAbsPt */
IUP[1]	/* InterpolateUntPts */
IUP[0]	/* InterpolateUntPts */";
};
width = 1229;
}
);
note = uni0066;
unicode = 102;
},
{
glyphname = g;
layers = (
{
layerId = m01;
shapes = (
{
closed = 1;
nodes = (
(684,1118,o),
(598,1118,qs),
(401,1118,o),
(188,921,o),
(188,739,qs),
(188,638,o),
(290,467,o),
(379,430,q),
(246,350,o),
(246,238,qs),
(246,131,o),
(342,84,q),
(102,26,o),
(102,-186,qs),
(102,-331,o),
(329,-492,o),
(547,-492,qs),
(1112,-492,o),
(1112,-115,qs),
(1112,28,o),
(928,182,o),
(754,182,qs),
(567,182,ls),
(406,182,o),
(406,266,qs),
(406,343,o),
(506,399,q),
(537,393,o),
(592,393,qs),
(782,393,o),
(995,584,o),
(995,745,qs),
(995,873,o),
(930,958,q),
(1126,985,l),
(1126,1098,l),
(748,1098,l)
);
},
{
closed = 1;
nodes = (
(367,745,qs),
(367,987,o),
(592,987,qs),
(817,987,o),
(817,748,qs),
(817,518,o),
(594,518,qs),
(367,518,o)
);
},
{
closed = 1;
nodes = (
(940,-43,o),
(940,-131,qs),
(940,-354,o),
(545,-354,qs),
(274,-354,o),
(274,-180,qs),
(274,18,o),
(504,18,qs),
(692,18,ls),
(840,18,o)
);
}
);
userData = {
assembly = "NPUSHB[ ]	/* 47 values pushed */
52 17 17 2 36 9 28 4 31 39 70 1 95 4 223 4 239 4 255 4 4 4 56 11 26 26 31 48 63 22 79 22 95 22 3 22 22 43 70 128 31 144 31 160 31 3 31 
PUSHW[ ]	/* 1 value pushed */
-64 
NPUSHB[ ]	/* 29 values pushed */
6 9 72 31 28 4 34 37 82 7 7 46 41 79 34 24 46 81 13 13 34 16 50 78 19 27 2 0 15 
SVTCA[0]	/* SetFreedomAndProjectionVectorToAxis */
MIAP[1]	/* MoveIndirectAbsPt */
SHP[0]	/* ShiftPointByLastPoint */
MIAP[1]	/* MoveIndirectAbsPt */
MIRP[00001]	/* MoveIndirectRelPt */
MIAP[1]	/* MoveIndirectAbsPt */
IP[ ]	/* InterpolatePts */
MDAP[1]	/* MoveDirectAbsPt */
MIRP[00001]	/* MoveIndirectRelPt */
SHP[0]	/* ShiftPointByLastPoint */
SRP0[ ]	/* SetRefPoint0 */
MIRP[00001]	/* MoveIndirectRelPt */
SRP1[ ]	/* SetRefPoint1 */
IP[ ]	/* InterpolatePts */
MDAP[1]	/* MoveDirectAbsPt */
MIRP[00001]	/* MoveIndirectRelPt */
SRP2[ ]	/* SetRefPoint2 */
IP[ ]	/* InterpolatePts */
IP[ ]	/* InterpolatePts */
SVTCA[1]	/* SetFreedomAndProjectionVectorToAxis */
MDAP[1]	/* MoveDirectAbsPt */
CALL[ ]	/* CallFunction */
DELTAP1[ ]	/* DeltaExceptionP1 */
MIRP[00001]	/* MoveIndirectRelPt */
SHP[1]	/* ShiftPointByLastPoint */
MDAP[1]	/* MoveDirectAbsPt */
DELTAP1[ ]	/* DeltaExceptionP1 */
MDRP[00001]	/* MoveDirectRelPt */
SRP1[ ]	/* SetRefPoint1 */
SHP[1]	/* ShiftPointByLastPoint */
MDAP[1]	/* MoveDirectAbsPt */
MDRP[00001]	/* MoveDirectRelPt */
SRP0[ ]	/* SetRefPoint0 */
MDRP[11110]	/* MoveDirectRelPt */
DELTAP1[ ]	/* DeltaExceptionP1 */
SHP[0]	/* ShiftPointByLastPoint */
MIRP[00001]	/* MoveIndirectRelPt */
SRP2[ ]	/* SetRefPoint2 */
SLOOP[ ]	/* SetLoopVariable */
IP[ ]	/* InterpolatePts */
SHP[1]	/* ShiftPointByLastPoint */
MDAP[1]	/* MoveDirectAbsPt */
MDRP[00001]	/* MoveDirectRelPt */
IUP[1]	/* InterpolateUntPts */
IUP[0]	/* InterpolateUntPts */";
};
width = 1229;
}
);
note = uni0067;
unicode = 103;
},
{
glyphname = h;
layers = (
{
layerId = m01;
shapes = (
{
closed = 1;
nodes = (
(1069,717,ls),
(1069,1118,o),
(680,1118,qs),
(447,1118,o),
(344,950,q),
(334,950,l),
(342,1094,l),
(342,1556,l),
(160,1556,l),
(160,0,l),
(342,0,l),
(342,569,ls),
(342,967,o),
(649,967,qs),
(887,967,o),
(887,707,qs),
(887,0,l),
(1069,0,l)
);
}
);
userData = {
assembly = "NPUSHB[ ]	/* 38 values pushed */
36 15 52 15 2 0 71 176 17 192 17 2 17 19 10 6 71 0 7 16 7 32 7 208 7 4 7 7 4 3 80 14 16 8 0 7 0 21 
SVTCA[0]	/* SetFreedomAndProjectionVectorToAxis */
MIAP[1]	/* MoveIndirectAbsPt */
SHP[0]	/* ShiftPointByLastPoint */
MIAP[1]	/* MoveIndirectAbsPt */
MIAP[1]	/* MoveIndirectAbsPt */
MIRP[00001]	/* MoveIndirectRelPt */
SHP[0]	/* ShiftPointByLastPoint */
SVTCA[1]	/* SetFreedomAndProjectionVectorToAxis */
MDAP[1]	/* MoveDirectAbsPt */
SDB[ ]	/* SetDeltaBaseInGState */
DELTAP1[ ]	/* DeltaExceptionP1 */
MIRP[00001]	/* MoveIndirectRelPt */
SHP[0]	/* ShiftPointByLastPoint */
SRP0[ ]	/* SetRefPoint0 */
MDRP[11110]	/* MoveDirectRelPt */
DELTAP1[ ]	/* DeltaExceptionP1 */
MIRP[00001]	/* MoveIndirectRelPt */
IUP[1]	/* InterpolateUntPts */
IUP[0]	/* InterpolateUntPts */
DELTAP1[ ]	/* DeltaExceptionP1 */";
};
width = 1229;
}
);
note = uni0068;
unicode = 104;
},
{
glyphname = i;
layers = (
{
layerId = m01;
shapes = (
{
closed = 1;
nodes = (
(526,1436,qs),
(526,1321,o),
(633,1321,qs),
(676,1321,o),
(739,1378,o),
(739,1436,qs),
(739,1550,o),
(633,1550,qs),
(526,1550,o)
);
},
{
closed = 1;
nodes = (
(197,123,l),
(197,0,l),
(1075,0,l),
(1075,123,l),
(723,143,l),
(723,1098,l),
(272,1098,l),
(272,975,l),
(541,954,l),
(541,143,l)
);
}
);
userData = {
assembly = "NPUSHB[ ]	/* 28 values pushed */
14 2 13 71 7 10 17 3 86 18 1 18 18 20 19 13 18 78 16 21 9 78 11 15 5 83 0 0 
SVTCA[0]	/* SetFreedomAndProjectionVectorToAxis */
MIAP[1]	/* MoveIndirectAbsPt */
MIRP[01101]	/* MoveIndirectRelPt */
MIAP[1]	/* MoveIndirectAbsPt */
MIRP[00001]	/* MoveIndirectRelPt */
MIAP[1]	/* MoveIndirectAbsPt */
MIRP[00001]	/* MoveIndirectRelPt */
SHP[0]	/* ShiftPointByLastPoint */
SRP1[ ]	/* SetRefPoint1 */
SRP2[ ]	/* SetRefPoint2 */
SVTCA[1]	/* SetFreedomAndProjectionVectorToAxis */
IP[ ]	/* InterpolatePts */
MDAP[1]	/* MoveDirectAbsPt */
DELTAP1[ ]	/* DeltaExceptionP1 */
SLOOP[ ]	/* SetLoopVariable */
SHP[1]	/* ShiftPointByLastPoint */
MIRP[00001]	/* MoveIndirectRelPt */
SHP[0]	/* ShiftPointByLastPoint */
SHP[0]	/* ShiftPointByLastPoint */
IUP[1]	/* InterpolateUntPts */
IUP[0]	/* InterpolateUntPts */";
};
width = 1229;
}
);
note = uni0069;
unicode = 105;
},
{
glyphname = j;
layers = (
{
layerId = m01;
shapes = (
{
closed = 1;
nodes = (
(637,1436,qs),
(637,1321,o),
(743,1321,qs),
(850,1321,o),
(850,1436,qs),
(850,1550,o),
(743,1550,qs),
(637,1550,o)
);
},
{
closed = 1;
nodes = (
(422,-492,qs),
(628,-492,o),
(854,-297,o),
(854,-117,qs),
(854,1098,l),
(252,1098,l),
(252,975,l),
(672,954,l),
(672,-127,ls),
(672,-228,o),
(541,-342,o),
(424,-342,qs),
(269,-342,o),
(135,-303,q),
(135,-457,l),
(258,-492,o)
);
}
);
userData = {
assembly = "NPUSHB[ ]	/* 32 values pushed */
16 8 6 14 71 2 144 19 160 19 2 19 19 25 24 0 8 1 8 11 80 9 22 27 15 78 18 15 4 83 0 0 
SVTCA[0]	/* SetFreedomAndProjectionVectorToAxis */
MIAP[1]	/* MoveIndirectAbsPt */
MIRP[00101]	/* MoveIndirectRelPt */
MIAP[1]	/* MoveIndirectAbsPt */
MIRP[00001]	/* MoveIndirectRelPt */
MIAP[1]	/* MoveIndirectAbsPt */
SHP[1]	/* ShiftPointByLastPoint */
MIRP[00001]	/* MoveIndirectRelPt */
SVTCA[1]	/* SetFreedomAndProjectionVectorToAxis */
MDAP[1]	/* MoveDirectAbsPt */
DELTAP1[ ]	/* DeltaExceptionP1 */
SRP1[ ]	/* SetRefPoint1 */
SRP2[ ]	/* SetRefPoint2 */
IP[ ]	/* InterpolatePts */
MDAP[1]	/* MoveDirectAbsPt */
DELTAP1[ ]	/* DeltaExceptionP1 */
SHP[1]	/* ShiftPointByLastPoint */
MIRP[00001]	/* MoveIndirectRelPt */
SHP[0]	/* ShiftPointByLastPoint */
SRP1[ ]	/* SetRefPoint1 */
IP[ ]	/* InterpolatePts */
IUP[1]	/* InterpolateUntPts */
IUP[0]	/* InterpolateUntPts */";
};
width = 1229;
}
);
note = uni006A;
unicode = 106;
},
{
glyphname = k;
layers = (
{
layerId = m01;
shapes = (
{
closed = 1;
nodes = (
(395,842,l),
(395,1556,l),
(215,1556,l),
(215,0,l),
(395,0,l),
(395,422,l),
(524,504,l),
(950,0,l),
(1163,0,l),
(641,623,l),
(1135,1098,l),
(913,1098,l),
(518,705,l),
(383,553,l),
(379,553,l)
);
}
);
userData = {
assembly = "NPUSHB[ ]	/* 11 values pushed */
25 6 41 6 57 6 3 8 6 1 4 
PUSHW[ ]	/* 1 value pushed */
-32 
NPUSHB[ ]	/* 62 values pushed */
16 20 72 70 4 86 4 2 9 2 1 9 1 1 27 7 43 7 59 7 3 4 7 2 3 3 6 5 32 16 19 72 0 5 96 5 2 5 5 16 12 0 9 71 0 10 96 10 2 10 11 0 4 7 0 7 2 10 5 21 2 15 
SVTCA[0]	/* SetFreedomAndProjectionVectorToAxis */
MIAP[1]	/* MoveIndirectAbsPt */
MIAP[1]	/* MoveIndirectAbsPt */
SHP[1]	/* ShiftPointByLastPoint */
SRP2[ ]	/* SetRefPoint2 */
IP[ ]	/* InterpolatePts */
IP[ ]	/* InterpolatePts */
SRP1[ ]	/* SetRefPoint1 */
SHP[1]	/* ShiftPointByLastPoint */
MIAP[1]	/* MoveIndirectAbsPt */
SVTCA[1]	/* SetFreedomAndProjectionVectorToAxis */
MDAP[1]	/* MoveDirectAbsPt */
DELTAP1[ ]	/* DeltaExceptionP1 */
MIRP[00001]	/* MoveIndirectRelPt */
SHP[0]	/* ShiftPointByLastPoint */
SHP[0]	/* ShiftPointByLastPoint */
SRP1[ ]	/* SetRefPoint1 */
SHP[1]	/* ShiftPointByLastPoint */
MDAP[1]	/* MoveDirectAbsPt */
DELTAP1[ ]	/* DeltaExceptionP1 */
CALL[ ]	/* CallFunction */
SHP[1]	/* ShiftPointByLastPoint */
SHP[1]	/* ShiftPointByLastPoint */
MDAP[1]	/* MoveDirectAbsPt */
SHP[1]	/* ShiftPointByLastPoint */
IP[ ]	/* InterpolatePts */
IP[ ]	/* InterpolatePts */
IUP[1]	/* InterpolateUntPts */
IUP[0]	/* InterpolateUntPts */
SVTCA[0]	/* SetFreedomAndProjectionVectorToAxis */
DELTAP1[ ]	/* DeltaExceptionP1 */
SVTCA[1]	/* SetFreedomAndProjectionVectorToAxis */
DELTAP1[ ]	/* DeltaExceptionP1 */
DELTAP1[ ]	/* DeltaExceptionP1 */
DELTAP1[ ]	/* DeltaExceptionP1 */
CALL[ ]	/* CallFunction */
DELTAP1[ ]	/* DeltaExceptionP1 */
DELTAP1[ ]	/* DeltaExceptionP1 */";
};
width = 1229;
}
);
note = uni006B;
unicode = 107;
},
{
glyphname = l;
layers = (
{
layerId = m01;
shapes = (
{
closed = 1;
nodes = (
(188,123,l),
(188,0,l),
(1067,0,l),
(1067,123,l),
(715,143,l),
(715,1556,l),
(264,1556,l),
(264,1434,l),
(532,1413,l),
(532,143,l)
);
}
);
userData = {
assembly = "NPUSHB[ ]	/* 24 values pushed */
5 4 71 8 1 93 9 1 79 9 1 9 9 11 10 9 4 78 6 21 0 78 2 0 
SVTCA[0]	/* SetFreedomAndProjectionVectorToAxis */
MIAP[1]	/* MoveIndirectAbsPt */
MIRP[00001]	/* MoveIndirectRelPt */
MIAP[1]	/* MoveIndirectAbsPt */
MIRP[00001]	/* MoveIndirectRelPt */
SHP[0]	/* ShiftPointByLastPoint */
SRP1[ ]	/* SetRefPoint1 */
SRP2[ ]	/* SetRefPoint2 */
SVTCA[1]	/* SetFreedomAndProjectionVectorToAxis */
IP[ ]	/* InterpolatePts */
MDAP[1]	/* MoveDirectAbsPt */
DELTAP1[ ]	/* DeltaExceptionP1 */
DELTAP1[ ]	/* DeltaExceptionP1 */
SHP[1]	/* ShiftPointByLastPoint */
SHP[1]	/* ShiftPointByLastPoint */
MIRP[00001]	/* MoveIndirectRelPt */
SHP[0]	/* ShiftPointByLastPoint */
IUP[1]	/* InterpolateUntPts */
IUP[0]	/* InterpolateUntPts */";
};
width = 1229;
}
);
note = uni006C;
unicode = 108;
},
{
glyphname = m;
layers = (
{
layerId = m01;
shapes = (
{
closed = 1;
nodes = (
(1139,717,ls),
(1139,933,o),
(1023,1118,o),
(895,1118,qs),
(752,1118,o),
(676,936,q),
(670,936,l),
(620,1118,o),
(457,1118,qs),
(323,1118,o),
(256,950,q),
(246,950,l),
(219,1098,l),
(92,1098,l),
(92,0,l),
(254,0,l),
(254,569,ls),
(254,808,o),
(326,967,o),
(410,967,qs),
(535,967,o),
(535,707,qs),
(535,0,l),
(696,0,l),
(696,606,ls),
(696,801,o),
(775,967,o),
(862,967,qs),
(924,967,o),
(977,853,o),
(977,707,qs),
(977,0,l),
(1139,0,l)
);
}
);
userData = {
assembly = "NPUSHB[ ]	/* 69 values pushed */
25 133 8 1 118 8 1 101 8 1 86 8 1 55 8 71 8 2 8 71 139 9 1 122 9 1 9 9 17 0 71 144 32 160 32 192 32 208 32 4 15 32 1 32 34 20 16 71 64 17 80 17 2 17 26 20 17 4 12 80 28 23 16 18 15 17 9 0 21 
SVTCA[0]	/* SetFreedomAndProjectionVectorToAxis */
MIAP[1]	/* MoveIndirectAbsPt */
SHP[0]	/* ShiftPointByLastPoint */
SHP[0]	/* ShiftPointByLastPoint */
MIAP[1]	/* MoveIndirectAbsPt */
MIAP[1]	/* MoveIndirectAbsPt */
SHP[1]	/* ShiftPointByLastPoint */
MIRP[00001]	/* MoveIndirectRelPt */
SHP[0]	/* ShiftPointByLastPoint */
SRP2[ ]	/* SetRefPoint2 */
IP[ ]	/* InterpolatePts */
IP[ ]	/* InterpolatePts */
SVTCA[1]	/* SetFreedomAndProjectionVectorToAxis */
MDAP[1]	/* MoveDirectAbsPt */
DELTAP1[ ]	/* DeltaExceptionP1 */
MIRP[00001]	/* MoveIndirectRelPt */
SHP[0]	/* ShiftPointByLastPoint */
SRP0[ ]	/* SetRefPoint0 */
MDRP[11110]	/* MoveDirectRelPt */
DELTAP1[ ]	/* DeltaExceptionP1 */
DELTAP1[ ]	/* DeltaExceptionP1 */
MIRP[00001]	/* MoveIndirectRelPt */
SRP1[ ]	/* SetRefPoint1 */
IP[ ]	/* InterpolatePts */
MDAP[1]	/* MoveDirectAbsPt */
DELTAP1[ ]	/* DeltaExceptionP1 */
DELTAP1[ ]	/* DeltaExceptionP1 */
MIRP[00001]	/* MoveIndirectRelPt */
DELTAP1[ ]	/* DeltaExceptionP1 */
DELTAP1[ ]	/* DeltaExceptionP1 */
DELTAP1[ ]	/* DeltaExceptionP1 */
DELTAP1[ ]	/* DeltaExceptionP1 */
DELTAP1[ ]	/* DeltaExceptionP1 */
SHP[0]	/* ShiftPointByLastPoint */
IUP[1]	/* InterpolateUntPts */
IUP[0]	/* InterpolateUntPts */";
};
width = 1229;
}
);
note = uni006D;
unicode = 109;
},
{
glyphname = n;
lastChange = "2023-08-07 11:46:26 +0000";
layers = (
{
layerId = m01;
shapes = (
{
closed = 1;
nodes = (
(1069,717,ls),
(1069,1118,o),
(680,1118,qs),
(447,1118,o),
(344,950,q),
(334,950,l),
(307,1098,l),
(160,1098,l),
(160,0,l),
(342,0,l),
(342,569,ls),
(342,967,o),
(649,967,qs),
(887,967,o),
(887,707,qs),
(887,0,l),
(1069,0,l)
);
}
);
userData = {
assembly = "NPUSHB[ ]	/* 33 values pushed */
0 71 176 16 192 16 2 16 18 10 6 71 0 7 16 7 32 7 208 7 4 7 7 11 3 80 13 16 8 15 7 0 21 
SVTCA[0]	/* SetFreedomAndProjectionVectorToAxis */
MIAP[1]	/* MoveIndirectAbsPt */
SHP[0]	/* ShiftPointByLastPoint */
MIAP[1]	/* MoveIndirectAbsPt */
MIAP[1]	/* MoveIndirectAbsPt */
MIRP[00001]	/* MoveIndirectRelPt */
SHP[0]	/* ShiftPointByLastPoint */
SVTCA[1]	/* SetFreedomAndProjectionVectorToAxis */
MDAP[1]	/* MoveDirectAbsPt */
SDB[ ]	/* SetDeltaBaseInGState */
DELTAP1[ ]	/* DeltaExceptionP1 */
MIRP[00001]	/* MoveIndirectRelPt */
SHP[0]	/* ShiftPointByLastPoint */
SRP0[ ]	/* SetRefPoint0 */
MDRP[11110]	/* MoveDirectRelPt */
DELTAP1[ ]	/* DeltaExceptionP1 */
MIRP[00001]	/* MoveIndirectRelPt */
IUP[1]	/* InterpolateUntPts */
IUP[0]	/* InterpolateUntPts */";
};
width = 1229;
}
);
note = uni006E;
unicode = 110;
},
{
glyphname = o;
layers = (
{
layerId = m01;
shapes = (
{
closed = 1;
nodes = (
(1112,286,o),
(1112,551,qs),
(1112,808,o),
(834,1118,o),
(616,1118,qs),
(386,1118,o),
(115,814,o),
(115,551,qs),
(115,291,o),
(394,-20,o),
(610,-20,qs),
(838,-20,o)
);
},
{
closed = 1;
nodes = (
(303,551,qs),
(303,967,o),
(612,967,qs),
(924,967,o),
(924,551,qs),
(924,131,o),
(614,131,qs),
(303,131,o)
);
}
);
userData = {
assembly = "NPUSHB[ ]	/* 18 values pushed */
14 72 9 21 18 72 0 3 1 3 16 80 6 16 12 80 0 22 
SVTCA[0]	/* SetFreedomAndProjectionVectorToAxis */
MIAP[1]	/* MoveIndirectAbsPt */
MIRP[00001]	/* MoveIndirectRelPt */
MIAP[1]	/* MoveIndirectAbsPt */
MIRP[00001]	/* MoveIndirectRelPt */
SVTCA[1]	/* SetFreedomAndProjectionVectorToAxis */
MDAP[1]	/* MoveDirectAbsPt */
DELTAP1[ ]	/* DeltaExceptionP1 */
MIRP[00001]	/* MoveIndirectRelPt */
SRP0[ ]	/* SetRefPoint0 */
MDRP[11110]	/* MoveDirectRelPt */
MIRP[00001]	/* MoveIndirectRelPt */
IUP[1]	/* InterpolateUntPts */
IUP[0]	/* InterpolateUntPts */";
};
width = 1229;
}
);
note = uni006F;
unicode = 111;
},
{
glyphname = p;
layers = (
{
layerId = m01;
shapes = (
{
closed = 1;
nodes = (
(662,-20,qs),
(862,-20,o),
(1092,281,o),
(1092,551,qs),
(1092,819,o),
(863,1118,o),
(662,1118,qs),
(450,1118,o),
(340,950,q),
(332,950,l),
(305,1098,l),
(158,1098,l),
(158,-492,l),
(340,-492,l),
(340,-23,ls),
(340,10,o),
(328,139,q),
(340,139,l),
(455,-20,o)
);
},
{
closed = 1;
nodes = (
(477,967,o),
(629,967,qs),
(903,967,o),
(903,553,qs),
(903,131,o),
(631,131,qs),
(479,131,o),
(340,324,o),
(340,551,qs),
(340,592,ls),
(344,791,o)
);
}
);
userData = {
assembly = "NPUSHB[ ]	/* 38 values pushed */
25 72 15 14 31 14 2 14 31 20 1 4 71 0 5 16 5 32 5 208 5 4 7 5 0 23 80 17 22 8 27 80 11 16 6 15 4 27 
SVTCA[0]	/* SetFreedomAndProjectionVectorToAxis */
MIAP[1]	/* MoveIndirectAbsPt */
MIAP[1]	/* MoveIndirectAbsPt */
MIAP[1]	/* MoveIndirectAbsPt */
MIRP[00001]	/* MoveIndirectRelPt */
SHP[0]	/* ShiftPointByLastPoint */
MIAP[1]	/* MoveIndirectAbsPt */
MIRP[00001]	/* MoveIndirectRelPt */
SHP[0]	/* ShiftPointByLastPoint */
SVTCA[1]	/* SetFreedomAndProjectionVectorToAxis */
MDAP[1]	/* MoveDirectAbsPt */
SDB[ ]	/* SetDeltaBaseInGState */
DELTAP1[ ]	/* DeltaExceptionP1 */
MIRP[00001]	/* MoveIndirectRelPt */
SHP[0]	/* ShiftPointByLastPoint */
SHP[0]	/* ShiftPointByLastPoint */
SRP0[ ]	/* SetRefPoint0 */
MDRP[11110]	/* MoveDirectRelPt */
DELTAP2[ ]	/* DeltaExceptionP2 */
MIRP[00001]	/* MoveIndirectRelPt */
IUP[1]	/* InterpolateUntPts */
IUP[0]	/* InterpolateUntPts */";
};
width = 1229;
}
);
note = uni0070;
unicode = 112;
},
{
glyphname = q;
layers = (
{
layerId = m01;
shapes = (
{
closed = 1;
nodes = (
(567,1118,qs),
(367,1118,o),
(137,817,o),
(137,547,qs),
(137,279,o),
(366,-20,o),
(567,-20,qs),
(776,-20,o),
(889,147,q),
(901,147,l),
(889,18,o),
(889,-23,qs),
(889,-492,l),
(1071,-492,l),
(1071,1098,l),
(924,1098,l),
(897,950,l),
(889,950,l),
(774,1118,o)
);
},
{
closed = 1;
nodes = (
(752,131,o),
(600,131,qs),
(326,131,o),
(326,545,qs),
(326,967,o),
(598,967,qs),
(750,967,o),
(889,774,o),
(889,547,qs),
(889,506,ls),
(885,308,o)
);
}
);
userData = {
assembly = "NPUSHB[ ]	/* 37 values pushed */
1 8 19 3 5 71 144 4 160 4 2 4 31 25 72 0 14 224 14 240 14 3 14 8 27 80 11 22 4 27 1 23 80 17 16 2 15 
SVTCA[0]	/* SetFreedomAndProjectionVectorToAxis */
MIAP[1]	/* MoveIndirectAbsPt */
MIAP[1]	/* MoveIndirectAbsPt */
MIRP[00001]	/* MoveIndirectRelPt */
SHP[0]	/* ShiftPointByLastPoint */
MIAP[1]	/* MoveIndirectAbsPt */
MIAP[1]	/* MoveIndirectAbsPt */
MIRP[00001]	/* MoveIndirectRelPt */
SHP[0]	/* ShiftPointByLastPoint */
SVTCA[1]	/* SetFreedomAndProjectionVectorToAxis */
MDAP[1]	/* MoveDirectAbsPt */
DELTAP1[ ]	/* DeltaExceptionP1 */
MIRP[00001]	/* MoveIndirectRelPt */
SRP0[ ]	/* SetRefPoint0 */
MDRP[11110]	/* MoveDirectRelPt */
DELTAP1[ ]	/* DeltaExceptionP1 */
MIRP[00001]	/* MoveIndirectRelPt */
SLOOP[ ]	/* SetLoopVariable */
SHP[0]	/* ShiftPointByLastPoint */
IUP[1]	/* InterpolateUntPts */
IUP[0]	/* InterpolateUntPts */";
};
width = 1229;
}
);
note = uni0071;
unicode = 113;
},
{
glyphname = r;
layers = (
{
layerId = m01;
shapes = (
{
closed = 1;
nodes = (
(819,1118,qs),
(692,1118,o),
(518,1016,o),
(442,897,q),
(434,897,l),
(412,1098,l),
(264,1098,l),
(264,0,l),
(446,0,l),
(446,592,ls),
(446,767,o),
(623,952,o),
(786,952,qs),
(887,952,o),
(1010,907,q),
(1059,1073,l),
(937,1118,o)
);
}
);
userData = {
assembly = "NPUSHB[ ]	/* 27 values pushed */
144 0 1 0 0 18 11 7 71 47 8 1 0 8 1 8 11 7 3 81 1 15 16 9 15 7 21 
SVTCA[0]	/* SetFreedomAndProjectionVectorToAxis */
MIAP[1]	/* MoveIndirectAbsPt */
MIAP[1]	/* MoveIndirectAbsPt */
MIAP[1]	/* MoveIndirectAbsPt */
SHP[1]	/* ShiftPointByLastPoint */
MIRP[00001]	/* MoveIndirectRelPt */
SRP2[ ]	/* SetRefPoint2 */
IP[ ]	/* InterpolatePts */
SVTCA[1]	/* SetFreedomAndProjectionVectorToAxis */
MDAP[1]	/* MoveDirectAbsPt */
DELTAP1[ ]	/* DeltaExceptionP1 */
DELTAP1[ ]	/* DeltaExceptionP1 */
MIRP[00001]	/* MoveIndirectRelPt */
SHP[0]	/* ShiftPointByLastPoint */
SRP1[ ]	/* SetRefPoint1 */
SHP[1]	/* ShiftPointByLastPoint */
MDAP[1]	/* MoveDirectAbsPt */
DELTAP1[ ]	/* DeltaExceptionP1 */
IUP[1]	/* InterpolateUntPts */
IUP[0]	/* InterpolateUntPts */";
};
width = 1229;
}
);
note = uni0072;
unicode = 114;
},
{
glyphname = s;
layers = (
{
layerId = m01;
shapes = (
{
closed = 1;
nodes = (
(578,-20,qs),
(792,-20,o),
(1026,151,o),
(1026,301,qs),
(1026,409,o),
(887,558,o),
(676,635,qs),
(494,700,o),
(393,773,o),
(393,834,qs),
(393,967,o),
(629,967,qs),
(766,967,o),
(948,895,q),
(1008,1044,l),
(837,1118,o),
(639,1118,qs),
(442,1118,o),
(219,963,o),
(219,827,qs),
(219,728,o),
(340,583,o),
(573,496,qs),
(750,432,o),
(848,348,o),
(848,291,qs),
(848,129,o),
(573,129,qs),
(396,129,o),
(203,215,q),
(203,49,l),
(330,-20,o)
);
}
);
userData = {
assembly = "NPUSHB[ ]	/* 34 values pushed */
16 16 5 70 27 33 21 70 11 0 0 0 11 80 11 96 11 240 11 4 11 21 5 14 3 80 1 30 22 19 80 17 14 16 
SVTCA[0]	/* SetFreedomAndProjectionVectorToAxis */
MIAP[1]	/* MoveIndirectAbsPt */
SHP[1]	/* ShiftPointByLastPoint */
MIRP[00001]	/* MoveIndirectRelPt */
MIAP[1]	/* MoveIndirectAbsPt */
SHP[1]	/* ShiftPointByLastPoint */
MIRP[00001]	/* MoveIndirectRelPt */
SRP2[ ]	/* SetRefPoint2 */
IP[ ]	/* InterpolatePts */
IP[ ]	/* InterpolatePts */
SVTCA[1]	/* SetFreedomAndProjectionVectorToAxis */
MDAP[1]	/* MoveDirectAbsPt */
DELTAP1[ ]	/* DeltaExceptionP1 */
SHP[1]	/* ShiftPointByLastPoint */
MDAP[1]	/* MoveDirectAbsPt */
SRP0[ ]	/* SetRefPoint0 */
MIRP[00001]	/* MoveIndirectRelPt */
SRP0[ ]	/* SetRefPoint0 */
MDRP[11110]	/* MoveDirectRelPt */
MIRP[00001]	/* MoveIndirectRelPt */
SHP[1]	/* ShiftPointByLastPoint */
MDAP[1]	/* MoveDirectAbsPt */
IUP[1]	/* InterpolateUntPts */
IUP[0]	/* InterpolateUntPts */";
};
width = 1229;
}
);
note = uni0073;
unicode = 115;
},
{
glyphname = t;
layers = (
{
layerId = m01;
shapes = (
{
closed = 1;
nodes = (
(780,129,qs),
(588,129,o),
(588,324,qs),
(588,961,l),
(1026,961,l),
(1026,1098,l),
(588,1098,l),
(588,1391,l),
(483,1391,l),
(406,1104,l),
(139,1055,l),
(139,961,l),
(406,961,l),
(406,324,ls),
(406,-20,o),
(768,-20,qs),
(890,-20,o),
(1020,12,q),
(1020,150,l),
(873,129,o)
);
}
);
userData = {
assembly = "NPUSHB[ ]	/* 55 values pushed */
12 16 71 5 9 5 32 7 1 7 7 47 5 63 5 127 5 143 5 207 5 223 5 6 0 5 1 5 5 20 21 14 14 127 1 143 1 175 1 3 1 21 6 15 78 11 9 8 12 15 18 80 0 3 22 
SVTCA[0]	/* SetFreedomAndProjectionVectorToAxis */
MIAP[1]	/* MoveIndirectAbsPt */
SHP[1]	/* ShiftPointByLastPoint */
MIRP[00001]	/* MoveIndirectRelPt */
MIAP[1]	/* MoveIndirectAbsPt */
SHP[1]	/* ShiftPointByLastPoint */
SHP[1]	/* ShiftPointByLastPoint */
SHP[1]	/* ShiftPointByLastPoint */
MIRP[00001]	/* MoveIndirectRelPt */
SHP[0]	/* ShiftPointByLastPoint */
SVTCA[1]	/* SetFreedomAndProjectionVectorToAxis */
SRP0[ ]	/* SetRefPoint0 */
MDRP[01110]	/* MoveDirectRelPt */
DELTAP1[ ]	/* DeltaExceptionP1 */
SHP[0]	/* ShiftPointByLastPoint */
MDAP[1]	/* MoveDirectAbsPt */
SRP1[ ]	/* SetRefPoint1 */
SRP2[ ]	/* SetRefPoint2 */
IP[ ]	/* InterpolatePts */
MDAP[1]	/* MoveDirectAbsPt */
DELTAP1[ ]	/* DeltaExceptionP1 */
DELTAP1[ ]	/* DeltaExceptionP1 */
SHP[1]	/* ShiftPointByLastPoint */
MDAP[1]	/* MoveDirectAbsPt */
DELTAP1[ ]	/* DeltaExceptionP1 */
SRP1[ ]	/* SetRefPoint1 */
SHP[1]	/* ShiftPointByLastPoint */
SRP0[ ]	/* SetRefPoint0 */
MIRP[00001]	/* MoveIndirectRelPt */
SHP[0]	/* ShiftPointByLastPoint */
IUP[1]	/* InterpolateUntPts */
IUP[0]	/* InterpolateUntPts */";
};
width = 1229;
}
);
note = uni0074;
unicode = 116;
},
{
glyphname = u;
layers = (
{
layerId = m01;
shapes = (
{
closed = 1;
nodes = (
(1069,1098,l),
(887,1098,l),
(887,528,ls),
(887,316,o),
(739,131,o),
(578,131,qs),
(342,131,o),
(342,391,qs),
(342,1098,l),
(160,1098,l),
(160,381,ls),
(160,-20,o),
(551,-20,qs),
(780,-20,o),
(885,147,q),
(895,147,l),
(922,0,l),
(1069,0,l)
);
}
);
userData = {
assembly = "NPUSHB[ ]	/* 28 values pushed */
1 14 71 144 17 160 17 2 17 19 9 71 0 6 176 6 2 6 15 7 15 1 11 80 4 22 0 21 
SVTCA[0]	/* SetFreedomAndProjectionVectorToAxis */
MIAP[1]	/* MoveIndirectAbsPt */
MIAP[1]	/* MoveIndirectAbsPt */
MIRP[00001]	/* MoveIndirectRelPt */
SHP[0]	/* ShiftPointByLastPoint */
MIAP[1]	/* MoveIndirectAbsPt */
SHP[1]	/* ShiftPointByLastPoint */
SVTCA[1]	/* SetFreedomAndProjectionVectorToAxis */
MDAP[1]	/* MoveDirectAbsPt */
DELTAP1[ ]	/* DeltaExceptionP1 */
MIRP[00001]	/* MoveIndirectRelPt */
SRP0[ ]	/* SetRefPoint0 */
MDRP[11110]	/* MoveDirectRelPt */
DELTAP1[ ]	/* DeltaExceptionP1 */
MIRP[00001]	/* MoveIndirectRelPt */
SHP[0]	/* ShiftPointByLastPoint */
IUP[1]	/* InterpolateUntPts */
IUP[0]	/* InterpolateUntPts */";
};
width = 1229;
}
);
note = uni0075;
unicode = 117;
},
{
glyphname = v;
layers = (
{
layerId = m01;
shapes = (
{
closed = 1;
nodes = (
(1145,1098,l),
(956,1098,l),
(717,446,l),
(623,165,o),
(616,121,q),
(610,121,l),
(595,215,o),
(510,446,qs),
(270,1098,l),
(82,1098,l),
(498,0,l),
(729,0,l)
);
}
);
userData = {
assembly = "NPUSHB[ ]	/* 56 values pushed */
38 11 1 41 0 1 55 11 103 11 231 11 247 11 4 6 11 22 11 2 11 56 0 104 0 232 0 248 0 4 9 0 25 0 2 0 5 5 1 9 8 9 12 72 9 16 10 32 10 48 10 3 10 10 13 2 
PUSHW[ ]	/* 1 value pushed */
-8 
NPUSHB[ ]	/* 21 values pushed */
9 12 72 2 47 1 63 1 2 1 70 5 86 5 2 5 9 1 15 0 21 
SVTCA[0]	/* SetFreedomAndProjectionVectorToAxis */
MIAP[1]	/* MoveIndirectAbsPt */
MIAP[1]	/* MoveIndirectAbsPt */
SHP[1]	/* ShiftPointByLastPoint */
IP[ ]	/* InterpolatePts */
DELTAP1[ ]	/* DeltaExceptionP1 */
SVTCA[1]	/* SetFreedomAndProjectionVectorToAxis */
MDAP[1]	/* MoveDirectAbsPt */
DELTAP1[ ]	/* DeltaExceptionP1 */
SHP[1]	/* ShiftPointByLastPoint */
CALL[ ]	/* CallFunction */
SRP1[ ]	/* SetRefPoint1 */
SHP[1]	/* ShiftPointByLastPoint */
MDAP[1]	/* MoveDirectAbsPt */
DELTAP1[ ]	/* DeltaExceptionP1 */
SHP[1]	/* ShiftPointByLastPoint */
CALL[ ]	/* CallFunction */
SRP2[ ]	/* SetRefPoint2 */
IP[ ]	/* InterpolatePts */
RTDG[ ]	/* RoundToDoubleGrid */
MDAP[1]	/* MoveDirectAbsPt */
SHP[1]	/* ShiftPointByLastPoint */
DELTAP1[ ]	/* DeltaExceptionP1 */
DELTAP1[ ]	/* DeltaExceptionP1 */
SHP[1]	/* ShiftPointByLastPoint */
DELTAP1[ ]	/* DeltaExceptionP1 */
DELTAP1[ ]	/* DeltaExceptionP1 */
IUP[1]	/* InterpolateUntPts */
IUP[0]	/* InterpolateUntPts */
DELTAP1[ ]	/* DeltaExceptionP1 */
DELTAP1[ ]	/* DeltaExceptionP1 */";
};
width = 1229;
}
);
note = uni0076;
unicode = 118;
},
{
glyphname = w;
layers = (
{
layerId = m01;
shapes = (
{
closed = 1;
nodes = (
(1233,1098,l),
(1075,1098,l),
(973,555,ls),
(944,404,o),
(913,162,q),
(907,162,l),
(883,325,o),
(840,520,qs),
(713,1098,l),
(520,1098,l),
(387,520,ls),
(350,347,o),
(319,162,q),
(313,162,l),
(290,369,o),
(256,555,qs),
(158,1098,l),
(-4,1098,l),
(219,0,l),
(408,0,l),
(543,592,l),
(608,926,l),
(614,926,l),
(682,596,l),
(813,0,l),
(1008,0,l)
);
}
);
userData = {
assembly = "PUSHW[ ]	/* 2 values pushed */
25 -16 
PUSHB[ ]	/* 7 values pushed */
20 24 72 167 25 1 25 
PUSHW[ ]	/* 1 value pushed */
-16 
NPUSHB[ ]	/* 24 values pushed */
13 18 72 9 22 25 22 41 22 3 41 21 1 39 17 87 17 2 6 17 22 17 2 16 
PUSHW[ ]	/* 1 value pushed */
-16 
NPUSHB[ ]	/* 66 values pushed */
13 24 72 39 16 55 16 2 15 16 13 24 72 40 15 56 15 2 40 14 88 14 2 9 14 25 14 2 40 13 1 38 10 1 6 9 22 9 38 9 3 6 16 20 24 72 168 6 1 121 6 137 6 153 6 3 40 6 72 6 88 6 104 6 4 5 
PUSHW[ ]	/* 1 value pushed */
-16 
NPUSHB[ ]	/* 10 values pushed */
20 24 72 167 5 1 38 5 1 5 
PUSHW[ ]	/* 1 value pushed */
-16 
NPUSHB[ ]	/* 42 values pushed */
13 18 72 7 5 1 0 16 20 24 72 168 0 1 41 0 1 0 16 13 18 72 8 0 1 6 5 11 16 15 2 25 0 20 148 11 164 11 180 11 3 11 
PUSHW[ ]	/* 1 value pushed */
-32 
NPUSHB[ ]	/* 48 values pushed */
11 14 72 155 20 171 20 187 20 3 20 32 11 14 72 11 2 20 20 2 11 3 7 23 16 24 1 24 8 7 20 11 91 2 1 84 11 1 2 11 6 23 15 7 15 0 6 21 
SVTCA[0]	/* SetFreedomAndProjectionVectorToAxis */
MIAP[1]	/* MoveIndirectAbsPt */
SHP[1]	/* ShiftPointByLastPoint */
MIAP[1]	/* MoveIndirectAbsPt */
SHP[1]	/* ShiftPointByLastPoint */
SHP[1]	/* ShiftPointByLastPoint */
SRP2[ ]	/* SetRefPoint2 */
IP[ ]	/* InterpolatePts */
IP[ ]	/* InterpolatePts */
DELTAP1[ ]	/* DeltaExceptionP1 */
DELTAP1[ ]	/* DeltaExceptionP1 */
SRP1[ ]	/* SetRefPoint1 */
SHP[1]	/* ShiftPointByLastPoint */
SVTCA[1]	/* SetFreedomAndProjectionVectorToAxis */
MDAP[1]	/* MoveDirectAbsPt */
SHP[1]	/* ShiftPointByLastPoint */
MDAP[1]	/* MoveDirectAbsPt */
DELTAP1[ ]	/* DeltaExceptionP1 */
SHP[1]	/* ShiftPointByLastPoint */
SRP2[ ]	/* SetRefPoint2 */
SLOOP[ ]	/* SetLoopVariable */
IP[ ]	/* InterpolatePts */
RTDG[ ]	/* RoundToDoubleGrid */
MDAP[1]	/* MoveDirectAbsPt */
MDAP[1]	/* MoveDirectAbsPt */
MDAP[1]	/* MoveDirectAbsPt */
CALL[ ]	/* CallFunction */
DELTAP1[ ]	/* DeltaExceptionP1 */
CALL[ ]	/* CallFunction */
DELTAP1[ ]	/* DeltaExceptionP1 */
SRP1[ ]	/* SetRefPoint1 */
SHP[1]	/* ShiftPointByLastPoint */
SHP[1]	/* ShiftPointByLastPoint */
SRP1[ ]	/* SetRefPoint1 */
SHP[1]	/* ShiftPointByLastPoint */
SHP[1]	/* ShiftPointByLastPoint */
SRP1[ ]	/* SetRefPoint1 */
SHP[1]	/* ShiftPointByLastPoint */
SHP[1]	/* ShiftPointByLastPoint */
IUP[1]	/* InterpolateUntPts */
IUP[0]	/* InterpolateUntPts */
DELTAP1[ ]	/* DeltaExceptionP1 */
CALL[ ]	/* CallFunction */
DELTAP1[ ]	/* DeltaExceptionP1 */
DELTAP1[ ]	/* DeltaExceptionP1 */
CALL[ ]	/* CallFunction */
DELTAP1[ ]	/* DeltaExceptionP1 */
CALL[ ]	/* CallFunction */
DELTAP1[ ]	/* DeltaExceptionP1 */
DELTAP1[ ]	/* DeltaExceptionP1 */
CALL[ ]	/* CallFunction */
DELTAP1[ ]	/* DeltaExceptionP1 */
DELTAP1[ ]	/* DeltaExceptionP1 */
DELTAP1[ ]	/* DeltaExceptionP1 */
CALL[ ]	/* CallFunction */
DELTAP1[ ]	/* DeltaExceptionP1 */
DELTAP1[ ]	/* DeltaExceptionP1 */
DELTAP1[ ]	/* DeltaExceptionP1 */
DELTAP1[ ]	/* DeltaExceptionP1 */
DELTAP1[ ]	/* DeltaExceptionP1 */
DELTAP1[ ]	/* DeltaExceptionP1 */
CALL[ ]	/* CallFunction */
DELTAP1[ ]	/* DeltaExceptionP1 */
CALL[ ]	/* CallFunction */
DELTAP1[ ]	/* DeltaExceptionP1 */
DELTAP1[ ]	/* DeltaExceptionP1 */
DELTAP1[ ]	/* DeltaExceptionP1 */
DELTAP1[ ]	/* DeltaExceptionP1 */
CALL[ ]	/* CallFunction */
DELTAP1[ ]	/* DeltaExceptionP1 */
CALL[ ]	/* CallFunction */";
};
width = 1229;
}
);
note = uni0077;
unicode = 119;
},
{
glyphname = x;
layers = (
{
layerId = m01;
shapes = (
{
closed = 1;
nodes = (
(303,0,l),
(614,436,l),
(924,0,l),
(1130,0,l),
(717,563,l),
(1112,1098,l),
(905,1098,l),
(614,688,l),
(324,1098,l),
(117,1098,l),
(510,563,l),
(96,0,l)
);
}
);
userData = {
assembly = "PUSHB[ ]	/* 8 values pushed */
196 10 212 10 228 10 3 10 
PUSHW[ ]	/* 1 value pushed */
-16 
NPUSHB[ ]	/* 36 values pushed */
11 14 72 203 8 219 8 235 8 3 8 16 11 14 72 203 4 219 4 235 4 3 4 16 11 14 72 196 2 212 2 228 2 3 6 2 
PUSHW[ ]	/* 1 value pushed */
-16 
NPUSHB[ ]	/* 20 values pushed */
11 14 72 73 9 1 9 16 18 23 72 10 9 26 9 2 70 3 1 3 
PUSHW[ ]	/* 1 value pushed */
-16 
NPUSHB[ ]	/* 45 values pushed */
18 23 72 5 3 21 3 2 4 5 5 6 3 9 0 4 11 8 0 7 16 7 2 7 7 13 2 1 10 31 11 1 11 9 6 0 3 4 1 11 7 21 4 1 15 
SVTCA[0]	/* SetFreedomAndProjectionVectorToAxis */
MIAP[1]	/* MoveIndirectAbsPt */
SHP[1]	/* ShiftPointByLastPoint */
MIAP[1]	/* MoveIndirectAbsPt */
SHP[1]	/* ShiftPointByLastPoint */
SRP2[ ]	/* SetRefPoint2 */
SLOOP[ ]	/* SetLoopVariable */
IP[ ]	/* InterpolatePts */
SVTCA[1]	/* SetFreedomAndProjectionVectorToAxis */
MDAP[1]	/* MoveDirectAbsPt */
DELTAP1[ ]	/* DeltaExceptionP1 */
SHP[1]	/* ShiftPointByLastPoint */
SHP[1]	/* ShiftPointByLastPoint */
SHP[0]	/* ShiftPointByLastPoint */
SRP1[ ]	/* SetRefPoint1 */
SHP[1]	/* ShiftPointByLastPoint */
MDAP[1]	/* MoveDirectAbsPt */
DELTAP1[ ]	/* DeltaExceptionP1 */
SHP[1]	/* ShiftPointByLastPoint */
SRP2[ ]	/* SetRefPoint2 */
SLOOP[ ]	/* SetLoopVariable */
IP[ ]	/* InterpolatePts */
SHP[1]	/* ShiftPointByLastPoint */
SRP1[ ]	/* SetRefPoint1 */
SHP[1]	/* ShiftPointByLastPoint */
IUP[1]	/* InterpolateUntPts */
IUP[0]	/* InterpolateUntPts */
SVTCA[0]	/* SetFreedomAndProjectionVectorToAxis */
DELTAP1[ ]	/* DeltaExceptionP1 */
CALL[ ]	/* CallFunction */
DELTAP1[ ]	/* DeltaExceptionP1 */
DELTAP1[ ]	/* DeltaExceptionP1 */
CALL[ ]	/* CallFunction */
DELTAP1[ ]	/* DeltaExceptionP1 */
SVTCA[1]	/* SetFreedomAndProjectionVectorToAxis */
CALL[ ]	/* CallFunction */
SDS[ ]	/* SetDeltaShiftInGState */
DELTAP1[ ]	/* DeltaExceptionP1 */
CALL[ ]	/* CallFunction */
DELTAP1[ ]	/* DeltaExceptionP1 */
CALL[ ]	/* CallFunction */
DELTAP1[ ]	/* DeltaExceptionP1 */
CALL[ ]	/* CallFunction */
DELTAP1[ ]	/* DeltaExceptionP1 */";
};
width = 1229;
}
);
note = uni0078;
unicode = 120;
},
{
glyphname = y;
layers = (
{
layerId = m01;
shapes = (
{
closed = 1;
nodes = (
(481,-160,ls),
(439,-260,o),
(332,-342,o),
(236,-342,qs),
(162,-342,o),
(100,-330,q),
(100,-475,l),
(182,-492,o),
(268,-492,qs),
(425,-492,o),
(603,-317,o),
(670,-143,qs),
(1145,1098,l),
(956,1098,l),
(717,446,ls),
(650,266,o),
(627,154,q),
(621,154,l),
(614,239,o),
(532,444,qs),
(270,1098,l),
(82,1098,l),
(539,-10,l)
);
}
);
userData = {
assembly = "NPUSHB[ ]	/* 30 values pushed */
56 8 1 9 8 25 8 41 8 3 55 1 1 6 1 22 1 38 1 3 22 16 9 12 72 22 4 4 8 9 
PUSHW[ ]	/* 1 value pushed */
-64 
NPUSHB[ ]	/* 18 values pushed */
9 12 72 9 9 24 15 15 1 31 0 47 0 63 0 3 0 4 
PUSHW[ ]	/* 1 value pushed */
-16 
NPUSHB[ ]	/* 20 values pushed */
11 14 72 4 4 20 4 2 4 0 22 22 18 80 16 13 27 8 0 15 
SVTCA[0]	/* SetFreedomAndProjectionVectorToAxis */
MIAP[1]	/* MoveIndirectAbsPt */
SHP[0]	/* ShiftPointByLastPoint */
MIAP[1]	/* MoveIndirectAbsPt */
SHP[1]	/* ShiftPointByLastPoint */
MIRP[00001]	/* MoveIndirectRelPt */
MIAP[1]	/* MoveIndirectAbsPt */
SRP2[ ]	/* SetRefPoint2 */
IP[ ]	/* InterpolatePts */
DELTAP1[ ]	/* DeltaExceptionP1 */
CALL[ ]	/* CallFunction */
SVTCA[1]	/* SetFreedomAndProjectionVectorToAxis */
MDAP[1]	/* MoveDirectAbsPt */
DELTAP1[ ]	/* DeltaExceptionP1 */
SHP[0]	/* ShiftPointByLastPoint */
SHP[0]	/* ShiftPointByLastPoint */
MDAP[1]	/* MoveDirectAbsPt */
SRP1[ ]	/* SetRefPoint1 */
SHP[1]	/* ShiftPointByLastPoint */
MDAP[1]	/* MoveDirectAbsPt */
CALL[ ]	/* CallFunction */
SHP[1]	/* ShiftPointByLastPoint */
IP[ ]	/* InterpolatePts */
RTDG[ ]	/* RoundToDoubleGrid */
MDAP[1]	/* MoveDirectAbsPt */
SHP[1]	/* ShiftPointByLastPoint */
CALL[ ]	/* CallFunction */
IUP[1]	/* InterpolateUntPts */
IUP[0]	/* InterpolateUntPts */
DELTAP1[ ]	/* DeltaExceptionP1 */
DELTAP1[ ]	/* DeltaExceptionP1 */
DELTAP1[ ]	/* DeltaExceptionP1 */
DELTAP1[ ]	/* DeltaExceptionP1 */";
};
width = 1229;
}
);
note = uni0079;
unicode = 121;
},
{
glyphname = z;
layers = (
{
layerId = m01;
shapes = (
{
closed = 1;
nodes = (
(379,137,l),
(1026,952,l),
(1026,1098,l),
(215,1098,l),
(215,961,l),
(842,961,l),
(182,125,l),
(182,0,l),
(1044,0,l),
(1044,137,l)
);
}
);
userData = {
assembly = "NPUSHB[ ]	/* 14 values pushed */
3 8 9 12 72 3 7 7 112 0 1 0 11 8 
PUSHW[ ]	/* 1 value pushed */
-8 
NPUSHB[ ]	/* 24 values pushed */
9 12 72 8 2 4 4 127 2 1 0 2 1 2 7 4 78 5 15 2 8 78 1 21 
SVTCA[0]	/* SetFreedomAndProjectionVectorToAxis */
MIAP[1]	/* MoveIndirectAbsPt */
MIRP[00001]	/* MoveIndirectRelPt */
SHP[0]	/* ShiftPointByLastPoint */
MIAP[1]	/* MoveIndirectAbsPt */
MIRP[00001]	/* MoveIndirectRelPt */
SHP[0]	/* ShiftPointByLastPoint */
SVTCA[1]	/* SetFreedomAndProjectionVectorToAxis */
MDAP[1]	/* MoveDirectAbsPt */
DELTAP1[ ]	/* DeltaExceptionP1 */
DELTAP1[ ]	/* DeltaExceptionP1 */
SHP[1]	/* ShiftPointByLastPoint */
MDAP[1]	/* MoveDirectAbsPt */
SRP1[ ]	/* SetRefPoint1 */
SHP[1]	/* ShiftPointByLastPoint */
CALL[ ]	/* CallFunction */
SRP0[ ]	/* SetRefPoint0 */
MDRP[01110]	/* MoveDirectRelPt */
DELTAP1[ ]	/* DeltaExceptionP1 */
SHP[0]	/* ShiftPointByLastPoint */
MDAP[1]	/* MoveDirectAbsPt */
SHP[1]	/* ShiftPointByLastPoint */
CALL[ ]	/* CallFunction */
IUP[1]	/* InterpolateUntPts */
IUP[0]	/* InterpolateUntPts */";
};
width = 1229;
}
);
note = uni007A;
unicode = 122;
},
{
glyphname = braceleft;
layers = (
{
layerId = m01;
shapes = (
{
closed = 1;
nodes = (
(745,522,o),
(512,563,q),
(512,575,l),
(745,616,o),
(745,823,qs),
(745,1155,ls),
(745,1236,o),
(857,1311,o),
(1001,1313,q),
(1001,1462,l),
(563,1456,o),
(563,1169,qs),
(563,836,ls),
(563,647,o),
(225,647,q),
(225,492,l),
(563,492,o),
(563,303,qs),
(563,-31,ls),
(563,-318,o),
(1001,-324,q),
(1001,-174,l),
(857,-172,o),
(745,-97,o),
(745,-16,qs),
(745,315,ls)
);
}
);
userData = {
assembly = "NPUSHB[ ]	/* 63 values pushed */
20 0 241 12 22 9 112 6 128 6 2 6 6 9 16 95 3 1 64 3 1 3 27 224 9 240 9 2 31 9 1 9 22 9 245 239 10 255 10 2 217 10 1 15 10 47 10 175 10 191 10 4 10 10 3 16 245 15 248 3 245 4 249 
SVTCA[0]	/* SetFreedomAndProjectionVectorToAxis */
MIAP[1]	/* MoveIndirectAbsPt */
MIRP[00001]	/* MoveIndirectRelPt */
MIAP[1]	/* MoveIndirectAbsPt */
MIRP[00001]	/* MoveIndirectRelPt */
SRP2[ ]	/* SetRefPoint2 */
IP[ ]	/* InterpolatePts */
MDAP[1]	/* MoveDirectAbsPt */
DELTAP1[ ]	/* DeltaExceptionP1 */
DELTAP1[ ]	/* DeltaExceptionP1 */
DELTAP1[ ]	/* DeltaExceptionP1 */
MIRP[00001]	/* MoveIndirectRelPt */
IP[ ]	/* InterpolatePts */
SVTCA[1]	/* SetFreedomAndProjectionVectorToAxis */
MDAP[1]	/* MoveDirectAbsPt */
DELTAP1[ ]	/* DeltaExceptionP1 */
DELTAP1[ ]	/* DeltaExceptionP1 */
SRP0[ ]	/* SetRefPoint0 */
MDRP[01110]	/* MoveDirectRelPt */
DELTAP1[ ]	/* DeltaExceptionP1 */
DELTAP1[ ]	/* DeltaExceptionP1 */
SHP[0]	/* ShiftPointByLastPoint */
SRP1[ ]	/* SetRefPoint1 */
IP[ ]	/* InterpolatePts */
MDAP[1]	/* MoveDirectAbsPt */
DELTAP1[ ]	/* DeltaExceptionP1 */
SRP2[ ]	/* SetRefPoint2 */
IP[ ]	/* InterpolatePts */
SHP[1]	/* ShiftPointByLastPoint */
MIRP[00001]	/* MoveIndirectRelPt */
SHP[0]	/* ShiftPointByLastPoint */
IUP[1]	/* InterpolateUntPts */
IUP[0]	/* InterpolateUntPts */";
};
width = 1229;
}
);
note = uni007B;
unicode = 123;
},
{
glyphname = bar;
layers = (
{
layerId = m01;
shapes = (
{
closed = 1;
nodes = (
(688,-492,l),
(688,1556,l),
(539,1556,l),
(539,-492,l)
);
}
);
userData = {
assembly = "NPUSHB[ ]	/* 10 values pushed */
2 170 79 3 1 3 2 27 0 0 
SVTCA[0]	/* SetFreedomAndProjectionVectorToAxis */
MIAP[1]	/* MoveIndirectAbsPt */
MIAP[1]	/* MoveIndirectAbsPt */
SVTCA[1]	/* SetFreedomAndProjectionVectorToAxis */
MDAP[1]	/* MoveDirectAbsPt */
DELTAP1[ ]	/* DeltaExceptionP1 */
MIRP[00001]	/* MoveIndirectRelPt */
IUP[1]	/* InterpolateUntPts */
IUP[0]	/* InterpolateUntPts */";
};
width = 1229;
}
);
note = uni007C;
unicode = 124;
},
{
glyphname = braceright;
layers = (
{
layerId = m01;
shapes = (
{
closed = 1;
nodes = (
(483,-97,o),
(370,-173,o),
(227,-174,q),
(227,-324,l),
(666,-318,o),
(666,-31,qs),
(666,303,ls),
(666,492,o),
(1004,492,q),
(1004,647,l),
(666,647,o),
(666,836,qs),
(666,1169,ls),
(666,1456,o),
(227,1462,q),
(227,1313,l),
(370,1312,o),
(483,1236,o),
(483,1155,qs),
(483,823,ls),
(483,616,o),
(717,575,q),
(717,563,l),
(483,522,o),
(483,315,qs),
(483,-16,ls)
);
}
);
userData = {
assembly = "NPUSHB[ ]	/* 62 values pushed */
5 25 241 13 3 127 19 143 19 2 19 19 9 239 15 255 15 2 16 15 1 15 27 21 80 9 1 79 9 1 9 3 16 245 239 15 255 15 2 217 15 1 15 15 47 15 175 15 191 15 4 15 15 10 22 245 21 249 9 245 10 248 
SVTCA[0]	/* SetFreedomAndProjectionVectorToAxis */
MIAP[1]	/* MoveIndirectAbsPt */
MIRP[00001]	/* MoveIndirectRelPt */
MIAP[1]	/* MoveIndirectAbsPt */
MIRP[00001]	/* MoveIndirectRelPt */
SRP1[ ]	/* SetRefPoint1 */
IP[ ]	/* InterpolatePts */
MDAP[1]	/* MoveDirectAbsPt */
DELTAP1[ ]	/* DeltaExceptionP1 */
DELTAP1[ ]	/* DeltaExceptionP1 */
DELTAP1[ ]	/* DeltaExceptionP1 */
MIRP[00001]	/* MoveIndirectRelPt */
IP[ ]	/* InterpolatePts */
SVTCA[1]	/* SetFreedomAndProjectionVectorToAxis */
MDAP[1]	/* MoveDirectAbsPt */
DELTAP1[ ]	/* DeltaExceptionP1 */
DELTAP1[ ]	/* DeltaExceptionP1 */
SHP[1]	/* ShiftPointByLastPoint */
SRP0[ ]	/* SetRefPoint0 */
MDRP[01110]	/* MoveDirectRelPt */
DELTAP1[ ]	/* DeltaExceptionP1 */
DELTAP1[ ]	/* DeltaExceptionP1 */
SRP1[ ]	/* SetRefPoint1 */
IP[ ]	/* InterpolatePts */
MDAP[1]	/* MoveDirectAbsPt */
DELTAP1[ ]	/* DeltaExceptionP1 */
IP[ ]	/* InterpolatePts */
SHP[1]	/* ShiftPointByLastPoint */
MIRP[00001]	/* MoveIndirectRelPt */
SHP[0]	/* ShiftPointByLastPoint */
IUP[1]	/* InterpolateUntPts */
IUP[0]	/* InterpolateUntPts */";
};
width = 1229;
}
);
note = uni007D;
unicode = 125;
},
{
glyphname = asciitilde;
lastChange = "2023-03-23 00:26:15 +0000";
layers = (
{
layerId = m01;
shapes = (
{
closed = 1;
nodes = (
(926,594,o),
(876,502,o),
(818,502,qs),
(786,502,o),
(731,539,o),
(675,595,o),
(616,661,o),
(547,717,o),
(466,754,o),
(415,754,qs),
(349,754,o),
(250,701,o),
(184,606,o),
(152,477,o),
(154,401,q),
(302,401,l),
(302,502,o),
(355,596,o),
(409,596,qs),
(441,596,o),
(496,559,o),
(552,503,o),
(611,437,o),
(680,381,o),
(762,344,o),
(812,344,qs),
(878,344,o),
(977,397,o),
(1044,491,o),
(1075,620,o),
(1074,696,q),
(926,696,l)
);
}
);
userData = {
assembly = "NPUSHB[ ]	/* 26 values pushed */
9 19 0 0 1 0 0 18 16 173 9 3 178 7 173 0 223 12 1 112 12 1 63 12 1 12 
SVTCA[0]	/* SetFreedomAndProjectionVectorToAxis */
MDAP[1]	/* MoveDirectAbsPt */
DELTAP1[ ]	/* DeltaExceptionP1 */
DELTAP1[ ]	/* DeltaExceptionP1 */
DELTAP1[ ]	/* DeltaExceptionP1 */
SHP[1]	/* ShiftPointByLastPoint */
MIRP[00001]	/* MoveIndirectRelPt */
MIRP[11101]	/* MoveIndirectRelPt */
SHP[0]	/* ShiftPointByLastPoint */
MIRP[00001]	/* MoveIndirectRelPt */
SRP1[ ]	/* SetRefPoint1 */
SVTCA[1]	/* SetFreedomAndProjectionVectorToAxis */
SHP[1]	/* ShiftPointByLastPoint */
MDAP[1]	/* MoveDirectAbsPt */
DELTAP1[ ]	/* DeltaExceptionP1 */
SRP0[ ]	/* SetRefPoint0 */
MDRP[01110]	/* MoveDirectRelPt */
IUP[1]	/* InterpolateUntPts */
IUP[0]	/* InterpolateUntPts */";
};
width = 1229;
}
);
note = uni007E;
unicode = 126;
},
{
glyphname = exclamdown;
layers = (
{
layerId = m01;
shapes = (
{
closed = 1;
nodes = (
(741,979,qs),
(741,1118,o),
(614,1118,qs),
(487,1118,o),
(487,979,qs),
(487,840,o),
(614,840,qs),
(741,840,o)
);
},
{
closed = 1;
nodes = (
(725,-373,l),
(674,676,l),
(553,676,l),
(502,-373,l)
);
}
);
userData = {
assembly = "NPUSHB[ ]	/* 17 values pushed */
8 9 10 6 150 11 2 2 12 13 8 8 10 0 155 4 16 
SVTCA[0]	/* SetFreedomAndProjectionVectorToAxis */
MIAP[1]	/* MoveIndirectAbsPt */
MIRP[01101]	/* MoveIndirectRelPt */
MDAP[1]	/* MoveDirectAbsPt */
IP[ ]	/* InterpolatePts */
MDAP[1]	/* MoveDirectAbsPt */
SRP1[ ]	/* SetRefPoint1 */
SRP2[ ]	/* SetRefPoint2 */
SVTCA[1]	/* SetFreedomAndProjectionVectorToAxis */
IP[ ]	/* InterpolatePts */
MDAP[1]	/* MoveDirectAbsPt */
SHP[1]	/* ShiftPointByLastPoint */
MIRP[00001]	/* MoveIndirectRelPt */
SHP[0]	/* ShiftPointByLastPoint */
IP[ ]	/* InterpolatePts */
IP[ ]	/* InterpolatePts */
IUP[1]	/* InterpolateUntPts */
IUP[0]	/* InterpolateUntPts */";
};
width = 1229;
}
);
note = uni00A1;
unicode = 161;
},
{
glyphname = cent;
layers = (
{
layerId = m01;
shapes = (
{
closed = 1;
nodes = (
(606,1483,l),
(606,1311,l),
(172,1237,o),
(172,743,qs),
(172,255,o),
(606,186,q),
(606,-20,l),
(743,-20,l),
(743,180,l),
(920,183,o),
(1042,242,q),
(1042,401,l),
(874,340,o),
(721,340,qs),
(360,340,o),
(360,745,qs),
(360,1159,o),
(731,1159,qs),
(849,1159,o),
(999,1102,q),
(1061,1260,l),
(905,1316,o),
(743,1319,q),
(743,1483,l)
);
}
);
userData = {
assembly = "NPUSHB[ ]	/* 24 values pushed */
0 14 70 21 32 17 48 17 2 17 17 19 2 143 12 1 12 25 7 72 0 19 1 19 
PUSHW[ ]	/* 1 value pushed */
-64 
NPUSHB[ ]	/* 18 values pushed */
21 24 72 19 5 80 0 21 21 22 7 17 9 81 14 14 15 22 
SVTCA[0]	/* SetFreedomAndProjectionVectorToAxis */
MIAP[1]	/* MoveIndirectAbsPt */
SHP[1]	/* ShiftPointByLastPoint */
MDAP[1]	/* MoveDirectAbsPt */
MIRP[00001]	/* MoveIndirectRelPt */
SHP[1]	/* ShiftPointByLastPoint */
MIAP[1]	/* MoveIndirectAbsPt */
SHP[1]	/* ShiftPointByLastPoint */
MDAP[1]	/* MoveDirectAbsPt */
SHP[1]	/* ShiftPointByLastPoint */
MIRP[00001]	/* MoveIndirectRelPt */
SVTCA[1]	/* SetFreedomAndProjectionVectorToAxis */
MDAP[1]	/* MoveDirectAbsPt */
CALL[ ]	/* CallFunction */
DELTAP1[ ]	/* DeltaExceptionP1 */
MIRP[00001]	/* MoveIndirectRelPt */
SRP0[ ]	/* SetRefPoint0 */
MDRP[01110]	/* MoveDirectRelPt */
DELTAP1[ ]	/* DeltaExceptionP1 */
SHP[0]	/* ShiftPointByLastPoint */
SRP1[ ]	/* SetRefPoint1 */
IP[ ]	/* InterpolatePts */
MDAP[1]	/* MoveDirectAbsPt */
DELTAP1[ ]	/* DeltaExceptionP1 */
SHP[1]	/* ShiftPointByLastPoint */
MIRP[00001]	/* MoveIndirectRelPt */
SHP[0]	/* ShiftPointByLastPoint */
IUP[1]	/* InterpolateUntPts */
IUP[0]	/* InterpolateUntPts */";
};
width = 1229;
}
);
note = uni00A2;
unicode = 162;
},
{
glyphname = sterling;
layers = (
{
layerId = m01;
shapes = (
{
closed = 1;
nodes = (
(717,1481,qs),
(536,1481,o),
(319,1280,o),
(319,1112,qs),
(319,788,l),
(121,788,l),
(121,651,l),
(319,651,l),
(319,438,ls),
(319,203,o),
(119,154,q),
(119,0,l),
(1110,0,l),
(1110,166,l),
(362,166,l),
(502,244,o),
(502,440,qs),
(502,651,l),
(879,651,l),
(879,788,l),
(502,788,l),
(502,1083,ls),
(502,1329,o),
(725,1329,qs),
(856,1329,o),
(997,1257,q),
(1063,1401,l),
(909,1481,o)
);
}
);
userData = {
assembly = "NPUSHB[ ]	/* 49 values pushed */
6 10 111 22 18 8 18 8 15 0 13 29 20 0 15 1 15 9 20 117 6 47 21 95 21 127 21 143 21 175 21 191 21 223 21 7 21 21 12 3 115 1 26 7 16 12 116 15 24 
SVTCA[0]	/* SetFreedomAndProjectionVectorToAxis */
MIAP[1]	/* MoveIndirectAbsPt */
MIRP[00001]	/* MoveIndirectRelPt */
SHP[0]	/* ShiftPointByLastPoint */
MIAP[1]	/* MoveIndirectAbsPt */
SHP[1]	/* ShiftPointByLastPoint */
MIRP[00001]	/* MoveIndirectRelPt */
SRP2[ ]	/* SetRefPoint2 */
IP[ ]	/* InterpolatePts */
MDAP[1]	/* MoveDirectAbsPt */
DELTAP1[ ]	/* DeltaExceptionP1 */
SHP[1]	/* ShiftPointByLastPoint */
MIRP[00001]	/* MoveIndirectRelPt */
SHP[0]	/* ShiftPointByLastPoint */
SVTCA[1]	/* SetFreedomAndProjectionVectorToAxis */
MDAP[1]	/* MoveDirectAbsPt */
DELTAP1[ ]	/* DeltaExceptionP1 */
SHP[1]	/* ShiftPointByLastPoint */
SRP0[ ]	/* SetRefPoint0 */
MDRP[01110]	/* MoveDirectRelPt */
SHP[0]	/* ShiftPointByLastPoint */
SRP1[ ]	/* SetRefPoint1 */
IP[ ]	/* InterpolatePts */
IP[ ]	/* InterpolatePts */
MDAP[1]	/* MoveDirectAbsPt */
MDAP[1]	/* MoveDirectAbsPt */
SHP[1]	/* ShiftPointByLastPoint */
MIRP[00001]	/* MoveIndirectRelPt */
SHP[0]	/* ShiftPointByLastPoint */
IUP[1]	/* InterpolateUntPts */
IUP[0]	/* InterpolateUntPts */";
};
width = 1229;
}
);
note = uni00A3;
unicode = 163;
},
{
glyphname = currency;
layers = (
{
layerId = m01;
shapes = (
{
closed = 1;
nodes = (
(238,723,qs),
(238,605,o),
(303,510,q),
(176,383,l),
(272,287,l),
(399,414,l),
(496,346,o),
(614,346,qs),
(728,346,o),
(827,412,q),
(956,285,l),
(1053,381,l),
(926,508,l),
(993,603,o),
(993,723,qs),
(993,837,o),
(926,938,q),
(1055,1067,l),
(956,1163,l),
(827,1034,l),
(728,1102,o),
(614,1102,qs),
(500,1102,o),
(399,1034,q),
(272,1163,l),
(174,1065,l),
(303,936,l),
(238,837,o)
);
},
{
closed = 1;
nodes = (
(375,623,o),
(375,723,qs),
(375,825,o),
(515,967,o),
(614,967,qs),
(715,967,o),
(858,824,o),
(858,723,qs),
(858,623,o),
(714,483,o),
(614,483,qs),
(516,483,o)
);
}
);
userData = {
assembly = "NPUSHB[ ]	/* 10 values pushed */
37 171 0 26 176 26 224 26 3 26 
PUSHW[ ]	/* 1 value pushed */
-64 
NPUSHB[ ]	/* 29 values pushed */
11 15 72 26 26 31 171 192 12 1 79 12 95 12 111 12 3 12 41 28 174 0 19 176 19 224 19 3 19 
PUSHW[ ]	/* 1 value pushed */
-64 
NPUSHB[ ]	/* 21 values pushed */
11 15 72 19 19 34 174 31 5 63 5 79 5 111 5 191 5 239 5 6 5 
SVTCA[0]	/* SetFreedomAndProjectionVectorToAxis */
MDAP[1]	/* MoveDirectAbsPt */
DELTAP1[ ]	/* DeltaExceptionP1 */
MIRP[00001]	/* MoveIndirectRelPt */
SHP[1]	/* ShiftPointByLastPoint */
MDAP[1]	/* MoveDirectAbsPt */
CALL[ ]	/* CallFunction */
DELTAP1[ ]	/* DeltaExceptionP1 */
MIRP[00001]	/* MoveIndirectRelPt */
SVTCA[1]	/* SetFreedomAndProjectionVectorToAxis */
SRP0[ ]	/* SetRefPoint0 */
MDRP[11110]	/* MoveDirectRelPt */
DELTAP1[ ]	/* DeltaExceptionP1 */
DELTAP1[ ]	/* DeltaExceptionP1 */
MIRP[00001]	/* MoveIndirectRelPt */
SHP[1]	/* ShiftPointByLastPoint */
MDAP[1]	/* MoveDirectAbsPt */
CALL[ ]	/* CallFunction */
DELTAP1[ ]	/* DeltaExceptionP1 */
MIRP[00001]	/* MoveIndirectRelPt */
IUP[1]	/* InterpolateUntPts */
IUP[0]	/* InterpolateUntPts */";
};
width = 1229;
}
);
note = uni00A4;
unicode = 164;
},
{
glyphname = yen;
layers = (
{
layerId = m01;
shapes = (
{
closed = 1;
nodes = (
(78,1462,l),
(457,694,l),
(223,694,l),
(223,557,l),
(524,557,l),
(524,399,l),
(223,399,l),
(223,262,l),
(524,262,l),
(524,0,l),
(702,0,l),
(702,262,l),
(1004,262,l),
(1004,399,l),
(702,399,l),
(702,557,l),
(1004,557,l),
(1004,694,l),
(764,694,l),
(1149,1462,l),
(958,1462,l),
(612,723,l),
(270,1462,l)
);
}
);
userData = {
assembly = "PUSHW[ ]	/* 2 values pushed */
22 -8 
NPUSHB[ ]	/* 9 values pushed */
10 13 72 1 8 10 13 72 0 
PUSHW[ ]	/* 1 value pushed */
-24 
NPUSHB[ ]	/* 60 values pushed */
21 24 72 102 0 118 0 2 18 14 18 14 12 22 207 21 1 139 21 1 116 21 1 21 21 12 5 9 5 9 1 2 2 103 0 1 0 7 3 11 110 20 16 192 12 208 12 2 103 12 1 16 12 1 12 12 23 24 7 15 
PUSHW[ ]	/* 1 value pushed */
263 
PUSHB[ ]	/* 5 values pushed */
14 10 14 6 18 
PUSHW[ ]	/* 1 value pushed */
263 
NPUSHB[ ]	/* 29 values pushed */
19 3 0 19 159 14 1 48 14 64 14 2 15 19 31 19 159 19 3 14 19 14 19 1 11 18 22 1 6 
SVTCA[0]	/* SetFreedomAndProjectionVectorToAxis */
MIAP[1]	/* MoveIndirectAbsPt */
SHP[1]	/* ShiftPointByLastPoint */
MIAP[1]	/* MoveIndirectAbsPt */
SRP2[ ]	/* SetRefPoint2 */
IP[ ]	/* InterpolatePts */
IP[ ]	/* InterpolatePts */
MDAP[1]	/* MoveDirectAbsPt */
MDAP[1]	/* MoveDirectAbsPt */
DELTAP1[ ]	/* DeltaExceptionP1 */
DELTAP1[ ]	/* DeltaExceptionP1 */
DELTAP1[ ]	/* DeltaExceptionP1 */
SRP1[ ]	/* SetRefPoint1 */
SHP[1]	/* ShiftPointByLastPoint */
SHP[1]	/* ShiftPointByLastPoint */
SRP0[ ]	/* SetRefPoint0 */
MIRP[00001]	/* MoveIndirectRelPt */
SHP[0]	/* ShiftPointByLastPoint */
SRP1[ ]	/* SetRefPoint1 */
SHP[1]	/* ShiftPointByLastPoint */
SRP0[ ]	/* SetRefPoint0 */
MIRP[00001]	/* MoveIndirectRelPt */
SHP[0]	/* ShiftPointByLastPoint */
SRP1[ ]	/* SetRefPoint1 */
SRP2[ ]	/* SetRefPoint2 */
SVTCA[1]	/* SetFreedomAndProjectionVectorToAxis */
IP[ ]	/* InterpolatePts */
MDAP[1]	/* MoveDirectAbsPt */
DELTAP1[ ]	/* DeltaExceptionP1 */
DELTAP1[ ]	/* DeltaExceptionP1 */
DELTAP1[ ]	/* DeltaExceptionP1 */
SHP[1]	/* ShiftPointByLastPoint */
SHP[1]	/* ShiftPointByLastPoint */
MIRP[00001]	/* MoveIndirectRelPt */
SHP[0]	/* ShiftPointByLastPoint */
SHP[0]	/* ShiftPointByLastPoint */
IP[ ]	/* InterpolatePts */
DELTAP1[ ]	/* DeltaExceptionP1 */
SHP[0]	/* ShiftPointByLastPoint */
MDAP[1]	/* MoveDirectAbsPt */
SHP[1]	/* ShiftPointByLastPoint */
IP[ ]	/* InterpolatePts */
IP[ ]	/* InterpolatePts */
MDAP[1]	/* MoveDirectAbsPt */
MDAP[1]	/* MoveDirectAbsPt */
SRP1[ ]	/* SetRefPoint1 */
SHP[1]	/* ShiftPointByLastPoint */
MDAP[1]	/* MoveDirectAbsPt */
DELTAP1[ ]	/* DeltaExceptionP1 */
DELTAP1[ ]	/* DeltaExceptionP1 */
DELTAP1[ ]	/* DeltaExceptionP1 */
SHP[1]	/* ShiftPointByLastPoint */
SRP2[ ]	/* SetRefPoint2 */
IP[ ]	/* InterpolatePts */
IP[ ]	/* InterpolatePts */
MDAP[1]	/* MoveDirectAbsPt */
MDAP[1]	/* MoveDirectAbsPt */
IUP[1]	/* InterpolateUntPts */
IUP[0]	/* InterpolateUntPts */
SVTCA[0]	/* SetFreedomAndProjectionVectorToAxis */
DELTAP1[ ]	/* DeltaExceptionP1 */
CALL[ ]	/* CallFunction */
SVTCA[1]	/* SetFreedomAndProjectionVectorToAxis */
CALL[ ]	/* CallFunction */
CALL[ ]	/* CallFunction */";
};
width = 1229;
}
);
note = uni00A5;
unicode = 165;
},
{
glyphname = brokenbar;
layers = (
{
layerId = m01;
shapes = (
{
closed = 1;
nodes = (
(688,776,l),
(688,1556,l),
(539,1556,l),
(539,776,l)
);
},
{
closed = 1;
nodes = (
(688,-492,l),
(688,289,l),
(539,289,l),
(539,-492,l)
);
}
);
userData = {
assembly = "NPUSHB[ ]	/* 16 values pushed */
2 6 170 3 79 7 1 7 4 3 4 3 6 27 0 0 
SVTCA[0]	/* SetFreedomAndProjectionVectorToAxis */
MIAP[1]	/* MoveIndirectAbsPt */
MIAP[1]	/* MoveIndirectAbsPt */
IP[ ]	/* InterpolatePts */
IP[ ]	/* InterpolatePts */
MDAP[1]	/* MoveDirectAbsPt */
MDAP[1]	/* MoveDirectAbsPt */
SVTCA[1]	/* SetFreedomAndProjectionVectorToAxis */
MDAP[1]	/* MoveDirectAbsPt */
DELTAP1[ ]	/* DeltaExceptionP1 */
SHP[1]	/* ShiftPointByLastPoint */
MIRP[00001]	/* MoveIndirectRelPt */
SHP[0]	/* ShiftPointByLastPoint */
IUP[1]	/* InterpolateUntPts */
IUP[0]	/* InterpolateUntPts */";
};
width = 1229;
}
);
note = uni00A6;
unicode = 166;
},
{
glyphname = section;
layers = (
{
layerId = m01;
shapes = (
{
closed = 1;
nodes = (
(260,809,qs),
(260,705,o),
(372,555,o),
(569,471,qs),
(721,409,o),
(807,329,o),
(807,272,qs),
(807,131,o),
(567,131,qs),
(415,131,o),
(244,213,q),
(244,55,l),
(363,-10,o),
(567,-10,qs),
(764,-10,o),
(985,151,o),
(985,289,qs),
(985,434,o),
(840,514,q),
(985,602,o),
(985,784,qs),
(985,897,o),
(837,1052,o),
(680,1114,qs),
(533,1175,o),
(434,1253,o),
(434,1307,qs),
(434,1423,o),
(635,1423,qs),
(755,1423,o),
(911,1356,q),
(967,1495,l),
(803,1567,o),
(641,1567,qs),
(468,1567,o),
(260,1423,o),
(260,1303,qs),
(260,1147,o),
(420,1067,q),
(260,988,o)
);
},
{
closed = 1;
nodes = (
(527,651,o),
(414,758,o),
(414,831,qs),
(414,958,o),
(547,1006,q),
(680,958,o),
(827,847,o),
(827,758,qs),
(827,649,o),
(713,573,q),
(678,588,ls)
);
}
);
userData = {
assembly = "NPUSHB[ ]	/* 43 values pushed */
8 0 1 6 20 1 9 0 1 40 20 47 22 0 45 2 72 42 1 42 73 18 18 32 70 7 22 52 71 47 1 47 73 38 12 70 2 2 27 0 38 1 38 
PUSHW[ ]	/* 1 value pushed */
-64 
NPUSHB[ ]	/* 26 values pushed */
12 15 72 38 38 51 20 40 0 45 12 45 40 32 4 5 30 78 28 25 22 10 78 8 5 1 
SVTCA[0]	/* SetFreedomAndProjectionVectorToAxis */
MIAP[1]	/* MoveIndirectAbsPt */
SHP[1]	/* ShiftPointByLastPoint */
MIRP[00001]	/* MoveIndirectRelPt */
MIAP[1]	/* MoveIndirectAbsPt */
SHP[1]	/* ShiftPointByLastPoint */
MIRP[00001]	/* MoveIndirectRelPt */
SRP1[ ]	/* SetRefPoint1 */
SLOOP[ ]	/* SetLoopVariable */
IP[ ]	/* InterpolatePts */
SRP1[ ]	/* SetRefPoint1 */
SHP[1]	/* ShiftPointByLastPoint */
SRP1[ ]	/* SetRefPoint1 */
SHP[1]	/* ShiftPointByLastPoint */
SRP1[ ]	/* SetRefPoint1 */
SVTCA[1]	/* SetFreedomAndProjectionVectorToAxis */
SHP[1]	/* ShiftPointByLastPoint */
MDAP[1]	/* MoveDirectAbsPt */
CALL[ ]	/* CallFunction */
DELTAP1[ ]	/* DeltaExceptionP1 */
SHP[1]	/* ShiftPointByLastPoint */
SHP[1]	/* ShiftPointByLastPoint */
MDAP[1]	/* MoveDirectAbsPt */
MIRP[00001]	/* MoveIndirectRelPt */
SRP0[ ]	/* SetRefPoint0 */
MIRP[00001]	/* MoveIndirectRelPt */
DELTAP1[ ]	/* DeltaExceptionP1 */
SRP0[ ]	/* SetRefPoint0 */
MDRP[11110]	/* MoveDirectRelPt */
SHP[0]	/* ShiftPointByLastPoint */
MIRP[00001]	/* MoveIndirectRelPt */
SHP[1]	/* ShiftPointByLastPoint */
MDAP[1]	/* MoveDirectAbsPt */
MIRP[00001]	/* MoveIndirectRelPt */
DELTAP1[ ]	/* DeltaExceptionP1 */
SRP1[ ]	/* SetRefPoint1 */
IP[ ]	/* InterpolatePts */
IP[ ]	/* InterpolatePts */
SRP1[ ]	/* SetRefPoint1 */
SRP2[ ]	/* SetRefPoint2 */
IP[ ]	/* InterpolatePts */
IP[ ]	/* InterpolatePts */
IUP[1]	/* InterpolateUntPts */
IUP[0]	/* InterpolateUntPts */
SVTCA[0]	/* SetFreedomAndProjectionVectorToAxis */
DELTAP1[ ]	/* DeltaExceptionP1 */
DELTAP1[ ]	/* DeltaExceptionP1 */
SVTCA[1]	/* SetFreedomAndProjectionVectorToAxis */
DELTAP1[ ]	/* DeltaExceptionP1 */";
};
width = 1229;
}
);
note = uni00A7;
unicode = 167;
},
{
glyphname = dieresis;
layers = (
{
layerId = m01;
shapes = (
{
closed = 1;
nodes = (
(330,1395,qs),
(330,1292,o),
(426,1292,qs),
(522,1292,o),
(522,1395,qs),
(522,1497,o),
(426,1497,qs),
(330,1497,o)
);
},
{
closed = 1;
nodes = (
(705,1395,qs),
(705,1292,o),
(801,1292,qs),
(897,1292,o),
(897,1395,qs),
(897,1497,o),
(801,1497,qs),
(705,1497,o)
);
}
);
userData = {
assembly = "NPUSHB[ ]	/* 36 values pushed */
2 133 0 6 112 6 224 6 3 6 6 14 133 10 10 17 8 0 147 12 79 4 111 4 127 4 159 4 175 4 207 4 223 4 7 4 
SVTCA[0]	/* SetFreedomAndProjectionVectorToAxis */
MDAP[1]	/* MoveDirectAbsPt */
DELTAP1[ ]	/* DeltaExceptionP1 */
SHP[1]	/* ShiftPointByLastPoint */
MIRP[01101]	/* MoveIndirectRelPt */
SHP[0]	/* ShiftPointByLastPoint */
SRP1[ ]	/* SetRefPoint1 */
SVTCA[1]	/* SetFreedomAndProjectionVectorToAxis */
SHP[1]	/* ShiftPointByLastPoint */
MDAP[1]	/* MoveDirectAbsPt */
MIRP[00001]	/* MoveIndirectRelPt */
SHP[1]	/* ShiftPointByLastPoint */
MDAP[1]	/* MoveDirectAbsPt */
DELTAP1[ ]	/* DeltaExceptionP1 */
MIRP[00001]	/* MoveIndirectRelPt */
IUP[1]	/* InterpolateUntPts */
IUP[0]	/* InterpolateUntPts */";
};
width = 1229;
}
);
note = uni00A8;
unicode = 168;
},
{
glyphname = copyright;
layers = (
{
layerId = m01;
shapes = (
{
closed = 1;
nodes = (
(6,1074,o),
(6,731,qs),
(6,387,o),
(328,-20,o),
(614,-20,qs),
(899,-20,o),
(1223,386,o),
(1223,731,qs),
(1223,1075,o),
(900,1483,o),
(614,1483,qs),
(327,1483,o)
);
},
{
closed = 1;
nodes = (
(115,430,o),
(115,731,qs),
(115,1032,o),
(374,1374,o),
(614,1374,qs),
(854,1374,o),
(1114,1033,o),
(1114,731,qs),
(1114,429,o),
(854,88,o),
(614,88,qs),
(374,88,o)
);
},
{
closed = 1;
nodes = (
(659,408,qs),
(408,408,o),
(408,731,qs),
(408,882,o),
(538,1053,o),
(659,1053,qs),
(742,1053,o),
(852,999,q),
(913,1126,l),
(787,1188,o),
(659,1188,qs),
(468,1188,o),
(248,942,o),
(248,733,qs),
(248,519,o),
(458,272,o),
(653,272,qs),
(767,272,o),
(874,322,q),
(874,453,l),
(753,408,o)
);
}
);
userData = {
assembly = "NPUSHB[ ]	/* 70 values pushed */
41 197 35 25 31 30 47 30 63 30 3 30 25 30 25 9 15 195 3 46 21 195 9 43 201 27 24 27 38 201 33 36 33 111 27 127 27 143 27 3 13 27 29 27 2 96 33 112 33 128 33 3 2 33 18 33 2 27 33 27 33 0 12 200 6 19 18 200 0 4 
SVTCA[0]	/* SetFreedomAndProjectionVectorToAxis */
MIAP[1]	/* MoveIndirectAbsPt */
MIRP[00001]	/* MoveIndirectRelPt */
MIAP[1]	/* MoveIndirectAbsPt */
MIRP[00001]	/* MoveIndirectRelPt */
SRP1[ ]	/* SetRefPoint1 */
IP[ ]	/* InterpolatePts */
IP[ ]	/* InterpolatePts */
MDAP[1]	/* MoveDirectAbsPt */
MDAP[1]	/* MoveDirectAbsPt */
DELTAP1[ ]	/* DeltaExceptionP1 */
DELTAP1[ ]	/* DeltaExceptionP1 */
DELTAP1[ ]	/* DeltaExceptionP1 */
DELTAP1[ ]	/* DeltaExceptionP1 */
SRP1[ ]	/* SetRefPoint1 */
SHP[1]	/* ShiftPointByLastPoint */
SRP0[ ]	/* SetRefPoint0 */
MIRP[00001]	/* MoveIndirectRelPt */
SRP1[ ]	/* SetRefPoint1 */
SHP[1]	/* ShiftPointByLastPoint */
SRP0[ ]	/* SetRefPoint0 */
MIRP[00001]	/* MoveIndirectRelPt */
SVTCA[1]	/* SetFreedomAndProjectionVectorToAxis */
MDAP[1]	/* MoveDirectAbsPt */
MIRP[00001]	/* MoveIndirectRelPt */
SRP0[ ]	/* SetRefPoint0 */
MDRP[10110]	/* MoveDirectRelPt */
MIRP[00001]	/* MoveIndirectRelPt */
SRP1[ ]	/* SetRefPoint1 */
IP[ ]	/* InterpolatePts */
IP[ ]	/* InterpolatePts */
MDAP[1]	/* MoveDirectAbsPt */
MDAP[1]	/* MoveDirectAbsPt */
DELTAP1[ ]	/* DeltaExceptionP1 */
SRP1[ ]	/* SetRefPoint1 */
SHP[1]	/* ShiftPointByLastPoint */
MIRP[00001]	/* MoveIndirectRelPt */
IUP[1]	/* InterpolateUntPts */
IUP[0]	/* InterpolateUntPts */";
};
width = 1229;
}
);
note = uni00A9;
unicode = 169;
},
{
glyphname = ordfeminine;
layers = (
{
layerId = m01;
shapes = (
{
closed = 1;
nodes = (
(909,1241,ls),
(909,1479,o),
(618,1479,qs),
(462,1479,o),
(324,1421,q),
(365,1311,l),
(498,1362,o),
(610,1362,qs),
(762,1362,o),
(762,1229,qs),
(762,1219,l),
(637,1214,ls),
(446,1208,o),
(276,1105,o),
(276,989,qs),
(276,784,o),
(498,784,qs),
(662,784,o),
(766,915,q),
(799,797,l),
(909,797,l)
);
},
{
closed = 1;
nodes = (
(762,1098,ls),
(762,1007,o),
(637,897,o),
(532,897,qs),
(428,897,o),
(428,987,qs),
(428,1062,o),
(548,1114,o),
(662,1116,qs),
(762,1118,l)
);
}
);
userData = {
assembly = "NPUSHB[ ]	/* 37 values pushed */
30 1 9 224 192 19 1 47 19 127 19 2 19 19 24 224 15 48 5 160 5 2 5 30 229 9 9 26 14 12 228 17 222 1 26 228 3 
PUSHW[ ]	/* 1 value pushed */
256 
PUSHB[ ]	/* 2 values pushed */
0 255 
SVTCA[0]	/* SetFreedomAndProjectionVectorToAxis */
MIAP[1]	/* MoveIndirectAbsPt */
MIAP[1]	/* MoveIndirectAbsPt */
MIRP[00001]	/* MoveIndirectRelPt */
SHP[0]	/* ShiftPointByLastPoint */
MIAP[1]	/* MoveIndirectAbsPt */
MIRP[00001]	/* MoveIndirectRelPt */
SHP[1]	/* ShiftPointByLastPoint */
SRP2[ ]	/* SetRefPoint2 */
IP[ ]	/* InterpolatePts */
MDAP[1]	/* MoveDirectAbsPt */
MIRP[00001]	/* MoveIndirectRelPt */
SVTCA[1]	/* SetFreedomAndProjectionVectorToAxis */
MDAP[1]	/* MoveDirectAbsPt */
DELTAP1[ ]	/* DeltaExceptionP1 */
SHP[1]	/* ShiftPointByLastPoint */
MIRP[00001]	/* MoveIndirectRelPt */
SHP[1]	/* ShiftPointByLastPoint */
MDAP[1]	/* MoveDirectAbsPt */
DELTAP1[ ]	/* DeltaExceptionP1 */
DELTAP1[ ]	/* DeltaExceptionP1 */
MIRP[00001]	/* MoveIndirectRelPt */
SHP[0]	/* ShiftPointByLastPoint */
SHP[0]	/* ShiftPointByLastPoint */
IUP[1]	/* InterpolateUntPts */
IUP[0]	/* InterpolateUntPts */";
};
width = 1229;
}
);
note = uni00AA;
unicode = 170;
},
{
glyphname = guillemetleft;
layers = (
{
layerId = m01;
shapes = (
{
closed = 1;
nodes = (
(506,115,l),
(623,193,l),
(385,541,l),
(623,889,l),
(506,967,l),
(197,553,l),
(197,526,l)
);
},
{
closed = 1;
nodes = (
(913,115,l),
(1030,193,l),
(793,541,l),
(1030,889,l),
(913,967,l),
(604,553,l),
(604,526,l)
);
}
);
userData = {
assembly = "NPUSHB[ ]	/* 42 values pushed */
10 235 7 236 11 143 9 1 96 9 1 9 15 3 235 0 236 64 4 0 2 48 2 96 2 160 2 4 2 12 5 238 8 1 238 32 0 6 10 3 3 239 
SVTCA[0]	/* SetFreedomAndProjectionVectorToAxis */
RTHG[ ]	/* RoundToHalfGrid */
MIAP[1]	/* MoveIndirectAbsPt */
SLOOP[ ]	/* SetLoopVariable */
SHP[1]	/* ShiftPointByLastPoint */
SMD[ ]	/* SetMinimumDistance */
MIRP[01101]	/* MoveIndirectRelPt */
SHP[0]	/* ShiftPointByLastPoint */
MIRP[01101]	/* MoveIndirectRelPt */
SHP[0]	/* ShiftPointByLastPoint */
SVTCA[1]	/* SetFreedomAndProjectionVectorToAxis */
RTG[ ]	/* RoundToGrid */
MDAP[1]	/* MoveDirectAbsPt */
DELTAP1[ ]	/* DeltaExceptionP1 */
SHP[1]	/* ShiftPointByLastPoint */
SMD[ ]	/* SetMinimumDistance */
MIRP[11101]	/* MoveIndirectRelPt */
MIRP[00001]	/* MoveIndirectRelPt */
SRP0[ ]	/* SetRefPoint0 */
MDRP[11110]	/* MoveDirectRelPt */
DELTAP1[ ]	/* DeltaExceptionP1 */
DELTAP1[ ]	/* DeltaExceptionP1 */
SHP[0]	/* ShiftPointByLastPoint */
MIRP[11101]	/* MoveIndirectRelPt */
MIRP[00001]	/* MoveIndirectRelPt */
IUP[1]	/* InterpolateUntPts */
IUP[0]	/* InterpolateUntPts */";
};
width = 1229;
}
);
note = uni00AB;
unicode = 171;
},
{
glyphname = logicalnot;
layers = (
{
layerId = m01;
shapes = (
{
closed = 1;
nodes = (
(152,647,l),
(926,647,l),
(926,262,l),
(1075,262,l),
(1075,797,l),
(152,797,l)
);
}
);
userData = {
assembly = "PUSHB[ ]	/* 8 values pushed */
3 170 0 7 0 5 1 5 
PUSHW[ ]	/* 1 value pushed */
-64 
NPUSHB[ ]	/* 13 values pushed */
21 24 72 5 5 6 3 173 0 1 1 0 179 
SVTCA[0]	/* SetFreedomAndProjectionVectorToAxis */
MIAP[1]	/* MoveIndirectAbsPt */
SHP[0]	/* ShiftPointByLastPoint */
MDAP[1]	/* MoveDirectAbsPt */
SRP0[ ]	/* SetRefPoint0 */
MIRP[00001]	/* MoveIndirectRelPt */
SRP1[ ]	/* SetRefPoint1 */
SVTCA[1]	/* SetFreedomAndProjectionVectorToAxis */
SHP[1]	/* ShiftPointByLastPoint */
MDAP[1]	/* MoveDirectAbsPt */
CALL[ ]	/* CallFunction */
DELTAP1[ ]	/* DeltaExceptionP1 */
SRP0[ ]	/* SetRefPoint0 */
MDRP[11110]	/* MoveDirectRelPt */
MIRP[00001]	/* MoveIndirectRelPt */
IUP[1]	/* InterpolateUntPts */
IUP[0]	/* InterpolateUntPts */";
};
width = 1229;
}
);
note = uni00AC;
unicode = 172;
},
{
glyphname = registered;
layers = (
{
layerId = m01;
shapes = (
{
closed = 1;
nodes = (
(6,1074,o),
(6,731,qs),
(6,387,o),
(328,-20,o),
(614,-20,qs),
(899,-20,o),
(1223,386,o),
(1223,731,qs),
(1223,1075,o),
(900,1483,o),
(614,1483,qs),
(327,1483,o)
);
},
{
closed = 1;
nodes = (
(115,430,o),
(115,731,qs),
(115,1032,o),
(374,1374,o),
(614,1374,qs),
(854,1374,o),
(1114,1033,o),
(1114,731,qs),
(1114,429,o),
(854,88,o),
(614,88,qs),
(374,88,o)
);
},
{
closed = 1;
nodes = (
(907,913,qs),
(907,1178,o),
(582,1178,qs),
(348,1178,l),
(348,285,l),
(506,285,l),
(506,637,l),
(600,637,l),
(807,285,l),
(985,285,l),
(748,680,l),
(907,750,o)
);
},
{
closed = 1;
nodes = (
(575,1042,ls),
(664,1042,o),
(748,983,o),
(748,909,qs),
(748,768,o),
(578,768,qs),
(506,768,l),
(506,1042,l)
);
}
);
userData = {
assembly = "NPUSHB[ ]	/* 94 values pushed */
24 34 36 29 197 30 26 25 25 39 197 34 27 34 96 30 1 96 34 1 27 34 1 30 34 30 34 9 15 195 3 45 21 195 9 26 30 21 36 1 36 201 28 24 28 43 201 31 240 30 1 111 30 127 30 143 30 3 13 30 29 30 2 34 28 1 96 31 112 31 128 31 3 2 31 18 31 2 30 28 31 31 28 30 3 0 12 200 6 19 18 200 0 4 
SVTCA[0]	/* SetFreedomAndProjectionVectorToAxis */
MIAP[1]	/* MoveIndirectAbsPt */
MIRP[00001]	/* MoveIndirectRelPt */
MIAP[1]	/* MoveIndirectAbsPt */
MIRP[00001]	/* MoveIndirectRelPt */
SRP1[ ]	/* SetRefPoint1 */
SLOOP[ ]	/* SetLoopVariable */
IP[ ]	/* InterpolatePts */
MDAP[1]	/* MoveDirectAbsPt */
MDAP[1]	/* MoveDirectAbsPt */
MDAP[1]	/* MoveDirectAbsPt */
DELTAP1[ ]	/* DeltaExceptionP1 */
DELTAP1[ ]	/* DeltaExceptionP1 */
DELTAP1[ ]	/* DeltaExceptionP1 */
DELTAP1[ ]	/* DeltaExceptionP1 */
DELTAP1[ ]	/* DeltaExceptionP1 */
DELTAP1[ ]	/* DeltaExceptionP1 */
SRP0[ ]	/* SetRefPoint0 */
MIRP[00001]	/* MoveIndirectRelPt */
SRP1[ ]	/* SetRefPoint1 */
SHP[1]	/* ShiftPointByLastPoint */
SRP0[ ]	/* SetRefPoint0 */
MIRP[00001]	/* MoveIndirectRelPt */
DELTAP1[ ]	/* DeltaExceptionP1 */
SRP1[ ]	/* SetRefPoint1 */
SHP[1]	/* ShiftPointByLastPoint */
SVTCA[1]	/* SetFreedomAndProjectionVectorToAxis */
MDAP[1]	/* MoveDirectAbsPt */
MIRP[00001]	/* MoveIndirectRelPt */
SRP0[ ]	/* SetRefPoint0 */
MDRP[10110]	/* MoveDirectRelPt */
MIRP[00001]	/* MoveIndirectRelPt */
SRP1[ ]	/* SetRefPoint1 */
IP[ ]	/* InterpolatePts */
IP[ ]	/* InterpolatePts */
MDAP[1]	/* MoveDirectAbsPt */
MDAP[1]	/* MoveDirectAbsPt */
DELTAP1[ ]	/* DeltaExceptionP1 */
DELTAP1[ ]	/* DeltaExceptionP1 */
DELTAP1[ ]	/* DeltaExceptionP1 */
SRP2[ ]	/* SetRefPoint2 */
IP[ ]	/* InterpolatePts */
SRP0[ ]	/* SetRefPoint0 */
MIRP[00001]	/* MoveIndirectRelPt */
SHP[1]	/* ShiftPointByLastPoint */
SRP1[ ]	/* SetRefPoint1 */
SHP[1]	/* ShiftPointByLastPoint */
SRP0[ ]	/* SetRefPoint0 */
MIRP[00001]	/* MoveIndirectRelPt */
SHP[0]	/* ShiftPointByLastPoint */
SRP1[ ]	/* SetRefPoint1 */
IP[ ]	/* InterpolatePts */
IUP[1]	/* InterpolateUntPts */
IUP[0]	/* InterpolateUntPts */";
};
width = 1229;
}
);
note = uni00AE;
unicode = 174;
},
{
glyphname = macron;
layers = (
{
layerId = m01;
shapes = (
{
closed = 1;
nodes = (
(-20,1696,l),
(-20,1556,l),
(1249,1556,l),
(1249,1696,l)
);
}
);
userData = {
assembly = "PUSHB[ ]	/* 6 values pushed */
1 0 3 186 0 0 
SVTCA[0]	/* SetFreedomAndProjectionVectorToAxis */
MIAP[1]	/* MoveIndirectAbsPt */
MIRP[00001]	/* MoveIndirectRelPt */
SVTCA[1]	/* SetFreedomAndProjectionVectorToAxis */
MDAP[1]	/* MoveDirectAbsPt */
MDAP[1]	/* MoveDirectAbsPt */
IUP[1]	/* InterpolateUntPts */
IUP[0]	/* InterpolateUntPts */";
};
width = 1229;
}
);
note = uni00AF;
unicode = 175;
},
{
glyphname = degree;
layers = (
{
layerId = m01;
shapes = (
{
closed = 1;
nodes = (
(299,1296,o),
(299,1167,qs),
(299,1039,o),
(483,854,o),
(614,854,qs),
(744,854,o),
(930,1038,o),
(930,1167,qs),
(930,1296,o),
(743,1483,o),
(614,1483,qs),
(484,1483,o)
);
},
{
closed = 1;
nodes = (
(422,1089,o),
(422,1167,qs),
(422,1247,o),
(535,1362,o),
(614,1362,qs),
(692,1362,o),
(807,1248,o),
(807,1167,qs),
(807,1089,o),
(693,977,o),
(614,977,qs),
(534,977,o)
);
}
);
userData = {
assembly = "NPUSHB[ ]	/* 26 values pushed */
169 10 185 10 2 10 16 9 15 72 169 8 185 8 2 8 16 9 15 72 166 4 182 4 2 4 
PUSHW[ ]	/* 1 value pushed */
-16 
NPUSHB[ ]	/* 9 values pushed */
9 15 72 166 2 182 2 2 2 
PUSHW[ ]	/* 1 value pushed */
-16 
NPUSHB[ ]	/* 33 values pushed */
9 15 72 15 171 159 3 175 3 255 3 3 3 25 21 171 0 9 32 9 48 9 144 9 160 9 176 9 240 9 7 9 12 
PUSHW[ ]	/* 1 value pushed */
258 
NPUSHB[ ]	/* 12 values pushed */
0 6 16 6 32 6 224 6 240 6 5 6 
PUSHW[ ]	/* 1 value pushed */
-64 
PUSHB[ ]	/* 5 values pushed */
16 21 72 6 18 
PUSHW[ ]	/* 1 value pushed */
258 
PUSHB[ ]	/* 2 values pushed */
0 4 
SVTCA[0]	/* SetFreedomAndProjectionVectorToAxis */
MIAP[1]	/* MoveIndirectAbsPt */
MIRP[00001]	/* MoveIndirectRelPt */
MDRP[10100]	/* MoveDirectRelPt */
CALL[ ]	/* CallFunction */
DELTAP1[ ]	/* DeltaExceptionP1 */
MIRP[00001]	/* MoveIndirectRelPt */
SVTCA[1]	/* SetFreedomAndProjectionVectorToAxis */
MDAP[1]	/* MoveDirectAbsPt */
DELTAP1[ ]	/* DeltaExceptionP1 */
MIRP[00001]	/* MoveIndirectRelPt */
SRP0[ ]	/* SetRefPoint0 */
MDRP[11110]	/* MoveDirectRelPt */
DELTAP1[ ]	/* DeltaExceptionP1 */
MIRP[00001]	/* MoveIndirectRelPt */
IUP[1]	/* InterpolateUntPts */
IUP[0]	/* InterpolateUntPts */
CALL[ ]	/* CallFunction */
DELTAP1[ ]	/* DeltaExceptionP1 */
CALL[ ]	/* CallFunction */
DELTAP1[ ]	/* DeltaExceptionP1 */
CALL[ ]	/* CallFunction */
DELTAP1[ ]	/* DeltaExceptionP1 */
CALL[ ]	/* CallFunction */
DELTAP1[ ]	/* DeltaExceptionP1 */";
};
width = 1229;
}
);
note = uni00B0;
unicode = 176;
},
{
glyphname = plusminus;
layers = (
{
layerId = m01;
shapes = (
{
closed = 1;
nodes = (
(688,262,l),
(688,647,l),
(1075,647,l),
(1075,797,l),
(688,797,l),
(688,1186,l),
(539,1186,l),
(539,797,l),
(152,797,l),
(152,647,l),
(539,647,l),
(539,262,l)
);
},
{
closed = 1;
nodes = (
(1075,150,l),
(152,150,l),
(152,0,l),
(1075,0,l)
);
}
);
userData = {
assembly = "NPUSHB[ ]	/* 22 values pushed */
14 9 6 170 13 0 192 3 208 3 2 3 13 173 12 24 9 0 173 6 3 179 
SVTCA[0]	/* SetFreedomAndProjectionVectorToAxis */
MIAP[1]	/* MoveIndirectAbsPt */
SHP[1]	/* ShiftPointByLastPoint */
MIRP[00001]	/* MoveIndirectRelPt */
SHP[0]	/* ShiftPointByLastPoint */
MIAP[1]	/* MoveIndirectAbsPt */
MIRP[00001]	/* MoveIndirectRelPt */
SVTCA[1]	/* SetFreedomAndProjectionVectorToAxis */
MDAP[1]	/* MoveDirectAbsPt */
DELTAP1[ ]	/* DeltaExceptionP1 */
SHP[1]	/* ShiftPointByLastPoint */
SHP[1]	/* ShiftPointByLastPoint */
MIRP[00001]	/* MoveIndirectRelPt */
SHP[0]	/* ShiftPointByLastPoint */
SHP[0]	/* ShiftPointByLastPoint */
IUP[1]	/* InterpolateUntPts */
IUP[0]	/* InterpolateUntPts */";
};
width = 1229;
}
);
note = uni00B1;
unicode = 177;
},
{
glyphname = twosuperior;
layers = (
{
layerId = m01;
shapes = (
{
closed = 1;
nodes = (
(516,786,l),
(651,922,ls),
(780,1051,o),
(850,1187,o),
(850,1253,qs),
(850,1357,o),
(720,1477,o),
(602,1477,qs),
(471,1477,o),
(354,1374,q),
(432,1288,l),
(515,1364,o),
(596,1364,qs),
(707,1364,o),
(707,1249,qs),
(707,1192,o),
(646,1091,o),
(535,973,qs),
(348,774,l),
(348,672,l),
(879,672,l),
(879,786,l)
);
}
);
userData = {
assembly = "NPUSHB[ ]	/* 51 values pushed */
21 21 6 224 15 16 31 16 79 16 95 16 127 16 143 16 159 16 7 16 16 20 11 11 0 1 96 1 112 1 128 1 4 1 6 1 10 16 17 24 72 10 8 228 13 222 2 20 228 1 221 
SVTCA[0]	/* SetFreedomAndProjectionVectorToAxis */
MIAP[1]	/* MoveIndirectAbsPt */
MIRP[00001]	/* MoveIndirectRelPt */
SHP[0]	/* ShiftPointByLastPoint */
MIAP[1]	/* MoveIndirectAbsPt */
MIRP[00001]	/* MoveIndirectRelPt */
SHP[1]	/* ShiftPointByLastPoint */
CALL[ ]	/* CallFunction */
SRP2[ ]	/* SetRefPoint2 */
IP[ ]	/* InterpolatePts */
SVTCA[1]	/* SetFreedomAndProjectionVectorToAxis */
MDAP[1]	/* MoveDirectAbsPt */
DELTAP1[ ]	/* DeltaExceptionP1 */
SHP[0]	/* ShiftPointByLastPoint */
MDAP[1]	/* MoveDirectAbsPt */
SHP[0]	/* ShiftPointByLastPoint */
SHP[0]	/* ShiftPointByLastPoint */
MDAP[1]	/* MoveDirectAbsPt */
DELTAP1[ ]	/* DeltaExceptionP1 */
MIRP[00001]	/* MoveIndirectRelPt */
SHP[1]	/* ShiftPointByLastPoint */
MDAP[1]	/* MoveDirectAbsPt */
IUP[1]	/* InterpolateUntPts */
IUP[0]	/* InterpolateUntPts */";
};
width = 1229;
}
);
note = uni00B2;
unicode = 178;
},
{
glyphname = threesuperior;
layers = (
{
layerId = m01;
shapes = (
{
closed = 1;
nodes = (
(819,1274,qs),
(819,1368,o),
(691,1477,o),
(582,1477,qs),
(455,1477,o),
(344,1384,q),
(410,1298,l),
(500,1368,o),
(571,1368,qs),
(668,1368,o),
(668,1257,qs),
(668,1130,o),
(545,1130,qs),
(475,1130,l),
(475,1026,l),
(547,1026,ls),
(694,1026,o),
(694,901,qs),
(694,764,o),
(545,764,qs),
(452,764,o),
(342,829,q),
(342,705,l),
(426,655,o),
(557,655,qs),
(697,655,o),
(846,783,o),
(846,899,qs),
(846,1046,o),
(670,1085,q),
(819,1135,o)
);
}
);
userData = {
assembly = "NPUSHB[ ]	/* 79 values pushed */
0 16 19 224 23 29 1 29 29 2 16 16 7 12 224 15 2 31 2 79 2 95 2 127 2 143 2 159 2 7 2 2 7 24 24 0 7 96 7 112 7 3 7 0 15 229 250 16 1 233 16 1 168 16 1 111 16 1 11 16 27 16 2 16 16 10 23 16 17 24 72 23 21 228 26 222 10 228 8 
PUSHW[ ]	/* 1 value pushed */
-16 
PUSHB[ ]	/* 6 values pushed */
17 24 72 8 5 223 
SVTCA[0]	/* SetFreedomAndProjectionVectorToAxis */
MIAP[1]	/* MoveIndirectAbsPt */
SHP[1]	/* ShiftPointByLastPoint */
CALL[ ]	/* CallFunction */
MIRP[00001]	/* MoveIndirectRelPt */
MIAP[1]	/* MoveIndirectAbsPt */
MIRP[00001]	/* MoveIndirectRelPt */
SHP[1]	/* ShiftPointByLastPoint */
CALL[ ]	/* CallFunction */
SRP2[ ]	/* SetRefPoint2 */
IP[ ]	/* InterpolatePts */
MDAP[1]	/* MoveDirectAbsPt */
DELTAP1[ ]	/* DeltaExceptionP1 */
DELTAP1[ ]	/* DeltaExceptionP1 */
DELTAP1[ ]	/* DeltaExceptionP1 */
DELTAP1[ ]	/* DeltaExceptionP1 */
DELTAP1[ ]	/* DeltaExceptionP1 */
MIRP[00001]	/* MoveIndirectRelPt */
IP[ ]	/* InterpolatePts */
SVTCA[1]	/* SetFreedomAndProjectionVectorToAxis */
MDAP[1]	/* MoveDirectAbsPt */
DELTAP1[ ]	/* DeltaExceptionP1 */
SHP[1]	/* ShiftPointByLastPoint */
MDAP[1]	/* MoveDirectAbsPt */
SRP1[ ]	/* SetRefPoint1 */
SHP[1]	/* ShiftPointByLastPoint */
MDAP[1]	/* MoveDirectAbsPt */
DELTAP1[ ]	/* DeltaExceptionP1 */
MIRP[00001]	/* MoveIndirectRelPt */
SRP2[ ]	/* SetRefPoint2 */
IP[ ]	/* InterpolatePts */
MDAP[1]	/* MoveDirectAbsPt */
SRP1[ ]	/* SetRefPoint1 */
SHP[1]	/* ShiftPointByLastPoint */
MDAP[1]	/* MoveDirectAbsPt */
DELTAP1[ ]	/* DeltaExceptionP1 */
MIRP[00001]	/* MoveIndirectRelPt */
SRP2[ ]	/* SetRefPoint2 */
IP[ ]	/* InterpolatePts */
IUP[1]	/* InterpolateUntPts */
IUP[0]	/* InterpolateUntPts */";
};
width = 1229;
}
);
note = uni00B3;
unicode = 179;
},
{
glyphname = acute;
layers = (
{
layerId = m01;
shapes = (
{
closed = 1;
nodes = (
(539,1241,l),
(699,1375,o),
(811,1548,q),
(811,1569,l),
(592,1569,l),
(512,1401,o),
(418,1268,q),
(418,1241,l)
);
}
);
userData = {
assembly = "NPUSHB[ ]	/* 16 values pushed */
6 7 134 2 135 3 3 9 2 146 15 6 95 6 2 6 
SVTCA[0]	/* SetFreedomAndProjectionVectorToAxis */
MDAP[1]	/* MoveDirectAbsPt */
DELTAP1[ ]	/* DeltaExceptionP1 */
MIRP[01101]	/* MoveIndirectRelPt */
SRP1[ ]	/* SetRefPoint1 */
SVTCA[1]	/* SetFreedomAndProjectionVectorToAxis */
SHP[1]	/* ShiftPointByLastPoint */
MDAP[1]	/* MoveDirectAbsPt */
MIRP[00001]	/* MoveIndirectRelPt */
MIRP[01101]	/* MoveIndirectRelPt */
SHP[0]	/* ShiftPointByLastPoint */
IUP[1]	/* InterpolateUntPts */
IUP[0]	/* InterpolateUntPts */";
};
width = 1229;
}
);
note = uni00B4;
unicode = 180;
},
{
glyphname = micro;
layers = (
{
layerId = m01;
shapes = (
{
closed = 1;
nodes = (
(180,1098,l),
(180,-492,l),
(362,-492,l),
(362,-172,ls),
(362,-85,o),
(356,68,q),
(430,-20,o),
(569,-20,qs),
(768,-20,o),
(864,147,q),
(874,147,l),
(901,0,l),
(1049,0,l),
(1049,1098,l),
(866,1098,l),
(866,528,ls),
(866,313,o),
(728,131,o),
(580,131,qs),
(362,131,o),
(362,391,qs),
(362,1098,l)
);
}
);
userData = {
assembly = "NPUSHB[ ]	/* 16 values pushed */
10 5 71 143 8 1 8 23 15 0 18 71 0 19 1 19 
PUSHW[ ]	/* 1 value pushed */
-64 
NPUSHB[ ]	/* 16 values pushed */
17 20 72 19 18 27 10 2 80 13 22 9 21 20 6 15 
SVTCA[0]	/* SetFreedomAndProjectionVectorToAxis */
MIAP[1]	/* MoveIndirectAbsPt */
SHP[1]	/* ShiftPointByLastPoint */
MIAP[1]	/* MoveIndirectAbsPt */
MIAP[1]	/* MoveIndirectAbsPt */
MIRP[00001]	/* MoveIndirectRelPt */
SHP[0]	/* ShiftPointByLastPoint */
MIAP[1]	/* MoveIndirectAbsPt */
SVTCA[1]	/* SetFreedomAndProjectionVectorToAxis */
MDAP[1]	/* MoveDirectAbsPt */
CALL[ ]	/* CallFunction */
DELTAP1[ ]	/* DeltaExceptionP1 */
MIRP[00001]	/* MoveIndirectRelPt */
SHP[0]	/* ShiftPointByLastPoint */
SHP[0]	/* ShiftPointByLastPoint */
SRP0[ ]	/* SetRefPoint0 */
MDRP[11110]	/* MoveDirectRelPt */
DELTAP1[ ]	/* DeltaExceptionP1 */
MIRP[00001]	/* MoveIndirectRelPt */
SHP[0]	/* ShiftPointByLastPoint */
IUP[1]	/* InterpolateUntPts */
IUP[0]	/* InterpolateUntPts */";
};
width = 1229;
}
);
note = uni00B5;
unicode = 181;
},
{
glyphname = paragraph;
layers = (
{
layerId = m01;
shapes = (
{
closed = 1;
nodes = (
(516,1556,ls),
(283,1556,o),
(66,1301,o),
(66,1042,qs),
(66,541,o),
(485,541,qs),
(570,541,o),
(631,559,q),
(631,-260,l),
(752,-260,l),
(752,1397,l),
(958,1397,l),
(958,-260,l),
(1079,-260,l),
(1079,1556,l)
);
}
);
userData = {
assembly = "PUSHB[ ]	/* 8 values pushed */
4 154 96 5 240 5 2 5 
PUSHW[ ]	/* 1 value pushed */
-64 
NPUSHB[ ]	/* 37 values pushed */
18 22 72 34 5 50 5 2 4 5 20 5 2 5 5 10 1 154 0 16 10 64 10 15 72 10 10 15 8 8 0 2 81 14 0 5 0 
SVTCA[0]	/* SetFreedomAndProjectionVectorToAxis */
MDAP[1]	/* MoveDirectAbsPt */
SHP[0]	/* ShiftPointByLastPoint */
MIAP[1]	/* MoveIndirectAbsPt */
MIRP[00001]	/* MoveIndirectRelPt */
SRP2[ ]	/* SetRefPoint2 */
IP[ ]	/* InterpolatePts */
MDAP[1]	/* MoveDirectAbsPt */
SRP1[ ]	/* SetRefPoint1 */
SVTCA[1]	/* SetFreedomAndProjectionVectorToAxis */
SHP[1]	/* ShiftPointByLastPoint */
MDAP[1]	/* MoveDirectAbsPt */
CALL[ ]	/* CallFunction */
SRP0[ ]	/* SetRefPoint0 */
MDRP[11110]	/* MoveDirectRelPt */
MIRP[00001]	/* MoveIndirectRelPt */
SRP1[ ]	/* SetRefPoint1 */
IP[ ]	/* InterpolatePts */
MDAP[1]	/* MoveDirectAbsPt */
DELTAP1[ ]	/* DeltaExceptionP1 */
DELTAP1[ ]	/* DeltaExceptionP1 */
CALL[ ]	/* CallFunction */
DELTAP1[ ]	/* DeltaExceptionP1 */
MIRP[00001]	/* MoveIndirectRelPt */
IUP[1]	/* InterpolateUntPts */
IUP[0]	/* InterpolateUntPts */";
};
width = 1229;
}
);
note = uni00B6;
unicode = 182;
},
{
glyphname = periodcentered;
layers = (
{
layerId = m01;
shapes = (
{
closed = 1;
nodes = (
(487,723,qs),
(487,584,o),
(614,584,qs),
(741,584,o),
(741,723,qs),
(741,862,o),
(614,862,qs),
(487,862,o)
);
}
);
userData = {
assembly = "NPUSHB[ ]	/* 20 values pushed */
2 150 48 6 96 6 176 6 224 6 240 6 5 6 6 8 9 0 155 4 
SVTCA[0]	/* SetFreedomAndProjectionVectorToAxis */
MDAP[1]	/* MoveDirectAbsPt */
MIRP[01101]	/* MoveIndirectRelPt */
SRP1[ ]	/* SetRefPoint1 */
SRP2[ ]	/* SetRefPoint2 */
SVTCA[1]	/* SetFreedomAndProjectionVectorToAxis */
IP[ ]	/* InterpolatePts */
MDAP[1]	/* MoveDirectAbsPt */
DELTAP1[ ]	/* DeltaExceptionP1 */
MIRP[01101]	/* MoveIndirectRelPt */
IUP[1]	/* InterpolateUntPts */
IUP[0]	/* InterpolateUntPts */";
};
width = 1229;
}
);
note = uni00B7;
unicode = 183;
},
{
glyphname = cedilla;
layers = (
{
layerId = m01;
shapes = (
{
closed = 1;
nodes = (
(510,-492,qs),
(801,-492,o),
(801,-287,qs),
(801,-152,o),
(641,-115,q),
(698,0,l),
(578,0,l),
(487,-176,l),
(659,-215,o),
(659,-289,qs),
(659,-381,o),
(508,-381,qs),
(461,-381,o),
(428,-375,q),
(428,-483,l),
(476,-492,o)
);
}
);
userData = {
assembly = "PUSHW[ ]	/* 2 values pushed */
13 -80 
NPUSHB[ ]	/* 33 values pushed */
11 19 72 7 48 9 14 72 8 7 9 10 7 10 0 5 132 12 95 0 1 0 0 12 12 17 10 7 8 3 141 14 8 
SVTCA[0]	/* SetFreedomAndProjectionVectorToAxis */
MDAP[1]	/* MoveDirectAbsPt */
MDAP[1]	/* MoveDirectAbsPt */
MIRP[00001]	/* MoveIndirectRelPt */
SRP1[ ]	/* SetRefPoint1 */
IP[ ]	/* InterpolatePts */
IP[ ]	/* InterpolatePts */
SRP1[ ]	/* SetRefPoint1 */
SVTCA[1]	/* SetFreedomAndProjectionVectorToAxis */
SHP[1]	/* ShiftPointByLastPoint */
MDAP[1]	/* MoveDirectAbsPt */
SHP[1]	/* ShiftPointByLastPoint */
MDAP[1]	/* MoveDirectAbsPt */
DELTAP1[ ]	/* DeltaExceptionP1 */
SRP0[ ]	/* SetRefPoint0 */
MIRP[00001]	/* MoveIndirectRelPt */
SRP1[ ]	/* SetRefPoint1 */
IP[ ]	/* InterpolatePts */
IP[ ]	/* InterpolatePts */
SRP1[ ]	/* SetRefPoint1 */
SHP[1]	/* ShiftPointByLastPoint */
SRP1[ ]	/* SetRefPoint1 */
SHP[1]	/* ShiftPointByLastPoint */
IUP[1]	/* InterpolateUntPts */
IUP[0]	/* InterpolateUntPts */
CALL[ ]	/* CallFunction */
CALL[ ]	/* CallFunction */";
};
width = 1229;
}
);
note = uni00B8;
unicode = 184;
},
{
glyphname = onesuperior;
layers = (
{
layerId = m01;
shapes = (
{
closed = 1;
nodes = (
(440,1221,l),
(510,1272,l),
(543,1293,o),
(584,1337,q),
(575,1206,o),
(575,1137,qs),
(575,672,l),
(721,672,l),
(721,1460,l),
(586,1460,l),
(367,1309,l)
);
}
);
userData = {
assembly = "NPUSHB[ ]	/* 15 values pushed */
10 10 2 224 0 3 3 11 12 2 221 6 9 0 220 
SVTCA[0]	/* SetFreedomAndProjectionVectorToAxis */
MIAP[1]	/* MoveIndirectAbsPt */
MDRP[01101]	/* MoveDirectRelPt */
IP[ ]	/* InterpolatePts */
MIAP[1]	/* MoveIndirectAbsPt */
SRP1[ ]	/* SetRefPoint1 */
SRP2[ ]	/* SetRefPoint2 */
SVTCA[1]	/* SetFreedomAndProjectionVectorToAxis */
IP[ ]	/* InterpolatePts */
MDAP[1]	/* MoveDirectAbsPt */
SHP[1]	/* ShiftPointByLastPoint */
MIRP[00001]	/* MoveIndirectRelPt */
SHP[1]	/* ShiftPointByLastPoint */
MDAP[1]	/* MoveDirectAbsPt */
IUP[1]	/* InterpolateUntPts */
IUP[0]	/* InterpolateUntPts */";
};
width = 1229;
}
);
note = uni00B9;
unicode = 185;
},
{
glyphname = ordmasculine;
layers = (
{
layerId = m01;
shapes = (
{
closed = 1;
nodes = (
(948,968,o),
(948,1133,qs),
(948,1294,o),
(761,1479,o),
(616,1479,qs),
(461,1479,o),
(281,1295,o),
(281,1133,qs),
(281,970,o),
(468,784,o),
(612,784,qs),
(764,784,o)
);
},
{
closed = 1;
nodes = (
(432,1133,qs),
(432,1358,o),
(614,1358,qs),
(795,1358,o),
(795,1133,qs),
(795,903,o),
(614,903,qs),
(432,903,o)
);
}
);
userData = {
assembly = "NPUSHB[ ]	/* 27 values pushed */
14 224 176 9 1 127 9 1 9 9 18 224 32 3 48 3 160 3 3 3 16 230 6 222 12 230 0 
PUSHW[ ]	/* 1 value pushed */
256 
SVTCA[0]	/* SetFreedomAndProjectionVectorToAxis */
MIAP[1]	/* MoveIndirectAbsPt */
MIRP[00001]	/* MoveIndirectRelPt */
MIAP[1]	/* MoveIndirectAbsPt */
MIRP[00001]	/* MoveIndirectRelPt */
SVTCA[1]	/* SetFreedomAndProjectionVectorToAxis */
MDAP[1]	/* MoveDirectAbsPt */
DELTAP1[ ]	/* DeltaExceptionP1 */
MIRP[00001]	/* MoveIndirectRelPt */
SHP[1]	/* ShiftPointByLastPoint */
MDAP[1]	/* MoveDirectAbsPt */
DELTAP1[ ]	/* DeltaExceptionP1 */
DELTAP1[ ]	/* DeltaExceptionP1 */
MIRP[00001]	/* MoveIndirectRelPt */
IUP[1]	/* InterpolateUntPts */
IUP[0]	/* InterpolateUntPts */";
};
width = 1229;
}
);
note = uni00BA;
unicode = 186;
},
{
glyphname = guillemetright;
layers = (
{
layerId = m01;
shapes = (
{
closed = 1;
nodes = (
(721,967,l),
(604,889,l),
(842,541,l),
(604,193,l),
(721,115,l),
(1030,526,l),
(1030,553,l)
);
},
{
closed = 1;
nodes = (
(313,967,l),
(197,889,l),
(434,541,l),
(197,193,l),
(313,115,l),
(623,526,l),
(623,553,l)
);
}
);
userData = {
assembly = "NPUSHB[ ]	/* 42 values pushed */
2 4 236 3 235 63 6 143 6 159 6 175 6 4 6 15 9 11 236 64 10 235 159 13 1 0 13 1 13 12 5 238 8 1 238 32 0 6 10 3 3 239 
SVTCA[0]	/* SetFreedomAndProjectionVectorToAxis */
RTHG[ ]	/* RoundToHalfGrid */
MIAP[1]	/* MoveIndirectAbsPt */
SLOOP[ ]	/* SetLoopVariable */
SHP[1]	/* ShiftPointByLastPoint */
SMD[ ]	/* SetMinimumDistance */
MIRP[01101]	/* MoveIndirectRelPt */
SHP[0]	/* ShiftPointByLastPoint */
MIRP[01101]	/* MoveIndirectRelPt */
SHP[0]	/* ShiftPointByLastPoint */
SVTCA[1]	/* SetFreedomAndProjectionVectorToAxis */
RTG[ ]	/* RoundToGrid */
MDAP[1]	/* MoveDirectAbsPt */
DELTAP1[ ]	/* DeltaExceptionP1 */
DELTAP1[ ]	/* DeltaExceptionP1 */
MIRP[00001]	/* MoveIndirectRelPt */
SMD[ ]	/* SetMinimumDistance */
MIRP[01101]	/* MoveIndirectRelPt */
SHP[0]	/* ShiftPointByLastPoint */
SRP0[ ]	/* SetRefPoint0 */
MDRP[11110]	/* MoveDirectRelPt */
DELTAP1[ ]	/* DeltaExceptionP1 */
MIRP[00001]	/* MoveIndirectRelPt */
MIRP[01101]	/* MoveIndirectRelPt */
SHP[0]	/* ShiftPointByLastPoint */
IUP[1]	/* InterpolateUntPts */
IUP[0]	/* InterpolateUntPts */";
};
width = 1229;
}
);
note = uni00BB;
unicode = 187;
},
{
glyphname = questiondown;
layers = (
{
layerId = m01;
shapes = (
{
closed = 1;
nodes = (
(801,979,qs),
(801,1118,o),
(674,1118,qs),
(547,1118,o),
(547,979,qs),
(547,840,o),
(674,840,qs),
(801,840,o)
);
},
{
closed = 1;
nodes = (
(602,657,ls),
(602,567,o),
(537,460,o),
(418,373,qs),
(275,265,o),
(168,99,o),
(168,-35,qs),
(168,-198,o),
(416,-393,o),
(633,-393,qs),
(836,-393,o),
(1055,-287,q),
(993,-143,l),
(804,-233,o),
(623,-233,qs),
(491,-233,o),
(342,-120,o),
(342,-27,qs),
(342,74,o),
(426,190,o),
(555,287,qs),
(673,371,o),
(762,520,o),
(762,639,qs),
(762,676,l),
(602,676,l)
);
}
);
userData = {
assembly = "NPUSHB[ ]	/* 55 values pushed */
33 8 8 6 150 64 2 80 2 2 2 2 15 159 21 1 21 35 32 35 1 15 71 159 26 1 0 26 1 26 15 23 32 8 1 8 8 0 20 18 81 48 23 1 23 26 0 1 9 0 1 0 155 4 16 
SVTCA[0]	/* SetFreedomAndProjectionVectorToAxis */
MIAP[1]	/* MoveIndirectAbsPt */
MIRP[00001]	/* MoveIndirectRelPt */
DELTAP1[ ]	/* DeltaExceptionP1 */
DELTAP1[ ]	/* DeltaExceptionP1 */
MDAP[1]	/* MoveDirectAbsPt */
DELTAP1[ ]	/* DeltaExceptionP1 */
MIRP[00001]	/* MoveIndirectRelPt */
SHP[1]	/* ShiftPointByLastPoint */
SRP2[ ]	/* SetRefPoint2 */
IP[ ]	/* InterpolatePts */
MDAP[1]	/* MoveDirectAbsPt */
DELTAP1[ ]	/* DeltaExceptionP1 */
SRP2[ ]	/* SetRefPoint2 */
IP[ ]	/* InterpolatePts */
SVTCA[1]	/* SetFreedomAndProjectionVectorToAxis */
MDAP[1]	/* MoveDirectAbsPt */
DELTAP1[ ]	/* DeltaExceptionP1 */
DELTAP1[ ]	/* DeltaExceptionP1 */
MIRP[00001]	/* MoveIndirectRelPt */
DELTAP1[ ]	/* DeltaExceptionP1 */
SRP0[ ]	/* SetRefPoint0 */
MDRP[01110]	/* MoveDirectRelPt */
DELTAP1[ ]	/* DeltaExceptionP1 */
SRP1[ ]	/* SetRefPoint1 */
IP[ ]	/* InterpolatePts */
MDAP[1]	/* MoveDirectAbsPt */
DELTAP1[ ]	/* DeltaExceptionP1 */
MIRP[00101]	/* MoveIndirectRelPt */
SHP[0]	/* ShiftPointByLastPoint */
SRP1[ ]	/* SetRefPoint1 */
SHP[1]	/* ShiftPointByLastPoint */
IUP[1]	/* InterpolateUntPts */
IUP[0]	/* InterpolateUntPts */";
};
width = 1229;
}
);
note = uni00BF;
unicode = 191;
},
{
glyphname = AE;
layers = (
{
layerId = m01;
shapes = (
{
closed = 1;
nodes = (
(733,164,l),
(733,684,l),
(1171,684,l),
(1171,846,l),
(733,846,l),
(733,1298,l),
(1210,1298,l),
(1210,1462,l),
(338,1462,l),
(0,0,l),
(172,0,l),
(268,453,l),
(557,453,l),
(557,0,l),
(1210,0,l),
(1210,164,l)
);
},
{
closed = 1;
nodes = (
(557,1298,l),
(557,618,l),
(305,618,l),
(451,1298,l)
);
}
);
userData = {
assembly = "NPUSHB[ ]	/* 84 values pushed */
6 8 11 14 72 16 3 19 4 201 19 217 19 233 19 3 55 19 1 19 6 10 14 90 1 17 1 15 1 1 79 1 95 1 127 1 143 1 239 1 255 1 6 6 1 11 11 1 6 3 5 8 0 21 4 5 3 95 16 13 95 10 159 16 207 16 2 104 10 1 16 10 16 10 14 19 9 95 6 3 14 95 4 1 
SVTCA[0]	/* SetFreedomAndProjectionVectorToAxis */
MDAP[1]	/* MoveDirectAbsPt */
SHP[1]	/* ShiftPointByLastPoint */
MIRP[00001]	/* MoveIndirectRelPt */
MIAP[1]	/* MoveIndirectAbsPt */
MIRP[00001]	/* MoveIndirectRelPt */
SHP[0]	/* ShiftPointByLastPoint */
SRP2[ ]	/* SetRefPoint2 */
IP[ ]	/* InterpolatePts */
IP[ ]	/* InterpolatePts */
MDAP[1]	/* MoveDirectAbsPt */
MDAP[1]	/* MoveDirectAbsPt */
DELTAP1[ ]	/* DeltaExceptionP1 */
DELTAP1[ ]	/* DeltaExceptionP1 */
SRP0[ ]	/* SetRefPoint0 */
MIRP[00001]	/* MoveIndirectRelPt */
SRP0[ ]	/* SetRefPoint0 */
MIRP[00001]	/* MoveIndirectRelPt */
SVTCA[1]	/* SetFreedomAndProjectionVectorToAxis */
MDAP[1]	/* MoveDirectAbsPt */
SHP[1]	/* ShiftPointByLastPoint */
SRP0[ ]	/* SetRefPoint0 */
MDRP[01110]	/* MoveDirectRelPt */
SHP[0]	/* ShiftPointByLastPoint */
SRP1[ ]	/* SetRefPoint1 */
SLOOP[ ]	/* SetLoopVariable */
IP[ ]	/* InterpolatePts */
MDAP[1]	/* MoveDirectAbsPt */
MDAP[1]	/* MoveDirectAbsPt */
MDAP[1]	/* MoveDirectAbsPt */
DELTAP1[ ]	/* DeltaExceptionP1 */
DELTAP2[ ]	/* DeltaExceptionP2 */
SRP1[ ]	/* SetRefPoint1 */
SHP[1]	/* ShiftPointByLastPoint */
SRP0[ ]	/* SetRefPoint0 */
MIRP[00001]	/* MoveIndirectRelPt */
SHP[0]	/* ShiftPointByLastPoint */
SRP1[ ]	/* SetRefPoint1 */
SHP[1]	/* ShiftPointByLastPoint */
DELTAP1[ ]	/* DeltaExceptionP1 */
DELTAP1[ ]	/* DeltaExceptionP1 */
SRP1[ ]	/* SetRefPoint1 */
SRP2[ ]	/* SetRefPoint2 */
IP[ ]	/* InterpolatePts */
IP[ ]	/* InterpolatePts */
CALL[ ]	/* CallFunction */
IUP[1]	/* InterpolateUntPts */
IUP[0]	/* InterpolateUntPts */";
};
width = 1229;
}
);
note = uni00C6;
unicode = 198;
},
{
glyphname = Eth;
layers = (
{
layerId = m01;
shapes = (
{
closed = 1;
nodes = (
(781,0,o),
(1147,384,o),
(1147,745,qs),
(1147,1084,o),
(794,1462,o),
(477,1462,qs),
(135,1462,l),
(135,821,l),
(0,821,l),
(0,659,l),
(135,659,l),
(135,0,l),
(436,0,ls)
);
},
{
closed = 1;
nodes = (
(950,1303,o),
(950,739,qs),
(950,160,o),
(418,160,qs),
(322,160,l),
(322,659,l),
(702,659,l),
(702,821,l),
(322,821,l),
(322,1303,l),
(457,1303,ls)
);
}
);
userData = {
assembly = "NPUSHB[ ]	/* 44 values pushed */
16 0 21 91 9 25 14 18 90 4 2 0 0 224 0 240 0 3 0 17 2 95 14 104 3 1 47 3 159 3 207 3 3 3 3 18 13 96 5 3 18 96 0 18 
SVTCA[0]	/* SetFreedomAndProjectionVectorToAxis */
MIAP[1]	/* MoveIndirectAbsPt */
MIRP[00001]	/* MoveIndirectRelPt */
MIAP[1]	/* MoveIndirectAbsPt */
MIRP[00001]	/* MoveIndirectRelPt */
SRP2[ ]	/* SetRefPoint2 */
IP[ ]	/* InterpolatePts */
MDAP[1]	/* MoveDirectAbsPt */
DELTAP1[ ]	/* DeltaExceptionP1 */
DELTAP1[ ]	/* DeltaExceptionP1 */
SHP[1]	/* ShiftPointByLastPoint */
MIRP[00001]	/* MoveIndirectRelPt */
SHP[0]	/* ShiftPointByLastPoint */
SVTCA[1]	/* SetFreedomAndProjectionVectorToAxis */
MDAP[1]	/* MoveDirectAbsPt */
DELTAP1[ ]	/* DeltaExceptionP1 */
MDRP[00110]	/* MoveDirectRelPt */
SHP[1]	/* ShiftPointByLastPoint */
MIRP[00001]	/* MoveIndirectRelPt */
SHP[0]	/* ShiftPointByLastPoint */
SRP0[ ]	/* SetRefPoint0 */
MDRP[11110]	/* MoveDirectRelPt */
MIRP[00001]	/* MoveIndirectRelPt */
SRP1[ ]	/* SetRefPoint1 */
IP[ ]	/* InterpolatePts */
IUP[1]	/* InterpolateUntPts */
IUP[0]	/* InterpolateUntPts */";
};
width = 1229;
}
);
note = uni00D0;
unicode = 208;
},
